<?xml version="1.0" encoding="UTF-8" standalone="no"?>
<!DOCTYPE svg PUBLIC "-//W3C//DTD SVG 1.1//EN" "http://www.w3.org/Graphics/SVG/1.1/DTD/svg11.dtd">
<svg width="595.34" height="419.45" viewBox="0.00 0.00 2894.00 2039.00" xmlns="http://www.w3.org/2000/svg" xmlns:xlink="http://www.w3.org/1999/xlink">
<g stroke-linecap="round" id="レイヤー_9">
<path d="M1436.82,1246.43 C1428.29,1246.37 1411.20,1248.47 1409.59,1248.66 C1402.74,1249.49 1388.85,1249.55 1377.93,1249.10 C1372.85,1248.80 1366.03,1248.11 1362.92,1247.34 C1359.89,1246.57 1354.13,1244.34 1350.61,1242.57 C1346.91,1240.68 1342.44,1237.38 1339.90,1234.68 C1337.49,1232.08 1334.17,1227.23 1332.48,1223.84 C1330.79,1220.39 1329.06,1214.66 1328.51,1210.68 C1327.70,1204.48 1327.96,1189.44 1329.21,1183.21 C1330.77,1175.67 1335.71,1162.23 1339.55,1155.06 C1342.79,1149.08 1352.58,1135.82 1357.34,1130.55 C1359.80,1127.84 1364.75,1123.11 1367.73,1120.93 C1370.77,1118.73 1377.34,1115.11 1380.34,1114.09 C1382.65,1113.33 1389.52,1111.85 1393.11,1111.50 C1397.68,1111.09 1403.73,1111.62 1407.51,1112.79 C1410.86,1113.86 1417.49,1117.89 1420.16,1120.48 C1421.97,1122.28 1426.54,1128.64 1428.08,1131.49 C1429.60,1134.34 1432.64,1142.05 1433.57,1145.38 C1435.36,1151.97 1436.92,1166.99 1437.01,1174.76 C1437.06,1181.39 1435.57,1195.33 1433.87,1201.63 C1433.03,1204.69 1430.79,1210.87 1429.24,1213.81 C1426.21,1219.46 1416.13,1231.76 1411.12,1236.04 C1405.34,1240.95 1391.47,1250.20 1386.96,1252.51 C1381.48,1255.30 1367.00,1260.53 1359.69,1262.26 C1355.65,1263.21 1349.23,1264.24 1345.11,1264.52 C1340.77,1264.79 1334.15,1264.49 1330.18,1263.83 C1326.16,1263.12 1320.23,1261.18 1316.87,1259.46 C1313.50,1257.70 1308.80,1254.02 1306.33,1251.20 C1303.90,1248.38 1300.80,1243.28 1299.32,1239.66 C1297.88,1236.05 1296.26,1229.94 1295.61,1225.61 C1294.58,1218.56 1294.93,1202.02 1296.30,1195.23 C1297.79,1188.00 1302.36,1174.73 1306.23,1167.15 C1310.05,1159.71 1316.95,1149.08 1322.08,1141.87 C1326.30,1136.08 1336.77,1123.07 1339.89,1119.62 C1344.74,1114.29 1357.31,1103.46 1363.36,1099.65 C1369.30,1095.93 1383.02,1089.34 1390.62,1086.72 C1398.16,1084.14 1410.83,1081.57 1417.74,1080.92 C1424.58,1080.30 1439.58,1081.54 1446.05,1083.62 C1449.41,1084.73 1455.34,1087.64 1458.03,1089.66 C1460.73,1091.72 1465.88,1096.91 1467.71,1099.38 C1469.52,1101.85 1472.99,1108.24 1474.45,1111.71 C1476.83,1117.44 1479.58,1132.22 1479.92,1139.19 C1480.27,1146.96 1478.34,1160.83 1476.32,1167.11 C1474.00,1174.18 1467.14,1186.77 1462.14,1193.07 C1457.32,1199.12 1447.99,1208.52 1441.45,1214.28 C1436.42,1218.63 1422.40,1228.80 1417.22,1232.05 C1408.05,1237.64 1398.37,1242.89 1390.63,1246.42 C1381.39,1250.43 1370.28,1254.77 1363.25,1257.03 C1356.04,1259.32 1341.97,1262.02 1335.30,1262.58 C1328.93,1263.09 1314.11,1262.83 1307.19,1261.96 C1299.37,1260.94 1285.40,1257.58 1278.35,1254.66 C1274.77,1253.16 1267.86,1249.29 1264.69,1247.11 C1258.71,1242.97 1247.53,1231.97 1243.85,1227.73 C1241.11,1224.54 1237.80,1219.61 1236.27,1216.65 C1233.81,1211.73 1231.90,1207.35 1231.23,1204.82 C1229.98,1200.02 1228.01,1182.02 1228.48,1175.05 C1229.02,1167.80 1232.38,1153.17 1235.10,1145.84 C1237.85,1138.52 1244.05,1126.38 1248.83,1118.95 C1253.54,1111.64 1263.23,1099.21 1267.69,1094.20 C1272.70,1088.58 1282.37,1079.48 1288.96,1073.99 C1293.28,1070.44 1308.25,1059.87 1313.03,1056.98 C1318.66,1053.60 1332.47,1046.69 1338.34,1044.39 C1345.22,1041.71 1358.60,1037.72 1365.81,1036.46 C1373.49,1035.15 1388.92,1033.71 1395.91,1033.66 C1403.60,1033.64 1418.52,1036.45 1424.78,1039.08 C1428.13,1040.51 1434.71,1044.06 1437.25,1045.79 C1442.47,1049.39 1452.40,1059.38 1456.47,1065.50 C1458.65,1068.83 1461.62,1074.40 1463.21,1078.32 C1464.86,1082.44 1466.59,1089.04 1467.19,1093.44 C1467.77,1097.86 1467.88,1104.76 1467.45,1109.17 C1467.01,1113.47 1465.55,1119.72 1464.21,1123.54 C1462.99,1126.93 1459.94,1133.18 1457.83,1136.31 C1453.82,1142.19 1443.77,1153.16 1437.86,1158.55 C1432.63,1163.30 1420.38,1172.54 1414.51,1176.26 C1408.27,1180.18 1393.57,1187.93 1386.15,1190.98 C1378.27,1194.21 1364.05,1198.84 1356.66,1200.57 C1348.92,1202.36 1333.28,1203.56 1326.11,1202.92 C1321.84,1202.52 1314.15,1201.22 1311.06,1200.31 C1307.99,1199.39 1301.32,1196.37 1298.32,1194.56 C1295.44,1192.78 1290.37,1188.34 1288.12,1185.82 C1285.61,1182.97 1282.38,1178.12 1280.68,1174.66 C1279.30,1171.80 1276.80,1165.12 1276.01,1161.76 C1274.32,1154.43 1273.68,1141.44 1274.40,1134.20 C1275.13,1127.28 1279.60,1112.24 1282.87,1105.57 C1285.61,1100.08 1294.74,1086.60 1299.23,1081.24 C1302.60,1077.23 1315.31,1063.79 1320.67,1058.76 C1328.02,1052.06 1336.97,1044.62 1342.79,1040.56 C1348.72,1036.44 1361.03,1029.14 1367.49,1026.02 C1372.92,1023.41 1387.49,1017.53 1394.31,1015.30 C1402.22,1012.83 1416.11,1009.38 1422.85,1008.27 C1430.38,1007.04 1445.29,1005.67 1453.36,1005.71 C1461.61,1005.76 1474.78,1007.36 1482.28,1009.48 C1489.27,1011.48 1501.99,1018.02 1506.90,1021.95 C1511.87,1025.97 1521.25,1037.19 1524.67,1043.55 C1528.15,1050.10 1532.82,1063.00 1534.59,1070.78 C1536.18,1077.84 1537.49,1092.68 1537.48,1099.60 C1537.46,1106.83 1535.97,1121.20 1534.07,1128.40 C1531.99,1136.20 1526.71,1148.47 1522.58,1155.70 C1518.50,1162.81 1511.05,1173.64 1505.25,1181.41 C1500.47,1187.55 1489.75,1199.78 1485.83,1203.91 C1480.74,1209.11 1469.70,1219.11 1463.97,1223.92 C1457.32,1229.27 1447.69,1236.03 1438.32,1242.09 C1425.85,1249.98 1406.74,1259.44 1399.07,1262.52 C1395.11,1264.08 1384.80,1266.56 1383.68,1266.87 C1379.63,1267.99 1373.25,1271.38 1372.36,1271.00 C1371.31,1270.52 1369.52,1268.04 1368.79,1266.34 C1366.64,1261.04 1362.51,1245.57 1361.26,1240.89" fill="none" stroke="rgb(255, 255, 255)" stroke-width="300.00" stroke-opacity="1.00" stroke-linejoin="round"/>
<path d="M1331.79,886.35 C1330.15,884.13 1328.62,878.89 1327.59,873.36 C1326.91,869.24 1325.29,859.31 1324.82,856.81 C1323.72,851.48 1321.74,845.26 1319.47,843.35 C1317.17,841.48 1312.46,839.16 1308.61,838.06 C1302.67,836.40 1287.12,833.67 1279.19,833.79 C1271.95,833.93 1261.13,836.63 1252.23,839.85 C1244.89,842.56 1227.23,849.38 1223.11,851.46 C1217.08,854.51 1206.10,863.70 1202.45,867.58 C1201.78,868.30 1197.16,873.79 1195.09,875.67 C1191.62,878.78 1179.11,884.71 1171.38,890.50 C1163.30,896.70 1155.28,903.30 1150.07,909.02 C1144.49,915.17 1135.99,927.75 1135.02,929.13 C1132.21,933.10 1100.80,969.03 1098.00,972.59 C1093.28,978.60 1083.94,992.34 1080.73,998.14 C1076.48,1006.07 1067.30,1019.79 1066.07,1021.67 C1062.76,1026.77 1057.70,1040.11 1055.37,1046.27 C1052.50,1053.57 1046.16,1065.14 1041.57,1069.94 C1037.73,1073.89 1023.41,1083.98 1020.74,1085.48 C1018.84,1086.53 1004.29,1093.48 999.84,1096.73 C996.81,1098.97 992.45,1103.63 989.97,1107.08 C987.36,1110.75 983.01,1117.69 981.87,1120.76 C980.99,1123.24 980.13,1129.44 980.03,1132.86 C979.95,1136.39 980.68,1141.97 981.71,1145.75 C982.74,1149.42 985.14,1155.26 987.00,1158.61 C990.33,1164.54 999.65,1175.50 1004.76,1179.93 C1009.91,1184.34 1017.52,1189.17 1021.53,1190.89 C1023.55,1191.70 1025.62,1191.74 1026.72,1190.89 C1027.96,1189.86 1029.78,1184.15 1030.80,1179.34 C1033.14,1167.47 1035.63,1156.86 1037.98,1150.01 C1040.42,1142.99 1046.85,1129.78 1050.89,1124.20 C1051.80,1122.94 1057.75,1115.33 1060.02,1111.98 C1064.00,1106.08 1070.01,1093.75 1072.58,1086.77 C1076.05,1077.00 1080.34,1067.34 1084.12,1060.12 C1087.63,1053.55 1094.66,1043.04 1100.65,1035.06 C1110.85,1022.26 1130.57,997.01 1139.88,984.39 C1152.29,967.74 1166.71,950.42 1179.27,936.80 C1185.21,930.50 1196.07,919.70 1200.52,915.84 C1205.36,911.68 1220.42,900.92 1224.77,898.14 C1231.31,894.05 1244.79,886.68 1251.81,883.12 C1261.58,878.51 1274.20,873.36 1282.12,870.38 C1292.91,866.51 1299.86,864.48 1307.82,863.80 C1310.06,863.61 1311.36,864.20 1313.03,865.86 C1311.67,868.57 1308.88,872.17 1306.51,874.29 C1303.77,876.69 1287.11,888.38 1280.19,893.14 C1262.32,904.98 1253.41,909.66 1252.66,910.06 C1256.07,906.28 1268.44,896.56 1274.85,891.57 C1297.33,874.42 1308.43,867.23 1315.44,863.99 C1315.70,864.75 1315.45,865.31 1314.07,866.73 C1303.46,878.11 1278.75,903.93 1270.15,912.19 C1259.59,921.96 1240.46,937.05 1224.46,948.78 C1222.98,949.86 1220.88,951.43 1219.74,952.33" fill="none" stroke="rgb(255, 255, 255)" stroke-width="50.00" stroke-opacity="1.00" stroke-linejoin="round"/>
<path d="M1112.65,1035.22 C1106.57,1035.77 1102.86,1036.47 1100.04,1038.02 C1096.38,1040.13 1055.38,1075.44 1049.89,1079.82 C1048.55,1080.89 1042.25,1085.51 1039.72,1087.95 C1034.06,1093.47 1025.54,1105.67 1023.32,1110.33 C1020.61,1116.07 1015.90,1130.79 1013.62,1139.43 C1011.50,1147.70 1010.29,1161.44 1010.68,1167.58 C1011.29,1176.54 1013.21,1181.51 1014.51,1184.29 C1014.51,1184.29 1015.66,1183.65 1015.66,1183.65 C1015.72,1181.65 1014.58,1177.35 1012.33,1171.20 C1008.19,1160.43 1006.38,1158.44 1004.50,1156.56 C1003.12,1158.41 1002.58,1159.55 1002.47,1161.27 C1002.10,1167.15 1003.46,1181.06 1004.73,1188.51 C1006.09,1196.02 1009.75,1213.10 1010.85,1217.18 C1012.68,1223.93 1016.62,1233.84 1021.36,1244.54 C1017.65,1232.75 1005.85,1205.73 1004.76,1204.19 C1005.29,1208.27 1010.65,1221.58 1014.62,1229.99 C1017.72,1236.12 1024.43,1249.11 1028.17,1255.87 C1031.99,1262.44 1040.76,1276.32 1045.17,1282.74 C1051.10,1290.95 1060.93,1302.65 1063.13,1303.60 C1063.52,1303.76 1064.49,1303.99 1066.03,1304.28 C1067.02,1301.76 1067.27,1300.53 1067.04,1298.63 C1066.08,1288.72 1064.37,1278.76 1062.62,1270.70 C1058.79,1254.63 1052.32,1220.28 1049.50,1204.77 C1046.24,1185.84 1040.83,1154.38 1038.68,1141.84 C1038.67,1147.06 1041.13,1161.29 1042.45,1168.60 C1045.03,1181.38 1055.78,1217.25 1060.63,1232.66 C1066.76,1251.32 1073.32,1268.88 1080.15,1284.76 C1083.11,1291.34 1089.46,1303.84 1093.83,1310.01 C1096.19,1313.33 1100.28,1318.64 1103.08,1321.89 C1105.62,1324.88 1110.18,1327.14 1111.79,1327.42 C1112.75,1325.37 1112.60,1320.64 1112.53,1317.86 C1112.14,1311.15 1107.53,1295.31 1105.67,1289.07 C1100.45,1272.91 1090.45,1241.32 1085.70,1224.93 C1081.58,1209.50 1067.36,1143.66 1065.96,1133.75 C1064.36,1133.39 1074.61,1171.95 1078.35,1185.53 C1083.14,1201.36 1094.37,1232.02 1100.52,1247.09 C1106.46,1260.76 1121.52,1293.88 1127.09,1304.53 C1131.85,1313.31 1135.96,1319.66 1140.15,1324.36 C1138.86,1317.15 1136.38,1309.44 1132.69,1299.64 C1127.86,1287.05 1116.57,1253.67 1111.70,1238.76 C1106.70,1223.08 1097.02,1192.32 1092.36,1177.24 C1085.97,1155.03 1083.49,1143.65 1082.75,1136.05 C1087.22,1149.20 1097.73,1180.22 1103.77,1198.08 C1111.07,1219.93 1114.94,1234.69 1115.63,1237.61 C1115.28,1235.62 1108.31,1222.31 1102.13,1211.95 C1101.23,1210.47 1099.70,1207.97 1099.08,1206.94" fill="none" stroke="rgb(255, 255, 255)" stroke-width="50.00" stroke-opacity="1.00" stroke-linejoin="round"/>
<path d="M1309.26,933.74 C1306.61,929.54 1304.56,925.96 1303.47,922.85 C1302.33,919.49 1301.26,913.25 1301.08,909.50 C1300.91,905.75 1300.96,898.53 1301.25,894.94 C1301.84,888.17 1306.58,872.85 1308.85,865.45 C1313.50,850.11 1324.06,824.30 1324.86,823.69 C1325.20,823.43 1326.11,823.00 1327.57,822.39 C1329.68,825.35 1331.35,829.01 1333.10,834.02 C1350.83,887.25 1353.60,891.13 1354.60,892.03 C1354.82,887.03 1350.21,843.08 1349.31,831.29 C1348.82,823.53 1349.44,809.91 1350.85,804.44 C1351.35,802.51 1352.23,801.67 1354.29,800.78 C1356.39,801.90 1358.40,803.79 1360.64,806.62 C1365.86,813.43 1402.49,877.33 1402.68,877.64 C1403.77,879.48 1404.05,880.29 1404.15,881.58 C1401.99,880.14 1398.82,876.55 1395.72,872.24 C1390.48,864.80 1384.43,854.15 1381.89,846.45 C1379.23,838.31 1376.36,824.02 1376.08,817.65 C1375.95,814.51 1376.57,807.87 1377.52,804.38 C1378.53,800.78 1382.07,795.06 1384.36,792.95 C1386.87,790.72 1393.78,787.50 1397.14,787.46 C1400.48,787.48 1406.35,789.79 1408.21,790.78 C1411.03,792.35 1414.86,796.01 1417.44,799.31 C1423.15,806.65 1430.55,817.95 1433.38,824.83 C1436.16,831.67 1439.96,847.29 1439.14,851.00 C1438.77,852.62 1437.72,854.74 1436.93,855.75 C1435.14,856.02 1431.91,855.57 1429.56,854.52 C1427.81,853.72 1420.19,846.65 1417.85,843.85 C1414.41,839.69 1408.61,826.01 1407.08,819.74 C1405.51,813.13 1404.41,796.33 1405.68,789.89 C1406.38,786.57 1409.48,780.99 1411.59,779.33 C1413.95,777.56 1419.99,775.85 1423.00,775.94 C1426.53,776.09 1432.40,777.48 1436.00,779.05 C1441.47,781.49 1452.67,790.44 1458.19,796.44 C1462.70,801.39 1470.25,812.43 1473.22,818.57 C1474.63,821.53 1476.88,828.13 1477.45,831.13 C1477.88,833.43 1478.22,840.14 1477.90,843.12 C1477.56,846.07 1475.74,849.80 1473.88,851.10 C1471.86,852.45 1466.86,853.26 1463.65,853.12 C1457.63,852.80 1445.48,849.48 1439.58,846.44 C1436.30,844.73 1431.23,841.37 1428.56,839.13 C1425.86,836.85 1421.78,832.49 1419.55,829.50 C1417.25,826.40 1414.51,821.49 1413.45,818.28 C1412.51,815.38 1411.55,808.91 1411.47,806.35 C1411.42,803.94 1412.03,798.05 1412.75,795.36 C1413.64,792.18 1416.01,787.15 1417.90,784.53 C1419.83,781.93 1425.54,777.57 1428.27,776.41 C1430.70,775.42 1437.54,774.48 1440.74,774.59 C1444.49,774.76 1449.74,775.97 1453.59,777.44 C1457.11,778.80 1461.86,781.27 1464.05,782.88 C1467.19,785.21 1480.34,798.03 1486.07,803.87 C1490.30,808.30 1503.75,823.89 1505.52,826.91 C1506.62,828.80 1508.58,836.03 1508.68,839.10 C1508.75,842.66 1507.89,845.31 1505.83,847.44 C1504.29,848.97 1502.18,850.35 1500.27,850.99 C1497.96,851.73 1489.19,852.08 1486.13,851.92 C1482.21,851.70 1476.18,850.27 1473.00,849.06 C1469.63,847.75 1463.69,844.96 1460.62,842.84 C1457.45,840.62 1451.68,835.23 1449.34,832.29 C1446.99,829.28 1443.75,821.99 1442.96,818.68 C1442.36,816.02 1442.10,809.07 1442.40,806.20 C1442.79,802.77 1444.36,797.49 1445.92,794.43 C1447.47,791.48 1452.40,786.27 1454.99,784.52 C1457.38,782.95 1463.99,780.42 1467.35,779.86 C1471.47,779.22 1477.25,779.49 1481.80,780.58 C1485.25,781.44 1491.81,784.05 1494.26,785.49 C1497.92,787.66 1512.91,799.05 1519.20,804.16 C1523.67,807.90 1537.29,820.33 1541.30,824.92 C1546.50,830.91 1555.95,845.89 1558.82,851.28 C1562.12,857.56 1566.09,871.90 1566.67,878.27 C1567.04,882.53 1566.77,888.89 1565.93,892.36 C1565.03,895.87 1562.16,900.14 1559.76,901.40 C1557.37,902.58 1551.16,902.65 1547.08,901.47 C1542.13,899.98 1529.57,891.76 1524.30,886.86 C1519.44,882.29 1511.20,871.54 1508.19,865.38 C1505.25,859.33 1501.23,846.39 1500.90,840.23 C1500.75,836.74 1502.32,829.30 1504.09,826.62 C1505.96,823.97 1511.86,820.40 1515.19,819.65 C1518.94,818.86 1524.60,818.75 1528.34,819.21 C1532.13,819.72 1537.61,821.33 1541.31,823.06 C1547.72,826.11 1555.93,832.38 1563.90,839.68 C1574.90,849.94 1595.02,870.02 1608.18,884.54 C1620.44,898.64 1632.01,913.15 1635.18,918.40 C1637.06,921.56 1639.26,927.19 1639.81,930.64 C1640.37,934.52 1640.12,939.40 1639.26,942.45 C1637.74,942.90 1635.27,943.06 1633.86,942.56 C1632.13,941.90 1627.16,935.36 1625.19,931.82 C1624.11,929.85 1619.84,921.30 1618.13,917.86 C1616.64,914.86 1614.70,910.96 1614.26,910.06" fill="none" stroke="rgb(255, 255, 255)" stroke-width="50.00" stroke-opacity="1.00" stroke-linejoin="round"/>
<path d="M1528.32,827.95 C1528.32,827.95 1516.87,823.15 1516.87,823.15 C1522.29,835.71 1536.24,861.75 1543.27,874.60 C1573.61,929.08 1573.99,930.07 1574.41,931.89 C1571.58,929.44 1567.93,925.30 1565.46,921.51 C1562.18,916.40 1556.08,903.76 1553.42,896.38 C1550.66,888.68 1546.29,873.23 1544.40,865.65 C1540.86,849.58 1540.33,837.19 1540.28,836.19 C1542.96,839.51 1548.68,852.03 1551.57,858.49 C1559.08,874.83 1573.92,906.82 1581.26,922.46 C1581.91,923.84 1584.71,929.83 1586.83,932.86 C1586.60,930.76 1585.58,926.73 1584.09,922.31 C1583.01,919.14 1582.14,916.97 1580.01,912.07 C1578.57,908.76 1575.50,901.68 1573.87,897.93 C1573.54,897.16 1573.20,896.38 1572.87,895.61" fill="none" stroke="rgb(255, 255, 255)" stroke-width="50.00" stroke-opacity="1.00" stroke-linejoin="round"/>
<path d="M1481.97,767.15 C1484.23,765.87 1489.30,764.93 1495.25,764.58 C1504.54,764.17 1519.37,764.61 1525.28,766.40 C1529.10,767.58 1534.92,770.38 1537.87,772.38 C1538.99,773.15 1545.34,778.66 1548.50,780.38 C1551.72,782.05 1558.30,785.55 1560.71,786.11 C1562.26,786.47 1574.06,788.24 1575.45,788.84 C1577.17,789.61 1594.27,801.95 1599.07,806.42 C1601.94,809.11 1613.75,821.76 1618.19,827.63 C1624.29,835.86 1642.16,863.01 1649.85,875.55 C1657.91,889.49 1672.94,917.93 1680.22,932.12 C1684.69,941.24 1689.13,952.08 1691.40,958.67 C1693.62,965.52 1698.47,981.21 1699.75,986.79 C1701.30,993.97 1703.89,1008.38 1704.79,1015.60 C1705.57,1022.90 1706.58,1035.49 1706.97,1045.15 C1707.20,1055.72 1707.03,1064.85 1706.42,1075.20 C1705.67,1084.50 1704.12,1097.01 1703.05,1104.12 C1701.88,1111.00 1698.34,1128.19 1697.15,1131.85 C1695.78,1136.03 1693.45,1140.68 1692.94,1141.69 C1692.94,1141.69 1678.07,1140.79 1678.07,1140.79" fill="none" stroke="rgb(255, 255, 255)" stroke-width="50.00" stroke-opacity="1.00" stroke-linejoin="round"/>
<path d="M1538.08,819.35 C1542.70,820.07 1546.16,820.96 1549.25,822.88 C1553.93,825.85 1566.66,836.80 1572.69,842.24 C1576.55,845.79 1589.86,858.67 1593.08,862.14 C1600.79,870.48 1621.16,897.80 1630.17,910.49 C1636.43,919.55 1643.72,931.05 1646.75,936.55 C1652.19,946.74 1666.26,977.18 1671.98,992.08 C1675.49,1001.82 1678.25,1010.49 1681.18,1021.14 C1683.03,1028.62 1686.06,1041.23 1688.05,1051.00 C1689.39,1058.22 1691.58,1072.12 1692.11,1079.77 C1692.67,1089.68 1692.74,1104.74 1691.96,1108.86 C1691.69,1110.12 1689.96,1112.76 1688.78,1113.41 C1688.37,1113.62 1683.97,1114.20 1683.79,1114.15 C1681.80,1113.54 1676.43,1107.47 1673.29,1103.72 C1672.02,1102.20 1669.87,1099.63 1668.99,1098.57" fill="none" stroke="rgb(255, 255, 255)" stroke-width="50.00" stroke-opacity="1.00" stroke-linejoin="round"/>
<path d="M1513.41,788.73 C1512.88,786.02 1513.12,784.14 1514.52,781.87 C1516.79,778.25 1519.89,775.91 1522.85,774.80 C1526.08,773.64 1533.32,773.03 1535.85,773.10 C1537.62,773.16 1544.11,774.10 1546.77,774.38 C1550.63,774.83 1554.73,776.28 1559.11,778.72 C1562.68,780.73 1593.71,794.29 1605.70,799.23 C1609.86,801.08 1623.48,810.15 1629.31,814.10 C1633.64,816.92 1651.16,826.70 1653.59,828.24 C1656.78,830.29 1661.68,834.17 1666.13,837.97 C1670.69,841.86 1672.82,844.08 1675.10,847.67 C1679.16,854.10 1687.76,867.39 1691.33,872.10 C1694.83,876.65 1706.32,890.47 1708.39,894.68 C1710.69,899.46 1714.27,911.40 1716.89,921.72 C1720.48,936.94 1726.72,964.82 1729.45,981.58 C1731.85,1000.75 1733.52,1024.92 1733.49,1041.35 C1733.17,1055.41 1729.81,1084.93 1726.73,1105.70 C1725.41,1114.30 1724.25,1120.09 1720.67,1130.58 C1715.34,1145.92 1709.17,1163.75 1708.31,1166.23" fill="none" stroke="rgb(255, 255, 255)" stroke-width="50.00" stroke-opacity="1.00" stroke-linejoin="round"/>
<path d="M1679.95,861.92 C1681.30,861.82 1682.52,861.68 1683.87,861.48 C1686.56,861.11 1690.48,862.59 1693.01,864.61 C1696.89,867.71 1702.04,872.07 1704.64,874.75 C1709.89,880.21 1717.60,893.71 1721.35,900.32 C1725.01,906.63 1732.08,918.73 1735.49,924.53 C1740.07,932.31 1746.14,944.78 1748.25,950.40 C1749.95,954.96 1753.41,967.90 1754.85,978.70 C1755.70,985.17 1758.46,1022.62 1759.03,1039.95 C1759.14,1056.94 1758.41,1089.46 1757.93,1104.26 C1757.82,1106.91 1754.16,1136.71 1753.63,1141.22" fill="none" stroke="rgb(255, 255, 255)" stroke-width="50.00" stroke-opacity="1.00" stroke-linejoin="round"/>
<path d="M1745.06,935.34 C1745.02,936.41 1745.02,937.13 1745.06,937.49 C1745.37,940.12 1764.51,976.24 1771.36,989.31 C1775.00,996.73 1778.38,1006.98 1779.84,1015.32 C1780.42,1018.72 1782.61,1038.17 1782.85,1044.13 C1783.04,1051.21 1783.40,1068.03 1782.29,1072.99 C1782.12,1073.73 1777.26,1090.54 1776.07,1094.86" fill="none" stroke="rgb(255, 255, 255)" stroke-width="50.00" stroke-opacity="1.00" stroke-linejoin="round"/>
<path d="M1762.54,1016.12 C1762.45,1018.21 1762.23,1021.82 1762.05,1024.00 C1760.52,1039.24 1759.17,1060.26 1756.52,1082.43 C1754.14,1099.23 1748.06,1139.20 1746.18,1146.76 C1744.59,1152.69 1740.82,1166.02 1738.63,1173.43 C1735.47,1183.46 1730.97,1195.59 1728.88,1199.94 C1727.37,1203.05 1723.47,1209.14 1722.77,1209.43 C1721.53,1209.88 1705.40,1205.20 1700.60,1203.78" fill="none" stroke="rgb(255, 255, 255)" stroke-width="50.00" stroke-opacity="1.00" stroke-linejoin="round"/>
<path d="M991.78,1105.26 C991.78,1105.26 989.30,1111.32 989.30,1111.32" fill="none" stroke="rgb(255, 255, 255)" stroke-width="50.00" stroke-opacity="1.00" stroke-linejoin="round"/>
<path d="M988.26,1113.52 C986.53,1116.02 982.10,1122.39 979.90,1125.29 C977.25,1128.76 972.28,1134.59 969.71,1137.04 C967.31,1139.32 960.53,1144.42 959.94,1144.89 C957.49,1146.92 954.80,1150.82 953.95,1154.68 C953.55,1156.60 952.81,1166.24 953.30,1169.40 C953.86,1172.73 957.02,1178.67 959.04,1180.73 C961.30,1182.98 968.88,1187.49 971.89,1189.21 C973.21,1189.98 975.35,1191.25 976.18,1191.75" fill="none" stroke="rgb(255, 255, 255)" stroke-width="50.00" stroke-opacity="1.00" stroke-linejoin="round"/>
<path d="M983.72,1082.24 C982.98,1081.31 982.46,1080.76 982.16,1080.58 C981.26,1080.07 973.79,1080.60 971.03,1081.99 C961.26,1087.04 951.99,1090.97 945.52,1094.91 C921.61,1110.04 873.48,1140.83 849.25,1156.48 C846.14,1158.54 841.29,1162.57 839.55,1165.63 C837.91,1168.61 836.60,1176.03 836.76,1178.95 C837.01,1182.31 839.15,1187.76 841.68,1191.42 C844.00,1194.69 849.49,1199.14 852.40,1200.53 C853.87,1201.22 860.62,1203.18 863.86,1205.06 C866.13,1206.40 871.75,1210.55 874.33,1211.73 C880.03,1214.28 890.89,1216.50 895.25,1216.51 C895.63,1216.51 896.51,1216.49 897.88,1216.46" fill="none" stroke="rgb(255, 255, 255)" stroke-width="17.00" stroke-opacity="1.00" stroke-linejoin="round"/>
<path d="M840.65,1165.72 C840.58,1165.72 840.49,1165.72 840.39,1165.72 C839.88,1165.73 839.49,1165.71 839.24,1165.66 C837.83,1165.41 836.86,1165.87 836.19,1167.34 C835.22,1169.57 834.69,1176.93 835.38,1180.83 C836.01,1184.19 838.85,1189.20 840.83,1191.51 C844.06,1195.18 860.36,1206.58 865.96,1209.99 C871.73,1213.48 884.12,1217.98 889.97,1219.25 C892.86,1219.87 899.56,1220.58 902.54,1220.35 C908.82,1219.83 923.89,1214.94 931.50,1211.42 C937.35,1208.70 947.37,1201.97 956.54,1195.33 C967.99,1186.96 973.66,1182.50 976.39,1180.29 C978.08,1178.95 979.36,1177.04 979.72,1175.13 C979.91,1174.07 980.19,1167.94 980.55,1166.23" fill="none" stroke="rgb(255, 255, 255)" stroke-width="17.00" stroke-opacity="1.00" stroke-linejoin="round"/>
<path d="M846.99,1167.81 C846.99,1167.81 857.32,1193.99 857.32,1193.99 C857.32,1193.99 858.01,1167.76 858.01,1167.76 C858.01,1167.76 867.16,1200.31 867.16,1200.31 C865.14,1193.91 862.27,1178.12 861.00,1170.07 C860.48,1166.67 860.79,1163.81 861.02,1162.74 C862.65,1163.46 863.35,1164.13 864.06,1165.91 C872.25,1185.36 872.70,1191.23 872.61,1193.12 C869.21,1188.08 862.23,1172.29 861.45,1170.73 C860.67,1169.02 860.77,1167.94 862.09,1166.30 C865.32,1162.39 877.04,1151.71 883.02,1147.36 C886.92,1144.54 902.21,1134.60 908.50,1130.61 C923.66,1121.36 965.06,1100.31 966.36,1099.42 C964.09,1098.97 961.75,1099.17 957.68,1100.22 C951.56,1101.93 938.95,1109.58 930.44,1115.54 C927.85,1117.36 924.35,1119.80 923.46,1120.43 C928.74,1117.45 941.86,1110.09 949.45,1106.00 C963.81,1098.65 980.13,1092.20 981.09,1091.82 C976.51,1092.98 962.50,1099.61 957.83,1102.14 C945.94,1108.81 915.92,1127.01 902.19,1135.50 C892.60,1141.71 883.67,1147.97 877.04,1153.30 C874.03,1155.81 873.59,1156.40 872.41,1158.46 C873.72,1158.89 874.62,1158.78 876.45,1157.78 C884.49,1153.51 904.13,1141.16 905.05,1140.58 C905.05,1140.58 870.36,1173.44 870.36,1173.44 C883.54,1165.37 908.08,1148.02 921.75,1137.86 C928.25,1132.86 937.88,1125.35 944.01,1119.84 C944.01,1119.84 890.09,1158.91 890.09,1158.91 C893.58,1157.27 924.93,1134.79 938.67,1124.86 C955.89,1112.78 964.04,1107.88 964.69,1107.49 C956.28,1111.90 949.67,1115.59 939.71,1122.50 C926.37,1132.13 894.58,1156.10 890.61,1160.07 C889.93,1160.75 883.16,1167.87 880.22,1170.98 C877.82,1173.56 873.60,1178.05 873.34,1179.24 C874.41,1178.51 877.07,1176.71 878.67,1175.63 C880.58,1174.33 881.37,1174.19 882.07,1174.78 C878.35,1186.53 876.23,1190.97 874.91,1191.94 C876.38,1194.82 879.67,1201.17 881.87,1204.18 C882.99,1205.68 884.13,1206.55 885.50,1207.18 C886.32,1205.29 886.52,1204.13 886.30,1201.80 C885.95,1197.63 885.30,1190.35 885.01,1187.24 C885.01,1187.24 891.47,1210.69 891.47,1210.69 C891.92,1208.40 890.61,1189.62 890.39,1183.11 C890.09,1171.43 890.49,1168.77 890.96,1167.26 C891.53,1167.35 891.79,1167.91 892.18,1170.17 C895.27,1186.69 898.87,1205.96 899.38,1208.70 C899.39,1201.86 899.44,1185.19 899.48,1175.36 C899.71,1162.97 900.28,1159.23 901.29,1155.80 C902.02,1156.14 902.32,1156.69 902.66,1158.57 C906.73,1179.98 909.06,1199.14 909.82,1200.90 C909.82,1200.90 911.92,1150.90 911.92,1150.90 C911.92,1150.90 915.25,1207.99 915.25,1207.99 C915.25,1207.99 924.24,1144.82 924.24,1144.82 C924.81,1144.82 924.83,1150.74 924.87,1153.89 C924.98,1171.18 925.10,1191.14 925.12,1193.81 C925.15,1183.34 925.55,1174.10 926.60,1161.87 C928.00,1148.19 928.56,1145.03 929.42,1142.28 C930.58,1145.52 931.05,1153.64 931.18,1155.61 C932.91,1185.89 933.19,1188.68 933.34,1189.87 C933.34,1189.87 926.32,1164.77 926.32,1164.77 C926.32,1164.77 931.61,1191.48 931.61,1191.48 C931.61,1191.48 929.74,1190.65 929.74,1190.65" fill="none" stroke="rgb(255, 255, 255)" stroke-width="17.00" stroke-opacity="1.00" stroke-linejoin="round"/>
<path d="M898.73,1211.80 C898.33,1213.36 897.72,1216.21 897.45,1218.06 C896.91,1221.85 897.14,1228.62 898.58,1231.22 C899.75,1233.26 903.43,1237.05 905.35,1238.51 C906.88,1226.66 908.66,1214.85 910.73,1207.53 C911.17,1205.97 912.54,1201.84 912.85,1200.84 C913.41,1199.00 913.97,1198.35 915.31,1197.72 C916.09,1199.94 916.35,1201.32 916.24,1203.31 C916.00,1208.70 916.01,1213.34 916.27,1216.95 C920.80,1210.22 931.58,1194.28 933.41,1192.51 C934.38,1191.59 936.12,1189.97 936.88,1189.27 C936.88,1189.27 937.99,1189.92 937.99,1189.92 C936.69,1192.74 935.90,1194.03 934.37,1195.62 C925.16,1205.38 924.43,1205.90 924.23,1205.62 C932.59,1197.60 942.55,1190.05 947.10,1188.53 C947.54,1188.38 948.60,1188.10 950.25,1187.71 C950.25,1187.71 947.91,1189.12 947.91,1189.12" fill="none" stroke="rgb(255, 255, 255)" stroke-width="17.00" stroke-opacity="1.00" stroke-linejoin="round"/>
<path d="M898.73,1224.77 C898.82,1226.15 898.89,1227.08 898.95,1227.56 C899.03,1228.12 900.28,1233.72 900.53,1234.65 C901.14,1236.84 902.90,1239.62 904.57,1240.99 C909.03,1244.52 923.08,1248.55 928.49,1251.09 C932.25,1252.94 939.85,1256.57 943.26,1257.19 C945.24,1257.54 952.23,1257.61 956.85,1257.51 C963.96,1257.31 979.06,1253.57 989.42,1250.59 C993.17,1249.44 1002.04,1246.64 1002.43,1246.45 C1004.10,1245.64 1006.62,1243.87 1007.96,1242.57 C1008.85,1241.69 1009.73,1240.81 1010.62,1239.94" fill="none" stroke="rgb(255, 255, 255)" stroke-width="17.00" stroke-opacity="1.00" stroke-linejoin="round"/>
<path d="M902.67,1236.95 C902.52,1238.89 902.57,1240.15 902.84,1240.75 C902.97,1241.06 906.25,1243.97 907.07,1245.29 C908.99,1248.21 913.95,1252.19 918.06,1254.62 C919.45,1255.44 928.99,1260.75 931.86,1262.18 C934.93,1263.70 940.08,1265.29 944.43,1266.06 C947.65,1266.62 954.16,1266.90 956.69,1266.53 C960.65,1265.93 979.07,1261.04 986.01,1258.95 C990.27,1257.61 996.10,1255.31 1000.15,1253.27 C1001.80,1252.45 1007.62,1248.58 1008.71,1247.10 C1009.47,1246.04 1018.11,1229.79 1019.61,1226.96" fill="none" stroke="rgb(255, 255, 255)" stroke-width="17.00" stroke-opacity="1.00" stroke-linejoin="round"/>
<path d="M985.94,1264.07 C986.98,1263.54 988.87,1262.46 989.60,1262.04 C993.49,1259.78 998.29,1256.34 1002.94,1252.62 C1006.58,1249.64 1012.19,1244.03 1013.33,1241.22 C1013.76,1240.09 1013.69,1236.38 1013.41,1234.72 C1012.92,1232.13 1010.57,1225.08 1010.10,1223.68" fill="none" stroke="rgb(255, 255, 255)" stroke-width="17.00" stroke-opacity="1.00" stroke-linejoin="round"/>
<path d="M916.22,1219.82 C915.78,1221.81 916.53,1227.43 917.72,1232.98 C919.49,1240.52 921.53,1249.19 921.80,1250.31 C921.80,1250.31 921.40,1223.67 921.40,1223.67 C921.20,1225.27 920.70,1229.25 920.39,1231.63 C920.03,1234.50 919.63,1235.58 918.81,1236.35 C917.74,1235.98 917.01,1235.03 915.90,1232.27 C914.10,1227.65 914.85,1225.06 915.85,1223.50 C918.50,1224.20 919.71,1224.82 921.00,1226.33 C927.51,1233.87 930.05,1237.73 932.10,1239.77 C933.20,1238.51 933.56,1237.58 933.49,1235.62 C933.26,1225.03 933.49,1220.82 933.85,1216.96 C935.25,1218.86 937.22,1225.69 938.38,1229.64 C942.70,1244.69 943.05,1245.42 943.61,1245.84 C944.58,1242.14 944.75,1236.07 944.88,1232.50 C945.24,1219.50 945.51,1215.28 945.84,1213.35 C946.62,1214.34 947.13,1220.59 947.44,1224.13 C948.10,1232.20 948.85,1241.47 948.95,1242.67 C948.95,1242.67 953.46,1211.45 953.46,1211.45 C954.29,1212.57 954.56,1213.45 954.65,1215.79 C955.11,1224.50 955.80,1238.22 956.04,1243.24 C957.56,1235.76 960.21,1216.26 960.63,1214.42 C961.25,1211.73 962.16,1209.01 962.75,1207.89 C962.75,1207.89 968.63,1243.37 968.63,1243.37 C969.87,1240.87 971.10,1233.05 971.40,1231.13 C972.77,1222.35 975.09,1207.64 975.67,1206.98 C975.67,1206.98 977.75,1238.53 977.75,1238.53 C977.75,1238.53 982.79,1214.26 982.79,1214.26 C983.80,1214.99 984.22,1215.85 984.63,1218.42 C985.40,1222.97 986.72,1230.94 987.27,1234.37 C987.27,1234.37 987.92,1228.20 987.92,1228.20 C987.92,1228.20 986.23,1228.07 986.23,1228.07 C985.30,1226.98 984.93,1226.14 984.79,1224.41 C984.37,1218.72 986.52,1205.00 988.57,1198.11 C989.50,1195.02 998.53,1169.01 999.31,1166.74" fill="none" stroke="rgb(255, 255, 255)" stroke-width="17.00" stroke-opacity="1.00" stroke-linejoin="round"/>
<path d="M1798.61,1059.06 C1798.61,1059.03 1798.73,1059.03 1798.96,1059.06 C1809.72,1060.66 1840.14,1062.34 1855.93,1061.90 C1862.42,1061.61 1878.84,1061.09 1882.28,1061.48 C1886.13,1061.96 1891.44,1064.09 1893.00,1066.17 C1894.53,1068.32 1895.96,1073.85 1896.52,1079.28 C1896.92,1083.38 1897.19,1091.82 1897.13,1094.42 C1897.00,1098.38 1896.12,1104.65 1894.82,1107.93 C1892.56,1113.52 1883.62,1127.55 1878.44,1133.54 C1873.89,1138.78 1865.97,1145.03 1857.34,1150.54 C1854.15,1152.56 1850.82,1154.25 1844.34,1156.46 C1837.56,1158.62 1822.39,1163.40 1816.01,1165.19 C1814.00,1165.77 1812.60,1165.72 1811.47,1165.00 C1810.86,1164.59 1809.08,1163.04 1806.49,1161.35" fill="none" stroke="rgb(255, 255, 255)" stroke-width="30.00" stroke-opacity="1.00" stroke-linejoin="round"/>
<path d="M1884.62,1079.47 C1884.72,1080.98 1884.39,1084.08 1883.77,1086.18 C1883.10,1088.41 1871.94,1109.27 1869.43,1112.81 C1866.95,1116.24 1831.97,1154.35 1825.75,1159.89 C1820.94,1164.17 1808.41,1171.34 1800.77,1174.67 C1795.81,1176.78 1794.58,1176.92 1791.69,1176.80 C1791.69,1176.80 1792.27,1160.54 1792.27,1160.54" fill="none" stroke="rgb(255, 255, 255)" stroke-width="30.00" stroke-opacity="1.00" stroke-linejoin="round"/>
<path d="M1873.31,1074.01 C1872.59,1076.63 1870.39,1079.99 1867.93,1082.46 C1863.24,1087.07 1852.94,1099.56 1847.96,1105.70 C1836.35,1120.55 1823.00,1140.97 1813.62,1152.30 C1808.17,1158.72 1800.82,1166.01 1792.47,1173.54 C1786.65,1178.66 1778.95,1185.38 1776.88,1188.32 C1778.35,1185.43 1781.76,1178.74 1783.69,1174.94 C1784.09,1174.15 1784.50,1173.36 1784.90,1172.57" fill="none" stroke="rgb(255, 255, 255)" stroke-width="30.00" stroke-opacity="1.00" stroke-linejoin="round"/>
<path d="M1849.24,1081.73 C1845.52,1082.03 1841.55,1083.99 1838.14,1086.90 C1833.24,1091.36 1805.54,1123.15 1795.68,1135.05 C1790.11,1142.08 1781.26,1154.05 1777.18,1159.73 C1763.82,1179.35 1755.13,1194.37 1754.44,1197.72 C1754.23,1198.78 1754.29,1200.74 1754.45,1201.82 C1755.86,1201.14 1757.91,1199.96 1758.85,1199.14 C1760.36,1197.81 1764.17,1190.59 1766.74,1185.39 C1767.63,1183.56 1769.12,1180.53 1769.71,1179.32" fill="none" stroke="rgb(255, 255, 255)" stroke-width="30.00" stroke-opacity="1.00" stroke-linejoin="round"/>
<path d="M1817.45,1079.76 C1814.24,1081.09 1811.42,1082.99 1807.86,1086.21 C1802.58,1091.13 1794.27,1100.55 1787.99,1108.21 C1782.24,1115.41 1774.07,1127.48 1768.90,1136.16 C1764.84,1143.24 1756.65,1158.47 1752.66,1166.07 C1747.72,1175.79 1743.06,1185.91 1741.87,1191.54 C1741.09,1195.45 1740.88,1206.42 1740.88,1206.52 C1740.88,1206.83 1740.91,1207.38 1740.95,1208.15" fill="none" stroke="rgb(255, 255, 255)" stroke-width="30.00" stroke-opacity="1.00" stroke-linejoin="round"/>
<path d="M1827.48,1138.38 C1827.34,1139.98 1827.24,1141.01 1827.16,1141.45 C1827.14,1141.57 1824.64,1149.97 1823.95,1153.65 C1823.36,1156.91 1822.60,1163.98 1822.24,1167.43 C1821.84,1171.00 1821.10,1174.03 1818.88,1179.35 C1815.90,1186.09 1808.55,1202.37 1805.87,1206.87 C1802.14,1213.10 1787.12,1231.39 1769.36,1250.82 C1763.01,1257.71 1752.16,1269.51 1747.66,1274.42 C1745.35,1276.99 1742.59,1280.32 1741.98,1281.06" fill="none" stroke="rgb(255, 255, 255)" stroke-width="30.00" stroke-opacity="1.00" stroke-linejoin="round"/>
<path d="M1791.85,1148.66 C1790.19,1150.56 1789.15,1152.72 1787.92,1156.48 C1783.39,1171.48 1776.09,1202.46 1772.54,1218.26 C1768.92,1235.43 1761.90,1267.90 1758.50,1283.20 C1757.50,1287.24 1754.18,1298.62 1752.79,1301.97 C1752.70,1296.49 1754.26,1282.24 1755.10,1275.00 C1757.69,1256.19 1775.31,1164.79 1778.47,1152.12 C1775.04,1166.04 1767.41,1197.62 1763.65,1214.55 C1760.57,1230.03 1754.31,1261.09 1751.13,1276.66 C1748.90,1286.76 1744.86,1301.21 1742.32,1306.03 C1741.76,1307.08 1738.90,1311.58 1738.84,1311.67 C1737.89,1313.21 1737.10,1313.99 1735.25,1315.32 C1734.70,1315.07 1734.55,1314.55 1734.65,1312.65 C1735.03,1305.12 1737.77,1290.09 1739.02,1283.48 C1745.61,1251.95 1756.19,1206.28 1759.93,1190.89 C1761.85,1183.60 1766.75,1167.35 1769.44,1162.81 C1771.75,1158.97 1772.71,1158.06 1773.68,1157.63 C1773.75,1164.55 1772.41,1176.32 1771.58,1183.41 C1767.10,1216.37 1759.89,1253.49 1758.26,1261.08 C1759.39,1255.70 1764.79,1242.51 1768.13,1234.92 C1772.02,1226.63 1778.85,1213.09 1782.48,1206.05 C1792.07,1188.30 1801.22,1174.46 1806.50,1167.14 C1808.19,1164.79 1811.59,1161.73 1812.91,1160.69 C1806.47,1172.62 1791.70,1200.55 1783.36,1216.55 C1770.22,1242.04 1767.99,1245.67 1765.97,1248.10 C1771.48,1234.47 1785.06,1201.84 1789.78,1191.94 C1793.76,1183.81 1795.82,1179.91 1798.08,1175.81 C1798.10,1176.22 1783.96,1212.41 1778.08,1228.38 C1772.74,1243.76 1759.67,1283.32 1757.39,1289.05 C1756.81,1290.51 1753.79,1297.23 1752.33,1300.29 C1750.44,1304.16 1747.36,1309.25 1744.86,1311.63 C1744.24,1312.22 1741.34,1314.61 1740.48,1315.32 C1740.21,1307.47 1741.20,1300.18 1743.16,1290.55 C1750.54,1258.93 1768.04,1188.69 1772.57,1168.11 C1774.75,1157.54 1776.19,1145.53 1776.16,1144.07 C1770.72,1154.06 1766.76,1162.16 1764.46,1169.01 C1762.44,1175.07 1751.80,1212.39 1747.46,1229.18 C1743.55,1245.46 1736.72,1276.05 1733.67,1289.84 C1730.61,1302.83 1727.25,1314.23 1725.00,1320.15 C1723.23,1324.74 1720.73,1329.86 1718.65,1332.97 C1717.07,1335.29 1714.02,1338.39 1712.59,1338.32 C1712.98,1317.49 1714.48,1298.33 1717.63,1279.71 C1723.68,1247.55 1738.55,1166.61 1739.19,1157.57 C1739.23,1156.94 1739.28,1156.05 1739.32,1154.89 C1735.39,1164.41 1732.86,1170.99 1729.79,1181.97 C1726.44,1194.89 1719.42,1226.68 1716.44,1242.83 C1713.85,1258.62 1709.11,1289.84 1706.49,1304.85 C1704.72,1313.81 1700.65,1331.13 1699.51,1334.98 C1698.20,1339.21 1695.81,1345.56 1693.73,1348.85 C1691.20,1352.79 1690.20,1353.72 1689.21,1354.18 C1688.95,1337.28 1689.10,1325.51 1691.48,1293.48 C1694.59,1259.87 1700.92,1193.87 1704.16,1161.49 C1704.42,1158.87 1704.91,1153.95 1705.14,1151.65 C1699.88,1179.75 1689.40,1243.91 1684.65,1277.36 C1683.54,1285.49 1681.31,1300.86 1680.18,1307.45 C1678.17,1318.25 1675.41,1327.85 1672.34,1336.37 C1671.45,1338.88 1669.28,1342.38 1668.39,1343.61 C1668.81,1336.23 1674.24,1303.98 1677.04,1287.60 C1680.07,1270.48 1686.33,1236.41 1689.57,1219.47 C1697.18,1184.77 1702.84,1153.19 1704.20,1145.23 C1700.81,1153.02 1699.03,1157.99 1695.84,1168.06 C1689.98,1187.29 1682.28,1217.51 1678.71,1233.24 C1675.24,1249.39 1668.08,1281.85 1664.40,1298.14 C1662.56,1305.70 1658.91,1319.94 1657.11,1326.03 C1654.13,1335.75 1646.87,1351.13 1645.00,1353.31 C1643.81,1354.68 1641.37,1356.65 1639.95,1357.53 C1639.61,1354.84 1639.79,1352.36 1640.58,1347.89 C1644.02,1330.13 1651.27,1302.15 1655.56,1287.32 C1659.96,1272.09 1668.82,1240.25 1673.29,1223.64 C1678.80,1201.33 1680.88,1190.05 1682.44,1178.73 C1677.64,1189.48 1666.32,1218.62 1660.21,1235.71 C1655.47,1249.94 1645.87,1279.70 1641.30,1295.12 C1636.83,1311.13 1628.65,1342.89 1624.82,1356.73 C1621.41,1368.04 1617.89,1378.18 1614.12,1387.49 C1610.53,1395.83 1608.47,1398.94 1605.08,1403.46 C1605.93,1394.34 1607.17,1387.42 1609.48,1376.92 C1613.19,1360.94 1621.34,1329.57 1625.27,1315.15 C1629.53,1300.78 1640.05,1269.46 1646.47,1252.13 C1649.48,1244.29 1654.44,1231.36 1656.39,1226.27 C1651.59,1232.92 1646.39,1243.12 1643.20,1249.64 C1636.24,1264.48 1623.50,1293.53 1617.10,1308.38 C1609.98,1324.09 1592.55,1361.62 1589.31,1366.95 C1586.05,1372.19 1580.22,1379.98 1577.24,1382.50 C1580.04,1373.55 1583.48,1365.08 1588.07,1355.18 C1591.75,1347.68 1599.34,1332.66 1603.28,1325.42 C1607.65,1317.79 1616.42,1303.63 1620.32,1297.73 C1625.91,1289.52 1631.04,1284.00 1632.66,1282.30 C1631.16,1285.92 1624.13,1296.08 1618.97,1302.69 C1597.63,1328.35 1541.95,1394.43 1534.96,1401.35 C1530.02,1406.13 1524.40,1409.17 1523.18,1409.84 C1527.41,1400.32 1531.95,1391.21 1536.30,1384.96 C1541.05,1378.27 1552.26,1364.75 1555.31,1361.47 C1560.78,1355.66 1572.53,1345.19 1578.10,1340.32 C1595.38,1325.66 1603.90,1320.90 1604.99,1320.28 C1581.68,1341.17 1518.89,1397.18 1508.40,1405.79 C1498.21,1413.91 1488.16,1420.31 1487.37,1420.82 C1487.04,1419.94 1487.16,1419.32 1488.08,1417.81 C1492.83,1409.61 1499.15,1400.85 1504.66,1394.20 C1511.29,1386.51 1519.93,1377.51 1527.90,1369.76 C1540.19,1358.38 1565.26,1336.18 1566.44,1335.48 C1556.68,1343.94 1533.16,1363.97 1519.40,1375.54 C1506.04,1386.44 1477.87,1409.11 1468.05,1416.53 C1454.30,1426.68 1442.91,1430.82 1441.96,1431.17 C1442.71,1430.62 1445.23,1428.73 1445.56,1428.51 C1447.31,1427.29 1448.75,1425.71 1449.89,1423.70 C1450.67,1422.27 1453.23,1414.52 1454.13,1411.70" fill="none" stroke="rgb(255, 255, 255)" stroke-width="30.00" stroke-opacity="1.00" stroke-linejoin="round"/>
<path d="M1023.38,1262.47 C1021.53,1263.20 1020.43,1263.77 1020.06,1264.17 C1019.16,1265.19 1020.01,1273.60 1020.93,1277.85 C1021.86,1281.89 1022.87,1284.45 1024.97,1287.77 C1030.81,1296.89 1036.35,1306.38 1039.91,1313.54 C1040.67,1315.08 1044.10,1322.94 1045.57,1325.13 C1048.28,1329.07 1052.14,1333.74 1054.55,1336.03 C1060.39,1341.46 1069.81,1348.18 1078.48,1353.31 C1084.49,1356.76 1098.47,1364.33 1105.73,1368.18 C1120.43,1375.55 1144.89,1385.65 1160.68,1391.39 C1176.65,1396.70 1204.11,1402.94 1218.80,1406.19 C1222.19,1406.86 1238.62,1406.86 1246.35,1406.77 C1254.51,1406.57 1263.82,1406.34 1264.97,1406.31" fill="none" stroke="rgb(255, 255, 255)" stroke-width="40.00" stroke-opacity="1.00" stroke-linejoin="round"/>
<path d="M1072.64,1315.47 C1073.27,1316.49 1076.85,1322.26 1080.62,1325.56 C1084.04,1328.51 1120.34,1351.43 1133.66,1359.87 C1139.77,1363.64 1154.62,1372.65 1159.91,1375.28 C1167.76,1379.15 1202.86,1392.04 1211.93,1394.44 C1216.90,1395.75 1234.48,1399.40 1242.14,1400.92 C1263.63,1404.72 1277.96,1404.68 1282.10,1404.63 C1283.13,1404.61 1284.16,1404.58 1285.19,1404.56" fill="none" stroke="rgb(255, 255, 255)" stroke-width="40.00" stroke-opacity="1.00" stroke-linejoin="round"/>
<path d="M1024.84,1296.80 C1026.12,1300.21 1028.45,1306.34 1030.79,1310.54 C1032.58,1313.75 1034.36,1321.20 1036.38,1324.83 C1038.00,1327.71 1047.28,1338.88 1053.43,1346.93 C1057.60,1352.72 1065.92,1364.90 1069.97,1370.88 C1074.42,1377.43 1082.04,1386.04 1087.51,1390.18 C1090.87,1392.71 1105.93,1402.35 1112.41,1406.27 C1120.18,1410.82 1131.11,1416.13 1139.16,1419.34 C1141.95,1420.45 1159.91,1426.97 1167.79,1429.62 C1185.06,1434.94 1207.73,1440.89 1227.14,1445.10 C1249.12,1449.50 1266.42,1452.04 1284.40,1453.10 C1300.42,1453.88 1330.97,1453.17 1345.31,1451.92 C1360.57,1450.34 1390.74,1445.50 1406.10,1442.81 C1414.86,1441.19 1429.97,1438.39 1436.31,1437.22" fill="none" stroke="rgb(255, 255, 255)" stroke-width="40.00" stroke-opacity="1.00" stroke-linejoin="round"/>
<path d="M1149.32,1391.29 C1157.13,1395.19 1167.18,1397.90 1173.62,1399.50 C1189.61,1403.12 1221.52,1410.08 1237.43,1413.43 C1252.85,1416.51 1283.41,1422.31 1297.96,1424.67 C1312.34,1426.76 1343.49,1430.46 1361.27,1431.42 C1369.17,1431.77 1383.07,1432.41 1392.10,1432.64 C1397.47,1432.70 1415.30,1431.29 1417.40,1431.06 C1424.87,1430.21 1440.47,1425.93 1448.87,1422.89 C1464.01,1417.10 1500.01,1403.80 1503.99,1403.06 C1504.39,1402.99 1505.31,1402.88 1506.73,1402.74" fill="none" stroke="rgb(255, 255, 255)" stroke-width="40.00" stroke-opacity="1.00" stroke-linejoin="round"/>
<path d="M1025.01,1266.33 C1024.96,1267.57 1024.86,1271.07 1024.84,1272.86 C1024.80,1277.65 1025.30,1284.07 1026.56,1287.47 C1029.39,1294.27 1031.77,1307.49 1033.49,1311.40 C1035.27,1315.37 1057.61,1354.75 1061.52,1360.98 C1065.56,1367.25 1073.61,1379.74 1077.63,1385.96 C1085.77,1398.48 1090.40,1405.27 1093.20,1407.27 C1095.10,1408.60 1110.89,1417.75 1117.49,1421.60 C1124.12,1425.67 1135.59,1433.09 1145.29,1440.04 C1153.02,1445.53 1159.61,1448.57 1167.25,1451.39 C1174.16,1453.92 1189.34,1459.40 1198.04,1462.07 C1206.40,1464.52 1222.08,1468.25 1230.00,1469.91 C1245.18,1472.65 1276.60,1477.94 1290.37,1479.40 C1306.44,1480.72 1337.25,1482.13 1353.25,1482.73 C1363.17,1482.90 1374.07,1482.60 1383.42,1481.82 C1392.85,1480.91 1429.05,1475.75 1438.88,1473.68 C1447.28,1471.89 1485.58,1460.12 1501.57,1455.01 C1509.62,1452.36 1522.39,1448.09 1527.12,1446.48" fill="none" stroke="rgb(255, 255, 255)" stroke-width="40.00" stroke-opacity="1.00" stroke-linejoin="round"/>
<path d="M1120.70,1405.72 C1120.68,1406.94 1120.66,1410.23 1120.78,1411.05 C1121.10,1412.92 1123.89,1415.83 1127.68,1419.32 C1133.53,1424.61 1148.13,1437.67 1150.31,1439.40 C1155.25,1443.30 1166.64,1450.32 1175.89,1454.91 C1183.31,1458.43 1199.50,1466.03 1204.05,1468.04 C1210.29,1470.73 1220.86,1473.51 1231.48,1475.97 C1251.79,1480.39 1279.19,1484.98 1294.16,1486.38 C1306.12,1487.25 1333.08,1488.19 1339.69,1488.41 C1344.81,1488.58 1352.43,1488.87 1354.92,1488.98" fill="none" stroke="rgb(255, 255, 255)" stroke-width="40.00" stroke-opacity="1.00" stroke-linejoin="round"/>
<path d="M1097.66,1374.16 C1097.70,1374.36 1097.73,1374.56 1097.74,1374.74 C1098.12,1379.21 1101.67,1391.53 1104.91,1398.32 C1106.68,1401.97 1110.55,1409.16 1112.54,1412.47 C1114.64,1415.90 1116.85,1418.43 1120.68,1421.65 C1122.84,1423.45 1140.70,1439.73 1143.50,1442.05 C1150.35,1447.68 1160.49,1453.54 1169.31,1457.09 C1175.82,1459.63 1220.45,1473.96 1230.71,1476.86 C1242.41,1479.98 1279.38,1486.38 1290.33,1488.82 C1297.35,1490.45 1311.37,1493.84 1320.00,1494.84 C1325.57,1495.44 1343.17,1496.60 1350.93,1496.68 C1361.45,1496.71 1412.28,1491.63 1413.26,1491.53" fill="none" stroke="rgb(255, 255, 255)" stroke-width="40.00" stroke-opacity="1.00" stroke-linejoin="round"/>
<path d="M1144.77,1425.77 C1144.53,1428.32 1145.32,1430.24 1148.37,1434.17 C1151.11,1437.58 1156.15,1442.82 1159.28,1445.34 C1164.01,1449.09 1180.72,1457.91 1184.17,1459.65 C1196.10,1465.59 1232.60,1480.08 1242.20,1483.03 C1253.39,1486.45 1289.67,1494.04 1300.31,1495.25 C1304.65,1495.74 1319.45,1496.58 1327.81,1496.72 C1334.92,1496.70 1347.14,1496.55 1358.47,1495.80 C1373.93,1494.48 1417.54,1488.01 1420.63,1487.54 C1421.18,1487.46 1421.95,1487.36 1422.94,1487.23" fill="none" stroke="rgb(255, 255, 255)" stroke-width="40.00" stroke-opacity="1.00" stroke-linejoin="round"/>
<path d="M1736.07,1284.56 C1736.20,1286.42 1736.19,1289.59 1735.96,1291.43 C1735.48,1295.22 1730.06,1305.70 1724.87,1314.43 C1720.73,1321.14 1709.98,1335.79 1705.82,1340.70 C1699.77,1347.79 1690.23,1355.29 1689.46,1355.88 C1688.04,1356.96 1687.07,1357.32 1685.05,1357.61 C1685.05,1357.61 1694.26,1339.45 1694.26,1339.45" fill="none" stroke="rgb(255, 255, 255)" stroke-width="40.00" stroke-opacity="1.00" stroke-linejoin="round"/>
<path d="M1742.92,1289.81 C1742.98,1290.32 1742.98,1290.71 1742.92,1290.99 C1742.86,1291.26 1739.11,1300.68 1737.11,1304.10 C1736.31,1305.46 1725.53,1319.75 1719.38,1328.83 C1708.17,1345.40 1699.01,1355.18 1696.97,1356.85 C1696.97,1356.85 1702.31,1342.15 1702.31,1342.15" fill="none" stroke="rgb(255, 255, 255)" stroke-width="40.00" stroke-opacity="1.00" stroke-linejoin="round"/>
<path d="M1746.60,1293.89 C1746.55,1295.91 1746.28,1297.18 1745.28,1299.22 C1742.03,1305.85 1734.05,1314.80 1727.45,1323.61 C1717.39,1337.55 1701.78,1359.11 1698.99,1362.44 C1697.90,1363.74 1697.38,1364.01 1696.75,1363.82" fill="none" stroke="rgb(255, 255, 255)" stroke-width="40.00" stroke-opacity="1.00" stroke-linejoin="round"/>
<path d="M1739.66,1301.11 C1738.15,1303.00 1734.44,1307.68 1732.30,1310.74 C1730.56,1313.23 1708.28,1347.00 1699.55,1359.86 C1695.08,1366.37 1690.72,1371.19 1682.50,1379.75 C1674.15,1388.28 1666.70,1395.22 1661.89,1398.76 C1656.41,1402.75 1644.07,1409.85 1637.34,1413.55 C1630.04,1417.42 1615.93,1424.27 1609.75,1426.86 C1600.81,1430.44 1569.08,1441.12 1553.18,1446.32 C1537.06,1451.44 1504.83,1461.52 1488.72,1466.48 C1464.48,1473.52 1449.51,1476.93 1439.53,1478.79 C1438.25,1479.02 1432.98,1480.01 1429.48,1479.67 C1429.48,1479.67 1425.34,1466.82 1425.34,1466.82" fill="none" stroke="rgb(255, 255, 255)" stroke-width="40.00" stroke-opacity="1.00" stroke-linejoin="round"/>
<path d="M1679.44,1346.38 C1678.90,1347.57 1677.70,1349.45 1676.72,1350.37 C1675.57,1351.44 1656.40,1363.40 1651.30,1367.06 C1646.40,1370.59 1615.82,1396.22 1605.63,1403.91 C1599.40,1408.42 1585.89,1417.73 1579.43,1421.89 C1566.71,1429.74 1548.43,1437.52 1544.71,1438.28 C1544.38,1437.69 1544.50,1437.21 1545.44,1435.96 C1550.31,1429.54 1558.64,1422.11 1565.91,1416.51 C1579.09,1406.45 1609.36,1382.80 1616.96,1377.07 C1627.54,1369.38 1648.78,1356.95 1658.49,1351.92 C1653.56,1353.23 1649.50,1354.87 1645.27,1357.34 C1638.67,1361.23 1609.39,1380.29 1595.77,1388.65 C1581.75,1396.92 1549.75,1415.08 1537.62,1421.16 C1530.16,1424.74 1516.40,1430.99 1510.48,1433.52 C1500.96,1437.50 1486.42,1441.38 1485.48,1441.05 C1495.35,1433.40 1520.38,1416.59 1533.98,1407.50 C1548.17,1398.18 1583.90,1375.18 1590.83,1371.59 C1597.72,1367.98 1601.80,1365.45 1604.31,1363.51 C1594.01,1366.38 1585.49,1369.17 1580.35,1371.82 C1567.10,1379.00 1538.61,1394.96 1525.25,1402.43 C1519.89,1405.34 1483.35,1422.40 1467.83,1429.21 C1462.58,1431.41 1451.36,1435.59 1447.87,1436.42 C1452.12,1435.73 1455.68,1434.63 1459.53,1432.61 C1463.53,1430.46 1478.40,1421.21 1484.47,1416.60 C1485.99,1415.46 1486.59,1414.79 1487.28,1413.60 C1484.38,1412.86 1480.83,1412.69 1476.62,1413.06 C1470.52,1413.73 1453.15,1419.49 1446.12,1421.87 C1437.52,1424.98 1421.22,1431.09 1414.44,1433.89 C1403.63,1438.49 1393.38,1445.29 1389.44,1448.59 C1388.54,1449.35 1385.24,1452.44 1383.19,1454.23" fill="none" stroke="rgb(255, 255, 255)" stroke-width="40.00" stroke-opacity="1.00" stroke-linejoin="round"/>
<path d="M1451.22,1427.89 C1447.90,1429.43 1442.40,1434.49 1441.00,1435.77 C1435.41,1441.07 1418.86,1457.04 1418.64,1457.21 C1415.78,1459.48 1410.00,1462.99 1408.77,1463.74 C1413.83,1458.46 1421.68,1452.25 1431.84,1445.04 C1440.59,1438.95 1443.94,1436.85 1444.73,1436.36 C1444.25,1436.46 1436.94,1442.81 1435.44,1443.91 C1433.55,1445.28 1430.63,1447.09 1428.94,1448.01" fill="none" stroke="rgb(255, 255, 255)" stroke-width="40.00" stroke-opacity="1.00" stroke-linejoin="round"/>
<path d="M1369.00,1499.37 C1370.23,1499.81 1371.20,1499.97 1373.36,1499.98 C1384.51,1500.15 1395.18,1500.77 1401.04,1499.46 C1403.96,1498.78 1423.66,1493.50 1429.26,1492.37 C1436.67,1490.86 1451.61,1487.65 1459.14,1485.95 C1468.88,1483.53 1482.27,1479.45 1487.20,1478.27 C1491.15,1477.34 1506.67,1474.36 1515.05,1471.26 C1521.19,1468.96 1536.87,1461.93 1543.24,1459.03 C1556.11,1452.95 1562.89,1450.37 1571.19,1447.39 C1580.81,1443.92 1589.23,1439.70 1597.35,1434.19 C1600.05,1432.28 1606.26,1427.85 1608.55,1425.60 C1613.18,1421.01 1622.53,1407.55 1626.32,1402.01" fill="none" stroke="rgb(255, 255, 255)" stroke-width="40.00" stroke-opacity="1.00" stroke-linejoin="round"/>
<path d="M1426.03,1482.13 C1426.86,1482.34 1429.64,1483.06 1430.38,1483.19 C1434.19,1483.87 1483.90,1483.41 1491.49,1482.60 C1497.33,1481.97 1517.64,1478.16 1521.50,1477.17 C1527.90,1475.50 1538.64,1470.70 1545.88,1466.30 C1558.67,1458.43 1565.97,1454.10 1572.73,1450.66 C1575.20,1449.41 1592.43,1441.18 1598.90,1438.05 C1606.00,1434.53 1613.05,1429.95 1615.91,1427.58 C1617.24,1426.43 1619.06,1424.06 1619.98,1422.19 C1620.09,1421.97 1621.84,1417.37 1622.71,1415.39 C1622.93,1414.90 1623.30,1414.08 1623.84,1412.94" fill="none" stroke="rgb(255, 255, 255)" stroke-width="40.00" stroke-opacity="1.00" stroke-linejoin="round"/>
<path d="M1463.29,1485.26 C1464.61,1485.37 1469.06,1485.72 1469.99,1485.75 C1473.71,1485.86 1479.95,1484.77 1483.62,1483.59 C1489.18,1481.78 1527.06,1468.05 1540.70,1464.25 C1550.31,1461.72 1553.85,1460.18 1564.83,1454.79 C1573.02,1450.71 1591.40,1441.46 1595.37,1439.31 C1600.02,1436.77 1610.84,1428.76 1615.16,1425.12 C1620.01,1421.02 1633.43,1407.78 1639.41,1401.79 C1641.98,1399.18 1652.70,1388.17 1655.61,1383.51 C1663.74,1370.50 1680.21,1344.15 1688.53,1330.79 C1691.56,1325.91 1696.42,1318.05 1698.26,1315.09 C1699.40,1313.26 1700.91,1310.83 1701.28,1310.22" fill="none" stroke="rgb(255, 255, 255)" stroke-width="40.00" stroke-opacity="1.00" stroke-linejoin="round"/>
<path d="M1333.42,1491.24 C1332.32,1491.20 1330.41,1491.30 1329.05,1491.55 C1328.07,1491.73 1317.92,1494.56 1313.80,1495.40 C1308.53,1496.44 1290.77,1498.51 1286.58,1497.89 C1281.34,1497.04 1267.12,1491.17 1259.67,1488.05 C1250.12,1483.82 1240.24,1478.55 1231.81,1473.09 C1226.02,1469.26 1217.09,1461.54 1212.27,1455.98 C1209.98,1453.31 1205.40,1446.58 1203.72,1443.56 C1200.58,1437.84 1196.51,1424.44 1195.75,1417.08 C1194.95,1409.07 1195.86,1396.12 1197.24,1389.74 C1198.69,1383.20 1203.17,1371.42 1207.21,1364.99 C1210.70,1359.46 1220.23,1347.85 1224.73,1343.42 C1229.80,1338.45 1241.92,1328.93 1248.14,1325.38 C1254.59,1321.73 1266.43,1316.88 1273.72,1314.86 C1279.59,1313.25 1295.65,1310.40 1303.59,1309.23 C1323.11,1306.93 1347.23,1305.69 1361.70,1305.79 C1370.89,1305.99 1383.93,1306.73 1392.42,1307.86 C1402.32,1309.29 1414.19,1311.50 1420.62,1312.91 C1426.12,1314.18 1441.63,1318.93 1448.70,1321.55 C1456.63,1324.55 1468.24,1330.42 1473.93,1333.95 C1481.46,1338.67 1491.52,1347.12 1496.26,1352.73 C1500.85,1358.22 1507.52,1370.13 1509.93,1377.17 C1512.13,1383.73 1514.32,1397.08 1514.62,1404.62 C1514.85,1411.19 1512.62,1423.22 1510.27,1431.00 C1507.81,1439.04 1502.07,1448.49 1497.07,1455.42 C1492.96,1461.08 1482.64,1469.33 1474.54,1475.36 C1465.88,1481.69 1456.05,1488.29 1450.85,1490.89 C1445.99,1493.30 1431.50,1498.89 1425.56,1500.24 C1419.72,1501.53 1402.09,1502.99 1394.51,1503.57 C1386.02,1504.08 1371.70,1504.63 1360.63,1504.56 C1353.16,1504.36 1333.12,1504.03 1331.73,1503.94 C1326.95,1503.61 1310.95,1499.89 1304.25,1497.33 C1297.27,1494.59 1282.98,1487.82 1276.97,1484.54 C1270.02,1480.69 1253.90,1471.23 1249.23,1468.21 C1245.93,1466.02 1239.73,1461.17 1237.53,1458.80 C1233.38,1454.26 1225.63,1441.30 1223.24,1435.55 C1220.70,1429.31 1219.00,1417.62 1217.75,1405.02 C1217.40,1400.84 1216.73,1391.13 1216.72,1389.91 C1216.69,1384.28 1217.83,1378.50 1218.87,1375.12 C1219.83,1372.06 1222.92,1364.36 1224.86,1361.26 C1228.09,1356.18 1239.26,1345.07 1246.01,1340.17 C1252.48,1335.51 1265.51,1328.41 1271.63,1325.75 C1278.72,1322.70 1293.64,1318.57 1301.06,1317.33 C1307.22,1316.31 1320.62,1315.51 1328.48,1315.65 C1338.98,1316.06 1350.78,1317.03 1358.99,1318.15 C1366.97,1319.26 1382.00,1322.84 1388.55,1324.95 C1395.95,1327.35 1406.16,1332.17 1414.79,1337.40 C1421.41,1341.55 1438.12,1352.52 1439.99,1353.84 C1447.17,1358.94 1458.28,1370.11 1461.78,1374.77 C1463.74,1377.40 1468.57,1385.26 1470.03,1388.34 C1472.65,1393.97 1476.55,1409.71 1477.15,1416.26 C1477.43,1419.48 1477.38,1427.51 1476.94,1430.59 C1476.46,1433.82 1474.13,1441.71 1472.81,1444.54 C1471.42,1447.45 1467.07,1453.69 1464.62,1456.27 C1460.88,1460.14 1449.49,1468.12 1442.69,1471.63 C1436.16,1474.98 1422.77,1479.65 1414.53,1481.64 C1409.73,1482.79 1391.47,1486.06 1383.92,1487.31 C1376.22,1488.50 1364.42,1489.25 1357.54,1489.28 C1349.09,1489.28 1335.12,1487.66 1328.80,1486.17 C1321.72,1484.47 1308.14,1479.21 1300.71,1474.93 C1294.39,1471.26 1282.60,1462.57 1277.59,1458.30 C1271.79,1453.35 1261.47,1443.18 1255.69,1436.44 C1249.96,1429.59 1242.20,1418.59 1240.18,1412.51 C1239.07,1409.03 1238.45,1403.23 1238.80,1399.53 C1239.18,1395.95 1240.69,1390.55 1242.16,1387.46 C1244.68,1382.29 1253.87,1369.79 1259.17,1364.28 C1263.67,1359.63 1276.68,1348.02 1281.92,1344.34 C1288.07,1340.06 1299.22,1333.95 1306.22,1331.35 C1313.26,1328.76 1324.36,1326.55 1332.70,1325.75 C1337.77,1325.31 1355.82,1325.26 1360.07,1325.50 C1369.76,1326.13 1380.54,1327.57 1387.78,1329.79 C1395.04,1332.05 1408.98,1339.07 1412.65,1341.41 C1416.63,1343.98 1431.02,1357.19 1434.51,1361.69 C1437.07,1365.01 1440.44,1371.29 1441.90,1375.10 C1443.18,1378.52 1444.74,1385.56 1445.18,1389.41 C1445.66,1393.76 1445.72,1399.79 1445.33,1404.11 C1444.98,1407.85 1443.62,1414.94 1442.48,1418.42 C1441.16,1422.37 1438.17,1428.75 1436.10,1431.65 C1434.02,1434.52 1429.50,1439.03 1425.23,1442.85 C1422.20,1445.52 1416.78,1449.18 1412.85,1451.11 C1405.95,1454.44 1393.30,1458.84 1385.68,1460.61 C1382.29,1461.39 1374.10,1462.78 1371.43,1463.05 C1367.53,1463.43 1359.95,1463.13 1355.53,1462.41 C1353.10,1462.01 1343.39,1459.90 1340.41,1458.72 C1338.37,1457.90 1332.23,1454.18 1329.15,1452.01 C1326.22,1449.93 1320.46,1444.31 1318.38,1441.73 C1316.24,1439.05 1311.93,1432.11 1310.34,1428.55 C1308.56,1424.47 1306.66,1417.84 1306.15,1413.83 C1305.71,1410.12 1306.31,1402.46 1307.12,1399.20 C1307.92,1396.11 1311.06,1388.95 1313.07,1385.82 C1315.39,1382.29 1319.71,1377.51 1322.99,1374.85 C1325.87,1372.54 1332.56,1368.65 1335.55,1367.36 C1338.50,1366.11 1345.55,1364.13 1349.00,1363.69 C1352.77,1363.23 1358.93,1363.17 1362.81,1363.55 C1366.20,1363.90 1373.30,1365.55 1375.80,1366.55 C1378.54,1367.68 1383.84,1371.18 1385.78,1373.32 C1387.88,1375.71 1390.20,1380.08 1391.04,1383.19 C1391.73,1385.89 1392.00,1391.99 1391.68,1394.54 C1391.30,1397.33 1389.33,1403.52 1387.54,1406.73 C1384.26,1412.54 1374.49,1423.00 1368.92,1427.46 C1363.33,1431.90 1352.01,1438.36 1346.22,1440.29 C1342.80,1441.40 1337.05,1442.60 1333.49,1442.80 C1330.01,1442.96 1322.11,1441.83 1318.92,1440.81 C1315.79,1439.79 1308.47,1436.03 1305.52,1433.82 C1302.30,1431.38 1297.07,1426.17 1294.68,1423.00 C1292.47,1420.04 1289.72,1414.52 1288.56,1411.51 C1287.41,1408.42 1285.69,1400.72 1285.36,1397.05 C1285.06,1393.43 1285.47,1385.50 1286.37,1381.84 C1287.38,1377.86 1290.16,1371.51 1292.36,1368.12 C1294.42,1365.03 1299.43,1360.10 1302.36,1357.79 C1304.94,1355.79 1311.00,1351.92 1314.09,1350.50 C1317.60,1348.91 1322.65,1347.50 1326.08,1347.12 C1328.95,1346.82 1335.26,1347.01 1337.10,1347.44 C1341.48,1348.52 1346.43,1351.78 1350.04,1355.57 C1352.39,1358.12 1353.88,1363.08 1354.59,1368.12 C1355.02,1371.71 1355.43,1378.92 1355.18,1382.67 C1354.85,1386.98 1352.62,1393.33 1350.47,1396.83 C1348.50,1399.96 1344.55,1405.21 1341.38,1409.13 C1338.93,1412.11 1334.66,1416.21 1331.65,1418.43 C1329.09,1420.29 1321.77,1424.92 1319.21,1426.33 C1315.82,1428.18 1309.02,1430.81 1305.24,1431.90 C1301.60,1432.92 1294.77,1433.69 1291.53,1433.50 C1288.89,1433.32 1282.92,1431.89 1280.48,1430.72 C1277.64,1429.32 1274.16,1426.21 1272.24,1423.36 C1270.60,1420.85 1268.23,1414.67 1267.63,1411.70 C1267.01,1408.52 1266.66,1401.02 1266.97,1397.66 C1267.31,1394.17 1268.40,1388.19 1269.36,1385.24 C1270.36,1382.24 1272.94,1376.70 1274.67,1374.10 C1276.39,1371.56 1280.60,1366.55 1282.95,1364.38 C1288.01,1359.78 1300.10,1352.41 1306.24,1350.10 C1309.86,1348.76 1316.89,1346.80 1320.49,1346.25 C1328.03,1345.14 1342.56,1345.80 1348.98,1347.38 C1352.74,1348.32 1359.35,1350.66 1362.48,1352.30 C1365.30,1353.79 1371.44,1357.77 1373.95,1359.77 C1376.54,1361.86 1380.88,1366.16 1382.59,1368.87 C1384.31,1371.65 1386.34,1377.08 1386.96,1380.45 C1387.47,1383.34 1387.61,1390.39 1387.31,1392.97 C1386.94,1395.86 1385.02,1402.45 1383.35,1405.90 C1381.44,1409.75 1377.78,1414.94 1375.05,1417.94 C1370.54,1422.83 1359.74,1432.39 1353.28,1437.09 C1347.16,1441.43 1334.44,1448.60 1328.37,1451.25 C1325.41,1452.54 1318.03,1455.25 1314.61,1456.27 C1310.97,1457.33 1303.69,1458.54 1299.44,1458.82 C1295.71,1459.03 1289.05,1458.54 1286.08,1457.91 C1282.91,1457.20 1277.05,1453.73 1274.82,1451.18 C1272.73,1448.71 1269.58,1441.91 1268.93,1438.67 C1268.36,1435.69 1267.81,1429.24 1267.93,1425.98 C1268.09,1422.50 1268.98,1416.05 1269.95,1412.73 C1271.00,1409.17 1273.75,1402.79 1275.80,1399.61 C1277.94,1396.32 1282.95,1390.31 1285.68,1387.72 C1291.71,1382.08 1302.30,1375.02 1310.81,1370.93 C1317.57,1367.71 1332.40,1362.51 1339.77,1361.23 C1347.27,1359.95 1363.57,1358.97 1370.47,1359.17 C1378.08,1359.42 1392.53,1361.42 1399.42,1363.47 C1406.34,1365.57 1418.26,1371.87 1423.48,1375.99 C1426.52,1378.42 1430.96,1383.12 1433.23,1386.57 C1435.36,1389.85 1438.07,1397.03 1438.79,1400.44 C1439.40,1403.40 1439.84,1410.62 1439.52,1413.91 C1439.12,1417.64 1437.71,1423.31 1436.38,1426.43 C1435.09,1429.39 1430.86,1435.51 1428.60,1437.99 C1426.40,1440.36 1420.42,1445.38 1417.22,1447.38 C1413.46,1449.68 1407.89,1451.80 1403.69,1452.52 C1400.19,1453.09 1392.83,1453.36 1390.26,1453.08 C1387.37,1452.73 1381.39,1450.78 1378.94,1449.12 C1376.14,1447.15 1372.76,1442.77 1371.42,1439.33 C1370.29,1436.30 1369.36,1429.82 1369.31,1426.92 C1369.28,1423.74 1370.39,1416.90 1371.37,1413.39 C1373.06,1407.52 1379.22,1395.22 1383.28,1389.91 C1387.77,1384.09 1398.54,1374.26 1404.36,1371.02 C1407.04,1369.55 1413.72,1366.63 1417.29,1365.59 C1421.19,1364.48 1427.60,1363.45 1431.35,1363.30 C1434.51,1363.20 1440.58,1364.04 1442.31,1364.72 C1443.95,1365.40 1446.90,1367.30 1448.05,1368.54 C1450.52,1371.32 1453.12,1378.07 1453.61,1382.65 C1453.83,1384.86 1453.70,1390.90 1453.19,1393.81 C1452.57,1397.20 1450.68,1402.59 1448.94,1405.88 C1445.92,1411.46 1434.87,1423.52 1428.89,1428.23 C1425.45,1430.90 1420.86,1433.51 1417.47,1434.72 C1414.54,1435.73 1408.38,1436.44 1406.10,1435.79 C1404.87,1435.40 1403.25,1434.26 1402.37,1433.17 C1400.80,1431.12 1399.57,1425.12 1399.44,1421.77 C1399.25,1415.70 1400.75,1403.00 1402.99,1396.33 C1404.32,1392.43 1407.37,1386.41 1409.71,1383.03 C1412.04,1379.74 1416.37,1375.01 1419.09,1372.79 C1421.78,1370.63 1426.84,1367.66 1430.24,1366.23 C1433.76,1364.77 1439.21,1363.33 1443.22,1362.92 C1446.54,1362.61 1453.26,1362.78 1455.07,1363.15 C1456.91,1363.56 1460.57,1364.95 1461.84,1365.85 C1462.98,1366.68 1465.80,1369.80 1466.81,1371.24 C1468.66,1373.99 1470.27,1380.43 1470.88,1385.48 C1471.39,1390.05 1471.30,1396.58 1470.79,1400.40 C1470.29,1403.94 1468.47,1410.06 1466.95,1412.93 C1465.47,1415.68 1461.13,1421.39 1459.06,1423.49 C1456.97,1425.57 1451.62,1429.72 1448.64,1431.60 C1445.80,1433.37 1439.17,1436.25 1435.82,1437.13 C1432.28,1438.00 1424.88,1437.36 1422.59,1436.37 C1421.34,1435.79 1420.03,1434.44 1419.51,1433.24 C1418.31,1430.21 1417.54,1425.37 1417.79,1420.98 C1417.95,1418.47 1419.17,1412.13 1420.38,1408.87 C1421.83,1405.07 1424.67,1400.23 1427.31,1397.09 C1429.37,1394.67 1433.24,1391.24 1435.81,1390.01 C1437.82,1389.07 1445.41,1386.74 1447.78,1386.54 C1451.40,1386.28 1457.87,1388.17 1460.23,1390.06 C1462.71,1392.14 1465.58,1396.87 1466.55,1400.38 C1467.36,1403.47 1467.62,1411.06 1467.12,1413.95 C1466.56,1417.05 1463.77,1423.13 1461.52,1425.74 C1459.02,1428.56 1454.09,1432.19 1450.37,1434.00 C1447.40,1435.42 1441.04,1437.23 1439.41,1436.79 C1437.76,1436.30 1434.48,1434.08 1433.45,1432.75 C1432.17,1430.98 1431.95,1424.66 1432.48,1421.30 C1433.29,1416.54 1438.52,1404.49 1442.03,1399.83 C1443.86,1397.43 1448.38,1393.36 1450.19,1392.27 C1453.58,1390.26 1458.43,1389.19 1460.75,1389.71 C1463.03,1390.29 1467.01,1393.10 1468.53,1395.42 C1470.13,1397.97 1471.80,1404.66 1471.79,1408.80 C1471.73,1413.90 1467.62,1426.39 1465.12,1430.52 C1458.74,1440.91 1443.55,1453.96 1443.13,1454.28 C1442.74,1454.58 1441.83,1455.24 1440.42,1456.25" fill="none" stroke="rgb(255, 240, 161)" stroke-width="40.00" stroke-opacity="1.00" stroke-linejoin="round"/>
<path d="M1219.55,1157.18 C1219.71,1159.52 1223.94,1167.50 1224.42,1168.28 C1225.48,1170.01 1227.01,1172.16 1227.78,1173.07 C1228.07,1170.42 1226.21,1163.25 1225.15,1159.12 C1224.50,1156.64 1224.33,1156.09 1224.26,1156.11 C1224.26,1156.11 1232.04,1176.69 1232.04,1176.69 C1232.04,1176.69 1227.27,1150.91 1227.27,1150.91 C1227.27,1150.91 1236.01,1178.71 1236.01,1178.71 C1236.01,1178.71 1230.71,1146.88 1230.71,1146.88 C1230.71,1146.88 1239.43,1178.69 1239.43,1178.69 C1239.43,1178.69 1233.85,1141.16 1233.85,1141.16 C1233.85,1141.16 1243.32,1181.55 1243.32,1181.55 C1243.32,1181.55 1237.95,1138.95 1237.95,1138.95 C1237.95,1138.95 1248.21,1181.94 1248.21,1181.94 C1248.15,1178.58 1245.49,1162.23 1244.28,1154.61 C1242.73,1143.89 1242.29,1135.27 1242.70,1127.86 C1242.70,1127.86 1254.17,1183.72 1254.17,1183.72 C1253.83,1181.37 1250.21,1163.96 1249.41,1157.91 C1248.85,1153.60 1247.71,1137.05 1247.41,1131.67 C1247.32,1139.11 1248.47,1152.77 1249.93,1160.51 C1251.63,1169.46 1253.70,1177.27 1254.59,1178.28 C1254.59,1178.28 1250.24,1130.83 1250.24,1130.83 C1250.38,1134.65 1251.84,1146.51 1253.41,1155.79 C1254.91,1163.68 1257.78,1177.41 1259.59,1183.53 C1259.67,1177.45 1256.46,1157.02 1256.24,1155.44 C1255.24,1148.37 1253.89,1130.75 1253.88,1129.15 C1253.88,1129.15 1263.57,1180.49 1263.57,1180.49 C1264.20,1177.06 1261.85,1160.70 1260.73,1152.99 C1259.27,1141.87 1258.74,1132.49 1258.97,1128.59 C1261.49,1134.09 1267.55,1165.95 1269.07,1174.62 C1269.27,1174.57 1265.53,1155.42 1264.24,1147.28 C1262.94,1137.99 1262.90,1131.49 1263.24,1130.58 C1265.50,1134.33 1269.15,1149.04 1270.43,1160.06 C1270.86,1164.07 1271.61,1170.85 1271.49,1174.07 C1267.67,1169.90 1265.97,1144.09 1265.99,1143.61 C1266.07,1141.18 1266.70,1139.85 1267.64,1139.66 C1270.40,1142.85 1272.30,1147.04 1273.17,1150.49 C1274.13,1154.38 1275.39,1160.89 1275.62,1164.05 C1275.91,1168.29 1275.53,1169.61 1274.88,1170.49 C1272.60,1165.73 1270.62,1149.90 1270.88,1146.83 C1271.10,1144.38 1271.69,1142.79 1272.62,1141.89 C1273.79,1141.75 1274.98,1142.35 1276.84,1144.10 C1278.06,1145.27 1279.42,1149.08 1280.52,1153.93 C1282.04,1160.77 1280.72,1164.89 1279.74,1166.17 C1278.13,1165.09 1277.19,1164.09 1276.42,1162.37 C1275.17,1159.56 1273.35,1154.44 1272.74,1151.72 C1270.25,1140.36 1270.75,1135.75 1271.27,1134.46 C1272.61,1135.76 1275.21,1143.03 1276.10,1146.53 C1278.71,1156.98 1278.27,1160.11 1277.64,1161.34 C1276.26,1160.55 1275.47,1159.72 1274.39,1157.68 C1271.98,1153.06 1269.97,1147.43 1269.17,1143.02 C1268.57,1139.61 1268.58,1136.27 1269.27,1134.79 C1271.71,1136.49 1272.94,1137.62 1273.56,1139.05 C1274.74,1141.84 1277.94,1151.75 1278.30,1153.80 C1279.05,1158.41 1278.33,1160.33 1277.84,1160.65 C1275.16,1161.66 1270.98,1150.38 1269.62,1144.81 C1268.66,1140.82 1269.42,1137.19 1269.95,1136.59 C1270.48,1136.10 1271.95,1136.74 1273.88,1138.46 C1276.48,1140.81 1282.09,1153.59 1282.64,1156.59 C1282.90,1158.05 1282.54,1158.89 1281.77,1159.40 C1280.53,1158.70 1279.07,1156.98 1278.20,1154.84 C1277.58,1153.30 1277.06,1149.64 1277.20,1148.18 C1277.40,1146.68 1278.81,1144.58 1279.76,1144.62 C1280.76,1144.71 1283.52,1147.42 1284.52,1149.13 C1284.91,1149.83 1286.87,1154.96 1287.00,1155.47 C1287.32,1156.85 1287.07,1158.39 1286.57,1159.46 C1286.57,1159.46 1285.04,1159.84 1285.04,1159.84 C1283.49,1158.68 1281.89,1156.78 1281.17,1154.90 C1279.79,1151.21 1280.12,1147.63 1280.84,1145.53 C1282.13,1145.03 1283.49,1145.65 1285.08,1147.64 C1288.59,1152.08 1288.74,1157.98 1288.32,1159.03 C1287.34,1159.19 1286.02,1158.22 1284.64,1156.14 C1283.88,1154.98 1281.09,1148.70 1280.74,1145.28 C1280.56,1143.39 1281.14,1142.22 1282.35,1141.31 C1284.17,1141.99 1285.53,1142.99 1287.10,1145.01 C1289.65,1148.30 1292.11,1153.21 1291.99,1155.10 C1291.14,1155.64 1289.78,1155.42 1288.02,1154.24 C1285.44,1152.48 1280.36,1146.40 1280.28,1144.85 C1280.27,1144.54 1280.48,1144.04 1280.90,1143.35 C1282.57,1143.53 1283.96,1144.10 1285.74,1145.52 C1288.68,1147.89 1291.95,1151.90 1293.41,1154.81 C1293.05,1153.80 1293.06,1152.69 1293.61,1152.17 C1294.17,1151.66 1295.59,1152.12 1297.65,1153.26 C1297.65,1153.26 1278.13,1151.13 1278.13,1151.13" fill="none" stroke="rgb(255, 233, 26)" stroke-width="10.00" stroke-opacity="1.00" stroke-linejoin="round"/>
<path d="M1290.64,1152.88 C1290.64,1152.88 1293.19,1155.14 1293.19,1155.14 C1293.04,1155.64 1295.57,1155.70 1296.58,1155.81 C1296.95,1155.86 1297.20,1156.01 1297.32,1156.26" fill="none" stroke="rgb(255, 233, 26)" stroke-width="10.00" stroke-opacity="1.00" stroke-linejoin="round"/>
<path d="M1239.89,755.54 C1237.15,755.63 1235.63,755.84 1234.95,756.63 C1233.04,758.88 1216.74,792.40 1213.75,798.58 C1216.23,796.01 1225.57,778.35 1227.49,773.67 C1229.21,769.38 1229.28,768.19 1228.91,767.74 C1228.91,767.74 1209.69,801.68 1209.69,801.68 C1209.69,801.68 1216.79,784.34 1216.79,784.34 C1213.78,786.78 1201.06,816.83 1200.08,820.50 C1200.08,820.50 1208.91,798.86 1208.91,798.86 C1208.91,798.86 1199.17,831.90 1199.17,831.90 C1199.17,831.90 1207.37,805.70 1207.37,805.70 C1207.37,805.70 1198.97,841.30 1198.97,841.30 C1198.97,841.30 1204.50,826.05 1204.50,826.05 C1203.90,828.23 1202.87,831.44 1202.24,832.64 C1201.54,833.97 1198.87,836.81 1198.77,836.99 C1197.84,838.62 1197.48,841.14 1197.90,842.79 C1198.46,844.73 1199.01,845.87 1199.73,846.34 C1201.22,847.25 1224.32,848.91 1225.45,848.86 C1228.80,848.70 1252.39,844.82 1256.17,844.00 C1261.48,842.83 1274.69,838.10 1280.30,835.19 C1280.39,835.15 1317.87,813.35 1331.34,806.48 C1341.58,801.54 1373.65,787.35 1387.28,781.23 C1390.45,779.74 1402.19,774.29 1411.98,770.65 C1418.91,768.10 1437.63,760.98 1440.11,759.38 C1442.04,758.10 1444.19,755.95 1444.97,754.47 C1445.39,753.61 1446.79,750.00 1446.77,749.36 C1446.69,747.60 1445.57,745.06 1444.36,743.65 C1440.83,739.78 1437.77,737.39 1433.82,736.35 C1432.19,735.93 1423.57,734.49 1420.33,733.67 C1416.64,732.72 1412.84,730.72 1409.44,728.00 C1407.06,726.09 1401.12,722.59 1398.24,720.93 C1395.22,719.09 1388.95,713.92 1388.41,713.55 C1386.01,711.93 1380.62,710.53 1376.73,709.98 C1372.73,709.42 1357.05,708.32 1350.63,707.81 C1344.46,707.42 1329.43,709.17 1322.16,710.07 C1308.50,711.57 1299.76,713.10 1292.38,716.14 C1285.83,718.88 1278.02,723.65 1266.98,730.74 C1256.97,737.23 1251.63,740.84 1245.54,746.65 C1243.23,748.97 1241.37,751.99 1239.31,756.01 C1235.84,763.10 1229.23,776.93 1226.10,783.65 C1222.71,791.10 1216.42,806.06 1214.87,812.60 C1213.40,819.22 1210.52,834.53 1210.48,837.23 C1215.82,822.92 1230.85,783.56 1234.23,776.66 C1235.73,773.62 1243.56,761.92 1248.02,755.62 C1252.93,749.02 1258.21,743.76 1258.99,742.99 C1253.42,751.45 1247.28,762.61 1243.68,769.56 C1239.06,778.92 1235.51,787.32 1232.21,797.23 C1224.84,821.08 1222.57,830.07 1221.45,835.48 C1226.44,821.17 1237.16,791.10 1242.17,779.65 C1244.87,773.80 1252.50,758.58 1255.09,753.91 C1258.47,747.92 1264.45,740.12 1266.15,738.57 C1265.59,741.80 1264.37,745.07 1262.02,750.05 C1254.63,765.31 1241.91,792.37 1235.85,807.73 C1228.85,826.85 1226.98,836.38 1226.78,837.38 C1229.07,828.42 1241.41,796.72 1247.59,781.09 C1250.90,773.02 1256.62,759.95 1259.16,755.39 C1266.95,741.50 1273.97,733.85 1274.35,733.56 C1272.11,743.14 1259.63,777.78 1253.30,795.19 C1250.71,802.47 1244.63,819.88 1243.62,824.48 C1243.42,825.41 1242.35,831.61 1242.38,831.58 C1243.21,824.36 1245.83,813.67 1248.78,804.52 C1251.10,797.59 1256.65,782.33 1259.85,774.88 C1267.97,757.03 1277.49,740.07 1281.08,735.86 C1282.46,734.25 1288.40,728.61 1290.44,727.63 C1293.75,726.06 1307.35,721.61 1315.63,719.97 C1327.03,717.73 1351.67,716.70 1357.27,716.99 C1360.76,717.19 1366.75,718.46 1370.04,719.85 C1375.71,722.30 1389.18,732.70 1393.55,735.46 C1400.03,739.55 1408.48,743.53 1416.30,746.13 C1420.96,747.66 1435.53,749.97 1435.81,750.18 C1428.47,752.38 1419.38,756.32 1408.58,761.66 C1405.39,763.24 1399.90,765.99 1397.58,766.70 C1398.30,764.61 1399.20,763.11 1400.98,761.26 C1404.67,757.40 1405.51,755.22 1405.14,754.61 C1400.68,756.16 1365.20,776.96 1354.04,782.57 C1325.32,796.09 1257.24,828.29 1256.44,828.49 C1256.58,824.85 1258.42,818.09 1258.87,816.40 C1263.32,800.51 1276.13,764.17 1280.44,753.54 C1284.46,744.14 1290.09,733.02 1291.94,729.38 C1290.11,736.73 1287.83,743.93 1282.98,756.47 C1276.13,773.43 1265.46,799.66 1261.65,808.95 C1265.40,801.25 1282.70,769.95 1290.98,755.27 C1294.48,749.30 1302.93,737.17 1304.36,736.65 C1304.36,736.65 1274.43,812.04 1274.43,812.04 C1280.14,795.00 1289.93,770.40 1295.95,756.62 C1304.02,739.03 1312.07,725.65 1314.18,723.08 C1312.90,730.20 1308.70,740.95 1306.17,747.23 C1299.88,764.03 1290.71,788.70 1287.82,796.58 C1294.52,783.42 1310.44,752.33 1316.97,742.57 C1322.48,734.53 1325.54,730.81 1326.55,729.67 C1327.14,730.05 1326.27,735.23 1325.46,738.17 C1323.07,746.63 1299.47,798.44 1298.38,800.83 C1298.58,800.34 1316.83,765.03 1324.03,750.92 C1327.45,744.41 1333.50,733.51 1337.73,728.03 C1337.73,728.03 1309.97,793.63 1309.97,793.63 C1310.50,789.63 1314.23,775.53 1316.38,768.26 C1318.46,761.66 1323.66,746.61 1326.17,740.58 C1329.75,732.05 1333.53,725.11 1335.38,722.86 C1336.26,721.79 1336.85,721.55 1337.88,721.63 C1337.93,731.67 1337.33,741.25 1335.12,751.94 C1334.03,757.09 1328.37,779.18 1327.14,781.92 C1328.07,772.48 1328.91,767.48 1332.34,758.46 C1336.04,748.98 1341.57,737.78 1346.29,730.69 C1348.19,727.87 1352.07,724.39 1353.70,724.17 C1354.41,725.20 1354.44,730.12 1353.99,733.53 C1353.12,739.90 1349.28,754.56 1346.19,762.11 C1342.98,769.88 1338.80,776.60 1338.19,777.58 C1338.21,772.65 1338.42,768.21 1339.12,764.22 C1339.87,760.10 1341.81,753.04 1343.20,749.70 C1345.93,743.21 1354.88,729.57 1357.22,729.00 C1357.63,728.91 1358.60,728.90 1360.13,728.97 C1361.46,731.14 1362.39,736.36 1361.99,741.05 C1361.63,744.93 1359.73,751.94 1358.39,755.51 C1357.02,759.08 1353.71,764.88 1351.60,767.66 C1347.97,772.30 1345.94,773.33 1343.56,773.84 C1342.33,772.04 1343.02,767.76 1344.45,762.93 C1345.60,759.26 1348.34,752.94 1350.40,749.18 C1352.79,744.89 1356.79,739.27 1359.26,737.25 C1359.51,737.06 1362.51,735.09 1363.18,735.12 C1364.74,735.24 1367.23,736.43 1368.27,737.49 C1372.09,741.56 1375.09,748.09 1375.80,750.86 C1376.12,752.27 1375.96,755.28 1375.35,756.72 C1374.65,758.29 1371.95,759.41 1370.40,759.03 C1369.69,758.81 1368.07,756.56 1367.79,755.69 C1367.00,752.90 1368.27,747.28 1370.18,744.16 C1371.94,741.41 1374.41,739.96 1377.29,739.37 C1378.22,740.31 1379.51,741.95 1379.86,743.02 C1380.64,745.52 1379.28,753.66 1377.84,756.67 C1376.56,759.27 1372.57,763.00 1371.22,763.14 C1369.32,763.29 1366.94,762.50 1366.21,761.41 C1365.42,760.13 1365.01,758.27 1365.20,756.65 C1365.61,753.77 1369.07,748.84 1371.42,747.14 C1372.58,746.32 1374.10,745.58 1375.71,745.03 C1376.94,744.67 1380.06,744.75 1381.05,745.47 C1382.31,746.46 1382.42,749.10 1381.47,750.56 C1379.32,753.61 1374.56,756.95 1370.08,758.73 C1363.47,761.22 1362.09,761.45 1360.26,761.40 C1362.19,759.60 1363.29,758.84 1365.31,758.05 C1375.76,753.89 1386.44,750.70 1392.08,750.34 C1396.41,750.09 1397.55,750.52 1397.63,750.86 C1394.02,752.34 1388.52,753.10 1387.64,752.46 C1387.44,752.31 1387.16,751.93 1386.78,751.32 C1387.49,749.96 1388.43,748.95 1390.14,747.94 C1392.98,746.28 1397.06,745.41 1398.00,746.28 C1397.40,747.14 1396.60,747.65 1394.52,748.32 C1388.99,750.11 1388.04,750.23 1387.08,750.07 C1393.33,748.33 1409.28,746.06 1417.32,744.97 C1428.11,743.47 1435.26,741.53 1440.58,740.43 C1447.61,739.01 1462.13,735.98 1466.48,735.48 C1478.89,734.08 1499.01,734.25 1503.00,735.20 C1499.42,736.65 1482.55,739.93 1474.52,741.44 C1463.80,743.50 1452.98,746.50 1445.89,750.05 C1438.63,753.73 1434.08,757.69 1433.42,758.27 C1433.23,759.16 1445.80,756.69 1456.88,753.88 C1464.65,751.86 1482.91,747.30 1486.72,746.64 C1491.56,745.81 1510.40,744.26 1510.50,744.25 C1506.51,744.90 1498.89,744.73 1498.41,744.55 C1497.00,743.99 1496.24,743.35 1496.13,742.63 C1496.02,741.71 1498.38,739.53 1499.56,739.07 C1502.01,738.21 1506.91,738.77 1509.09,740.13 C1510.16,740.86 1511.56,743.86 1511.23,745.22 C1510.83,746.65 1507.55,747.35 1506.03,746.50 C1504.71,745.71 1504.11,744.95 1504.23,744.21 C1504.47,743.03 1507.50,741.35 1509.00,741.28 C1511.77,741.21 1516.38,741.71 1520.25,743.26 C1518.40,743.90 1516.28,743.88 1514.68,742.96 C1514.29,742.73 1513.72,742.27 1512.98,741.58 C1513.52,740.80 1518.58,741.93 1524.45,743.77 C1526.62,744.45 1529.20,745.54 1531.01,746.31 C1531.36,746.45 1531.55,746.48 1531.58,746.40" fill="none" stroke="rgb(255, 116, 26)" stroke-width="17.00" stroke-opacity="1.00" stroke-linejoin="round"/>
<path d="M1186.47,849.95 C1186.36,849.91 1186.23,849.91 1186.07,849.95 C1184.32,850.41 1181.30,851.94 1177.65,854.17 C1169.69,859.18 1160.83,865.94 1153.87,872.26 C1145.91,879.75 1120.50,906.00 1110.09,917.50 C1097.55,931.88 1080.90,952.60 1071.80,965.52 C1065.12,975.35 1049.65,1000.22 1040.41,1017.21 C1033.30,1030.95 1022.59,1055.02 1016.43,1072.54 C1014.03,1079.80 1009.59,1095.05 1007.53,1103.04 C1004.03,1118.45 997.19,1158.60 996.42,1164.45 C994.66,1179.44 993.97,1203.12 994.48,1221.28 C994.80,1228.64 996.41,1244.35 997.48,1252.26 C998.68,1260.08 1001.93,1275.63 1003.79,1283.38 C1005.76,1291.00 1010.43,1305.98 1012.98,1313.39 C1015.63,1320.67 1021.68,1334.88 1024.93,1341.90 C1028.27,1348.78 1035.71,1362.19 1039.65,1368.79 C1043.67,1375.26 1052.45,1387.78 1057.06,1393.91 C1061.71,1399.87 1071.67,1411.21 1076.86,1416.73 C1082.08,1422.10 1093.25,1432.33 1099.03,1437.31 C1104.84,1442.13 1117.09,1451.27 1123.39,1455.67 C1129.68,1459.92 1142.79,1467.87 1149.47,1471.68 C1156.14,1475.33 1169.80,1482.17 1176.75,1485.43 C1183.72,1488.54 1198.05,1494.37 1205.35,1497.13 C1215.11,1500.68 1253.20,1511.86 1263.39,1513.72 C1272.03,1515.29 1313.98,1520.23 1326.69,1521.21 C1342.35,1522.18 1369.56,1522.07 1388.61,1521.14 C1403.31,1520.17 1434.26,1516.94 1449.38,1514.88 C1464.00,1512.53 1496.98,1505.53 1508.44,1502.51 C1522.31,1498.62 1552.21,1488.02 1566.39,1482.15 C1577.98,1477.21 1611.35,1460.01 1621.14,1454.25 C1634.32,1446.18 1657.59,1430.18 1671.66,1418.88 C1679.03,1412.76 1689.09,1403.69 1694.93,1398.17 C1706.19,1387.07 1729.37,1361.88 1736.14,1353.91 C1741.07,1347.99 1747.82,1338.54 1753.49,1329.90 C1757.92,1322.86 1766.39,1309.09 1770.43,1302.36 C1775.33,1293.81 1781.80,1280.86 1784.46,1274.34 C1787.18,1267.57 1789.93,1253.37 1789.84,1251.62 C1789.80,1250.82 1789.57,1249.80 1789.17,1248.57 C1789.09,1248.32 1788.96,1248.11 1788.78,1247.93 C1788.63,1247.80 1788.32,1247.49 1787.86,1247.01" fill="none" stroke="rgb(0, 0, 0)" stroke-width="10.00" stroke-opacity="1.00" stroke-linejoin="round"/>
<path d="M1692.39,1047.12 C1692.69,1047.12 1694.00,1047.12 1695.01,1047.12 C1698.48,1047.12 1704.65,1047.12 1707.37,1047.13 C1739.74,1047.03 1803.55,1046.45 1834.99,1045.97 C1842.94,1045.90 1861.04,1045.93 1864.87,1046.11 C1872.23,1046.47 1889.58,1048.68 1892.93,1049.69 C1894.98,1050.34 1901.87,1055.34 1903.07,1057.27 C1904.90,1060.32 1907.27,1068.04 1907.78,1069.92 C1908.77,1073.65 1909.87,1080.85 1909.97,1084.48 C1910.14,1092.11 1907.99,1107.05 1905.41,1114.41 C1904.07,1118.15 1900.77,1125.38 1898.80,1128.85 C1895.14,1135.23 1884.39,1147.37 1879.01,1151.73 C1873.37,1156.26 1858.04,1164.74 1851.34,1166.91 C1846.96,1168.30 1840.35,1169.68 1837.77,1169.72 C1837.06,1169.72 1836.53,1169.68 1836.18,1169.59 C1836.06,1169.55 1835.98,1169.47 1835.95,1169.34" fill="none" stroke="rgb(0, 0, 0)" stroke-width="10.00" stroke-opacity="1.00" stroke-linejoin="round"/>
<path d="M1837.73,1169.27 C1837.82,1170.47 1838.31,1177.38 1837.46,1181.73 C1836.49,1186.50 1830.37,1201.74 1826.95,1207.90 C1823.40,1214.25 1814.58,1226.41 1809.57,1231.87 C1804.47,1237.39 1793.74,1246.60 1786.63,1250.99 C1783.72,1252.73 1777.95,1256.19 1775.13,1257.56 C1773.35,1258.41 1767.14,1260.54 1766.18,1260.84 C1765.91,1260.93 1765.71,1260.97 1765.58,1260.97" fill="none" stroke="rgb(0, 0, 0)" stroke-width="10.00" stroke-opacity="1.00" stroke-linejoin="round"/>
<path d="M1790.17,1255.31 C1790.22,1255.27 1790.29,1255.27 1790.39,1255.31 C1790.89,1255.46 1791.22,1255.46 1791.37,1255.32 C1791.65,1255.03 1793.11,1251.53 1793.70,1250.11 C1794.09,1249.14 1794.47,1248.16 1794.86,1247.18 C1795.16,1246.42 1795.51,1245.47 1795.71,1244.91" fill="none" stroke="rgb(0, 0, 0)" stroke-width="10.00" stroke-opacity="1.00" stroke-linejoin="round"/>
<path d="M1023.19,1050.37 C1022.65,1051.28 1022.16,1051.91 1021.71,1052.26 C1020.27,1053.36 1001.79,1060.02 995.12,1062.91 C985.84,1067.02 954.13,1083.17 940.27,1090.70 C912.84,1106.18 872.62,1131.62 859.66,1140.05 C849.58,1146.88 841.28,1153.21 836.26,1158.08 C832.84,1161.44 828.93,1166.34 827.02,1169.94 C825.37,1173.13 823.79,1179.85 823.93,1182.37 C824.10,1184.71 826.38,1191.13 827.82,1193.37 C829.87,1196.47 844.15,1208.72 848.61,1211.84 C853.66,1215.34 868.49,1223.32 875.34,1226.28 C878.35,1227.57 885.60,1230.26 885.94,1230.45 C887.15,1231.15 887.93,1231.80 888.27,1232.39 C888.65,1233.06 888.54,1236.24 889.25,1238.21 C889.78,1239.67 894.36,1245.97 897.05,1248.80 C899.03,1250.85 905.80,1256.75 908.90,1258.85 C914.95,1262.91 931.11,1269.26 938.59,1270.76 C945.29,1272.07 960.78,1273.09 968.54,1272.75 C985.18,1271.80 1000.75,1269.05 1002.58,1268.77 C1003.07,1268.70 1003.43,1268.63 1003.68,1268.57 C1003.78,1268.55 1003.89,1268.51 1004.01,1268.45" fill="none" stroke="rgb(0, 0, 0)" stroke-width="10.00" stroke-opacity="1.00" stroke-linejoin="round"/>
<path d="M1187.60,844.00 C1187.31,836.41 1189.27,823.13 1190.72,817.73 C1192.40,811.56 1198.27,796.95 1201.69,790.30 C1204.99,783.91 1213.87,770.67 1219.01,764.31 C1223.22,759.12 1234.05,748.09 1239.42,743.41 C1245.10,738.48 1257.61,729.70 1264.69,725.60 C1271.37,721.75 1282.67,716.63 1292.29,712.90 C1299.33,710.33 1315.66,705.57 1322.02,704.20 C1329.35,702.64 1346.10,701.14 1352.72,701.37 C1358.22,701.57 1371.83,703.30 1379.35,705.21 C1387.37,707.30 1396.14,710.40 1404.29,715.45 C1407.81,717.71 1416.12,723.09 1416.71,723.49 C1422.23,727.29 1425.36,728.80 1429.76,730.09 C1432.65,730.91 1438.01,730.34 1442.89,729.33 C1449.06,727.93 1465.51,724.95 1472.85,723.85 C1482.06,722.65 1490.82,722.95 1497.62,724.06 C1505.89,725.50 1515.11,728.85 1523.11,733.16 C1526.82,735.17 1531.41,738.32 1533.59,740.71 C1534.85,742.14 1535.83,743.36 1535.79,743.76 C1535.76,743.97 1535.42,744.27 1534.78,744.64" fill="none" stroke="rgb(0, 0, 0)" stroke-width="10.00" stroke-opacity="1.00" stroke-linejoin="round"/>
<path d="M1185.98,845.31 C1185.98,845.12 1185.98,844.77 1185.98,844.61 C1185.98,844.58 1185.98,844.55 1185.98,844.52 C1185.98,844.52 1185.98,844.53 1185.98,844.53 C1186.57,847.29 1187.20,849.00 1188.28,850.42 C1190.32,853.04 1195.59,856.78 1199.16,858.02 C1205.34,860.13 1217.92,860.79 1225.24,860.13 C1231.18,859.57 1242.05,856.55 1252.14,853.42 C1259.78,850.95 1275.23,845.28 1282.34,842.31 C1297.13,835.71 1376.56,795.61 1395.40,786.70 C1402.51,783.51 1417.05,777.38 1424.14,774.59 C1433.70,771.00 1445.73,766.95 1453.81,764.79 C1464.32,762.13 1474.44,760.07 1483.29,758.95 C1489.01,758.26 1503.05,757.09 1509.48,756.62 C1516.61,756.13 1534.04,754.71 1537.77,753.04 C1539.18,752.40 1540.19,751.81 1540.80,751.27 C1541.15,750.94 1541.28,750.58 1541.17,750.16 C1541.13,750.07 1541.05,749.97 1540.92,749.87" fill="none" stroke="rgb(0, 0, 0)" stroke-width="10.00" stroke-opacity="1.00" stroke-linejoin="round"/>
<path d="M1542.10,747.91 C1545.59,748.83 1562.75,752.67 1566.36,753.65 C1572.94,755.44 1587.59,761.00 1594.74,763.96 C1598.49,765.57 1615.65,773.83 1621.14,776.94 C1624.75,779.00 1640.47,789.02 1647.13,793.58 C1657.49,800.90 1682.08,820.95 1696.30,833.87 C1702.16,839.41 1713.36,850.59 1718.68,856.28 C1728.74,867.45 1746.60,889.66 1756.30,903.82 C1761.67,912.01 1767.25,921.55 1771.60,929.72 C1778.01,942.28 1788.52,966.56 1795.10,983.91 C1797.73,991.42 1802.29,1005.47 1804.25,1012.88 C1806.19,1020.47 1808.42,1035.21 1808.19,1039.89 C1808.11,1041.22 1807.62,1043.66 1807.31,1044.41 C1807.21,1044.64 1807.06,1044.76 1806.87,1044.77 C1806.79,1044.76 1806.63,1044.70 1806.45,1044.65" fill="none" stroke="rgb(0, 0, 0)" stroke-width="10.00" stroke-opacity="1.00" stroke-linejoin="round"/>
<path d="M1211.76,1161.87 C1211.81,1160.60 1212.09,1159.27 1212.84,1157.90 C1215.38,1153.26 1227.40,1138.33 1232.97,1133.21 C1234.37,1131.93 1241.16,1126.11 1243.58,1124.62 C1245.23,1123.61 1253.66,1121.64 1255.67,1121.84 C1260.22,1122.35 1275.07,1128.27 1280.97,1132.17 C1290.14,1138.28 1302.80,1151.53 1304.40,1153.29 C1304.67,1153.57 1305.00,1153.85 1305.38,1154.12 C1305.47,1154.18 1305.50,1154.19 1305.48,1154.14" fill="none" stroke="rgb(0, 0, 0)" stroke-width="10.00" stroke-opacity="1.00" stroke-linejoin="round"/>
<path d="M1209.54,1161.28 C1214.46,1166.41 1226.63,1176.53 1233.27,1181.81 C1237.22,1184.89 1241.37,1187.49 1244.97,1189.13 C1247.32,1190.15 1251.08,1191.50 1252.50,1191.63 C1253.87,1191.75 1257.93,1191.06 1259.92,1190.54 C1262.93,1189.69 1267.48,1186.70 1272.17,1183.03 C1279.33,1177.23 1302.28,1156.79 1305.24,1154.56 C1305.57,1154.31 1305.77,1154.20 1305.84,1154.24 C1305.86,1154.25 1305.79,1154.36 1305.65,1154.55" fill="none" stroke="rgb(0, 0, 0)" stroke-width="10.00" stroke-opacity="1.00" stroke-linejoin="round"/>
<path d="M1110.50,1153.19 C1112.47,1152.09 1116.94,1148.64 1119.61,1146.59 C1124.39,1142.98 1140.17,1132.93 1144.28,1130.61 C1150.81,1126.95 1166.10,1120.00 1169.01,1118.83 C1170.70,1118.15 1175.32,1116.52 1176.45,1116.13 C1176.68,1116.05 1176.89,1115.98 1177.09,1115.92" fill="none" stroke="rgb(0, 0, 0)" stroke-width="10.00" stroke-opacity="1.00" stroke-linejoin="round"/>
<path d="M1338.13,1107.48 C1339.03,1107.21 1339.66,1107.02 1340.02,1106.92 C1341.30,1106.58 1344.64,1105.82 1345.84,1105.79 C1350.46,1105.70 1373.16,1110.53 1378.36,1111.95 C1398.28,1117.46 1408.86,1122.96 1409.41,1123.48 C1409.81,1123.88 1410.29,1124.49 1410.85,1125.33 C1410.96,1125.51 1410.98,1125.58 1410.90,1125.55" fill="none" stroke="rgb(0, 0, 0)" stroke-width="10.00" stroke-opacity="1.00" stroke-linejoin="round"/>
</g>
</svg>
