<?xml version="1.0" encoding="UTF-8" standalone="no"?>
<!DOCTYPE svg PUBLIC "-//W3C//DTD SVG 1.1//EN" "http://www.w3.org/Graphics/SVG/1.1/DTD/svg11.dtd">
<svg width="595.34" height="419.45" viewBox="0.00 0.00 2894.00 2039.00" xmlns="http://www.w3.org/2000/svg" xmlns:xlink="http://www.w3.org/1999/xlink">
<g stroke-linecap="round" id="レイヤー_5">
<path d="M1355.69,1632.48 C1354.92,1634.75 1354.21,1635.80 1352.63,1636.60 C1348.71,1638.56 1344.99,1639.85 1341.95,1640.28 C1338.53,1640.75 1321.66,1641.58 1313.71,1641.40 C1307.29,1641.24 1288.65,1639.26 1283.99,1638.51 C1277.44,1637.46 1259.35,1633.27 1253.26,1631.59 C1244.01,1628.88 1231.38,1624.30 1221.98,1620.47 C1211.69,1616.07 1201.36,1611.14 1195.94,1607.04 C1193.85,1605.45 1187.02,1599.55 1185.09,1597.48 C1183.14,1595.36 1178.74,1589.25 1177.38,1586.76 C1176.03,1584.25 1173.46,1577.55 1172.82,1574.84 C1172.19,1572.12 1171.52,1564.97 1171.58,1561.93 C1171.77,1554.71 1174.74,1541.56 1177.39,1534.91 C1179.78,1528.97 1187.64,1515.58 1191.95,1510.40 C1196.22,1505.32 1208.14,1493.75 1212.86,1489.69 C1217.70,1485.53 1228.89,1477.03 1234.83,1473.25 C1241.18,1469.22 1251.06,1463.89 1260.41,1459.45 C1267.25,1456.39 1281.52,1450.64 1288.81,1447.94 C1296.24,1445.39 1311.42,1440.61 1319.07,1438.49 C1329.79,1435.74 1338.59,1433.86 1348.17,1432.19 C1357.58,1430.76 1368.31,1429.68 1377.72,1429.08 C1382.56,1428.83 1402.18,1428.96 1407.97,1429.47 C1415.51,1430.16 1428.58,1432.38 1435.65,1434.34 C1442.87,1436.36 1456.17,1441.44 1463.06,1444.71 C1470.16,1448.11 1481.74,1454.91 1488.22,1459.94 C1495.31,1465.49 1502.53,1471.87 1509.54,1480.06 C1512.34,1483.43 1517.58,1489.86 1520.01,1492.90 C1523.03,1496.76 1526.03,1501.66 1527.57,1505.68 C1528.95,1509.40 1531.06,1516.67 1531.49,1520.64 C1532.28,1528.48 1531.25,1543.24 1529.55,1549.33 C1528.10,1554.43 1521.84,1565.85 1517.25,1572.18 C1513.56,1577.25 1503.02,1589.43 1497.85,1594.27 C1492.93,1598.84 1480.40,1607.44 1473.86,1611.11 C1468.03,1614.32 1455.35,1620.22 1449.39,1622.40 C1442.21,1625.00 1431.54,1628.03 1421.13,1630.42 C1416.38,1631.44 1398.31,1634.33 1390.48,1634.90 C1379.79,1635.50 1368.29,1635.53 1361.42,1635.35 C1355.97,1635.13 1339.75,1633.36 1334.17,1632.32 C1325.85,1630.76 1314.67,1627.68 1303.90,1624.01 C1296.80,1621.53 1286.97,1617.30 1277.40,1612.55 C1270.15,1608.83 1253.29,1599.90 1249.99,1597.68 C1247.98,1596.33 1243.58,1591.79 1241.48,1589.22 C1238.16,1585.09 1235.21,1579.77 1233.79,1575.35 C1232.69,1571.82 1231.82,1565.22 1231.78,1562.45 C1231.76,1559.30 1232.99,1552.14 1234.05,1548.67 C1235.15,1545.13 1238.46,1537.98 1240.10,1535.07 C1243.65,1528.82 1254.03,1516.59 1259.73,1511.28 C1264.22,1507.12 1276.86,1497.38 1282.44,1493.78 C1289.70,1489.19 1302.08,1482.38 1308.93,1479.21 C1316.08,1475.99 1329.51,1471.14 1337.42,1469.13 C1345.33,1467.13 1358.41,1464.88 1366.06,1464.19 C1373.67,1463.52 1388.65,1463.63 1395.26,1464.49 C1401.99,1465.39 1418.26,1470.33 1422.29,1472.32 C1426.89,1474.62 1435.65,1481.33 1442.17,1488.33 C1445.07,1491.47 1449.32,1497.03 1451.25,1500.23 C1452.75,1502.75 1456.12,1509.51 1457.44,1513.04 C1458.77,1516.63 1460.78,1524.32 1461.24,1527.96 C1461.66,1531.49 1461.86,1538.82 1461.51,1542.26 C1461.12,1545.81 1459.75,1552.37 1458.58,1555.50 C1457.32,1558.79 1454.25,1564.51 1452.09,1567.21 C1447.71,1572.64 1435.34,1582.68 1429.04,1586.54 C1422.47,1590.54 1410.65,1596.48 1403.60,1599.28 C1397.18,1601.82 1382.66,1605.81 1375.29,1606.91 C1367.56,1608.05 1352.89,1608.78 1346.99,1608.53 C1338.89,1608.16 1323.98,1605.42 1318.30,1603.28 C1314.94,1601.99 1307.75,1598.03 1305.26,1595.34 C1303.97,1593.90 1302.45,1590.93 1302.21,1589.36 C1301.99,1587.65 1302.40,1585.04 1303.08,1583.47 C1304.48,1580.39 1307.60,1576.04 1310.12,1573.36 C1314.11,1569.17 1325.62,1560.41 1331.38,1556.64 C1339.92,1551.23 1350.10,1545.54 1357.46,1542.10 C1363.03,1539.51 1379.47,1533.37 1385.74,1531.56 C1399.04,1527.74 1415.04,1526.72 1418.45,1526.89 C1420.41,1526.99 1421.79,1527.57 1423.54,1528.84 C1423.16,1531.16 1422.56,1532.56 1421.20,1533.67 C1418.78,1535.62 1413.12,1538.59 1410.76,1539.47 C1405.21,1541.51 1392.39,1543.92 1384.05,1544.30 C1361.01,1545.08 1344.72,1544.12 1337.57,1542.79 C1333.69,1542.02 1330.58,1540.61 1327.04,1538.32 C1329.63,1536.44 1336.06,1531.76 1339.90,1528.97 C1341.41,1527.88 1344.00,1525.99 1345.09,1525.20" fill="none" stroke="rgb(255, 255, 255)" stroke-width="120.00" stroke-opacity="1.00" stroke-linejoin="round"/>
<path d="M1377.28,1357.45 C1377.38,1356.65 1372.25,1351.73 1369.61,1349.29 C1365.24,1345.31 1361.18,1341.96 1359.05,1340.91 C1356.12,1339.51 1350.52,1337.70 1348.01,1337.30 C1344.71,1336.80 1325.01,1335.81 1317.41,1336.36 C1309.50,1336.97 1296.78,1339.90 1287.74,1342.70 C1281.59,1344.70 1267.31,1349.99 1257.98,1353.97 C1244.03,1360.20 1216.92,1374.03 1203.87,1382.14 C1196.13,1387.11 1187.10,1393.67 1178.42,1400.60 C1172.47,1405.66 1159.20,1417.15 1155.99,1420.25 C1151.17,1424.92 1144.81,1433.93 1140.76,1441.13 C1137.79,1446.44 1132.62,1459.26 1131.08,1465.94 C1128.15,1478.84 1128.11,1501.82 1128.90,1507.39 C1129.71,1512.74 1136.51,1528.13 1139.57,1533.08 C1142.58,1537.88 1154.36,1550.02 1159.70,1553.48 C1165.40,1557.14 1175.92,1561.22 1187.73,1565.12 C1194.20,1567.22 1205.59,1570.91 1214.01,1572.86 C1221.09,1574.45 1237.16,1577.94 1243.67,1578.88 C1252.72,1580.16 1261.29,1580.02 1271.84,1579.56 C1271.25,1576.55 1268.12,1571.81 1266.52,1570.12 C1265.06,1568.59 1258.44,1563.01 1255.94,1560.37 C1250.89,1554.98 1242.54,1542.43 1239.68,1535.48 C1236.82,1528.44 1233.25,1515.96 1232.51,1507.96 C1231.83,1500.45 1232.40,1486.68 1233.48,1479.28 C1234.61,1471.73 1238.26,1457.87 1240.86,1450.22 C1243.96,1441.65 1248.93,1429.91 1250.99,1425.94 C1254.40,1419.43 1262.62,1406.97 1268.38,1400.29 C1273.61,1394.43 1287.56,1379.05 1289.72,1376.80 C1294.63,1371.72 1305.41,1362.38 1310.77,1358.69 C1314.49,1356.14 1330.43,1346.51 1337.13,1342.73 C1343.70,1339.14 1358.19,1333.05 1363.92,1331.17 C1371.30,1328.77 1382.63,1327.08 1393.16,1326.57 C1409.18,1326.15 1447.60,1325.33 1454.90,1326.39 C1461.53,1327.38 1477.13,1331.75 1484.27,1334.75 C1501.37,1342.07 1521.98,1349.31 1540.00,1354.70 C1553.11,1358.84 1586.67,1372.18 1594.26,1376.25 C1599.39,1379.02 1614.36,1388.86 1620.95,1393.20 C1629.57,1398.91 1639.01,1406.46 1644.99,1412.46 C1650.65,1418.25 1659.21,1428.54 1662.82,1433.50 C1667.79,1440.38 1673.99,1451.31 1676.67,1459.13 C1678.99,1465.96 1681.66,1478.30 1681.98,1485.57 C1682.29,1494.39 1681.85,1508.55 1680.49,1513.84 C1679.03,1519.37 1673.21,1530.71 1669.50,1536.57 C1665.55,1542.78 1659.56,1549.79 1650.95,1558.35 C1640.52,1568.38 1635.91,1572.62 1629.58,1577.20 C1623.65,1581.48 1610.32,1591.09 1603.74,1595.68 C1594.68,1601.81 1588.69,1605.00 1578.07,1609.82 C1570.52,1613.27 1553.20,1621.18 1550.26,1622.08 C1546.91,1623.10 1526.29,1628.09 1521.98,1628.90 C1514.04,1630.36 1499.89,1631.73 1491.00,1631.95 C1483.76,1631.94 1469.42,1631.84 1464.26,1631.33 C1461.63,1631.06 1453.59,1629.55 1450.95,1628.60 C1448.23,1627.60 1441.44,1623.61 1438.62,1621.41 C1435.36,1618.82 1430.84,1614.24 1428.39,1611.00 C1426.29,1608.21 1422.89,1602.37 1421.73,1599.91 C1419.41,1594.96 1415.95,1581.09 1415.04,1573.56 C1414.26,1567.01 1414.48,1552.56 1415.79,1544.82 C1416.87,1538.58 1421.07,1525.35 1424.16,1518.97 C1427.44,1512.25 1435.16,1499.86 1438.65,1494.95 C1442.43,1489.65 1452.90,1477.28 1457.92,1472.52 C1463.50,1467.25 1474.86,1458.41 1481.64,1454.31 C1488.36,1450.27 1500.65,1444.20 1507.12,1441.42 C1512.89,1438.99 1528.27,1433.96 1533.67,1432.60 C1540.62,1430.91 1553.62,1428.45 1561.07,1427.66 C1577.39,1426.08 1597.03,1427.36 1603.52,1428.63 C1606.92,1429.32 1614.03,1431.72 1617.59,1433.39 C1621.01,1435.03 1626.90,1439.06 1629.88,1441.59 C1632.61,1443.94 1637.26,1449.11 1639.27,1451.84 C1641.24,1454.56 1644.39,1460.47 1645.63,1463.53 C1647.78,1468.95 1649.73,1482.51 1649.39,1490.02 C1649.21,1493.50 1648.00,1500.78 1647.14,1504.10 C1646.21,1507.56 1643.30,1514.60 1641.57,1517.74 C1638.70,1522.89 1629.60,1533.71 1624.79,1538.36 C1619.58,1543.38 1607.98,1552.77 1603.70,1555.66 C1598.03,1559.47 1585.68,1565.97 1578.15,1568.88 C1571.34,1571.49 1556.93,1575.68 1550.79,1576.91 C1543.67,1578.33 1528.75,1580.10 1522.81,1579.99 C1518.45,1579.88 1511.10,1578.62 1508.60,1577.36 C1507.62,1576.84 1505.08,1575.05 1504.47,1574.30 C1503.38,1572.91 1502.00,1569.64 1501.70,1567.77 C1501.42,1565.74 1502.51,1559.78 1504.09,1556.68 C1505.82,1553.35 1509.78,1548.24 1512.70,1545.29 C1517.24,1540.75 1528.87,1531.80 1534.18,1528.54 C1540.40,1524.74 1551.88,1519.11 1558.45,1516.64 C1564.04,1514.55 1578.37,1510.97 1584.55,1509.99 C1592.73,1508.72 1607.76,1508.39 1612.76,1509.75 C1614.74,1510.33 1618.21,1511.93 1619.25,1512.90 C1621.21,1514.79 1622.38,1520.60 1622.12,1523.85 C1621.85,1526.69 1619.38,1533.87 1617.58,1537.23 C1614.76,1542.44 1605.48,1553.38 1600.31,1558.04 C1595.75,1562.13 1581.73,1571.70 1575.94,1575.42 C1569.96,1579.15 1557.89,1586.11 1551.72,1589.39 C1545.62,1592.48 1529.51,1599.94 1524.12,1601.92 C1516.79,1604.60 1504.43,1608.25 1496.31,1609.76 C1494.95,1610.01 1486.02,1611.45 1483.76,1611.50 C1477.45,1611.57 1464.67,1607.62 1453.30,1603.11 C1451.96,1602.58 1449.58,1601.64 1448.55,1601.23" fill="none" stroke="rgb(255, 255, 255)" stroke-width="120.00" stroke-opacity="1.00" stroke-linejoin="round"/>
<path d="M1240.81,1364.39 C1231.73,1364.51 1222.79,1365.59 1215.16,1367.76 C1210.15,1369.20 1195.35,1374.65 1188.49,1378.05 C1181.87,1381.35 1142.97,1405.29 1137.13,1409.45 C1130.71,1414.05 1123.50,1420.42 1115.61,1428.16 C1110.18,1433.56 1099.52,1444.23 1095.16,1449.04 C1090.37,1454.37 1082.01,1466.61 1078.52,1473.45 C1076.05,1478.32 1068.43,1496.93 1066.81,1502.15 C1065.27,1507.15 1061.77,1523.07 1060.95,1528.71 C1059.62,1538.76 1058.85,1547.14 1058.42,1556.21 C1058.16,1563.74 1059.19,1577.43 1061.11,1585.02 C1062.67,1591.06 1068.94,1604.75 1073.11,1610.86 C1074.92,1613.50 1079.06,1618.64 1081.30,1620.74 C1085.35,1624.47 1097.51,1631.85 1104.91,1634.84 C1106.65,1635.53 1125.24,1642.34 1133.40,1644.51 C1140.65,1646.42 1178.22,1653.93 1192.81,1657.35 C1207.14,1660.71 1236.54,1666.69 1252.02,1669.67 C1267.01,1672.35 1298.06,1677.72 1312.26,1679.81 C1328.19,1681.74 1357.36,1682.95 1373.27,1683.13 C1389.62,1683.09 1424.58,1682.62 1434.28,1682.05 C1453.19,1680.51 1483.71,1676.64 1493.13,1675.87 C1507.04,1674.93 1540.44,1673.01 1556.92,1671.98 C1564.69,1671.32 1580.01,1669.85 1587.55,1668.90 C1595.39,1667.75 1611.78,1664.77 1619.73,1663.09 C1630.03,1660.76 1640.79,1657.86 1647.34,1655.12 C1652.92,1652.77 1668.10,1645.59 1672.52,1643.06 C1678.24,1639.77 1691.03,1630.77 1696.46,1626.08 C1699.58,1623.37 1712.55,1610.83 1718.02,1605.17 C1723.47,1599.34 1733.96,1587.32 1739.08,1581.33 C1746.34,1572.26 1752.71,1562.97 1755.09,1556.04 C1756.23,1552.56 1756.88,1545.11 1756.18,1541.14 C1755.71,1538.70 1753.06,1531.81 1751.74,1529.66 C1750.12,1527.05 1745.63,1522.66 1743.80,1521.09 C1743.13,1520.37 1742.54,1518.19 1742.41,1516.27 C1742.35,1515.33 1742.19,1511.28 1742.15,1510.03" fill="none" stroke="rgb(255, 255, 255)" stroke-width="120.00" stroke-opacity="1.00" stroke-linejoin="round"/>
<path d="M1250.19,1322.34 C1250.23,1320.20 1249.14,1316.56 1246.79,1313.68 C1245.35,1311.96 1239.31,1307.50 1238.74,1307.23 C1236.96,1306.46 1234.04,1306.10 1232.41,1306.48 C1229.19,1307.29 1215.41,1312.38 1206.35,1314.63 C1198.53,1316.58 1186.02,1321.95 1180.08,1324.52 C1174.37,1326.93 1158.31,1333.51 1155.86,1334.59 C1152.08,1336.26 1136.76,1344.20 1130.10,1347.80 C1120.81,1352.93 1112.50,1357.84 1106.61,1363.03 C1102.63,1366.57 1093.97,1379.56 1091.87,1383.78 C1089.79,1387.99 1083.88,1404.08 1082.72,1407.72 C1080.07,1416.07 1077.03,1429.00 1076.54,1434.12 C1074.92,1450.28 1071.92,1479.69 1070.54,1492.94" fill="none" stroke="rgb(255, 255, 255)" stroke-width="50.00" stroke-opacity="1.00" stroke-linejoin="round"/>
<path d="M1195.45,1327.49 C1192.73,1326.34 1187.56,1325.66 1184.94,1325.39 C1184.26,1325.32 1173.48,1324.42 1171.37,1324.39 C1167.56,1324.36 1160.29,1325.46 1156.87,1326.61 C1151.77,1328.35 1140.05,1334.43 1133.03,1338.94 C1120.33,1347.37 1098.25,1360.91 1085.06,1370.25 C1079.69,1374.36 1073.48,1379.09 1061.68,1387.11 C1052.92,1393.31 1044.14,1400.27 1039.33,1405.81 C1035.56,1410.19 1027.81,1422.89 1025.49,1428.82 C1023.21,1434.75 1019.75,1447.79 1018.50,1455.11 C1017.46,1461.23 1016.28,1476.64 1016.54,1482.79 C1016.76,1487.48 1018.80,1506.64 1019.72,1509.16 C1021.98,1515.14 1043.60,1541.09 1047.73,1546.03" fill="none" stroke="rgb(255, 255, 255)" stroke-width="50.00" stroke-opacity="1.00" stroke-linejoin="round"/>
<path d="M1086.67,1390.91 C1085.33,1389.93 1084.39,1389.56 1082.28,1389.34 C1077.16,1388.77 1071.17,1388.59 1068.32,1389.15 C1067.28,1389.36 1059.97,1391.47 1055.86,1392.15 C1051.68,1392.80 1043.30,1394.19 1040.03,1395.47 C1037.23,1396.60 1032.08,1400.21 1029.16,1402.97 C1026.88,1405.16 1015.96,1416.48 1009.57,1422.09 C1000.45,1429.80 994.73,1435.27 987.66,1442.97 C983.66,1447.45 974.76,1458.19 969.52,1464.25 C966.81,1467.31 956.85,1477.91 952.19,1484.44 C946.36,1492.46 937.11,1503.91 935.92,1505.61 C934.49,1507.65 931.43,1513.22 929.93,1515.33 C928.27,1517.62 922.65,1523.14 921.30,1525.29 C920.11,1527.21 917.63,1533.26 917.22,1535.72 C916.75,1538.92 917.47,1543.94 918.85,1547.07 C920.07,1549.76 924.13,1555.27 926.17,1557.37 C928.54,1559.77 934.96,1564.51 938.37,1566.42 C941.89,1568.36 947.86,1570.58 952.63,1571.93 C954.60,1572.51 955.75,1572.53 957.82,1572.18 C958.94,1570.42 959.26,1569.31 958.98,1567.31 C957.56,1556.12 956.97,1547.44 957.55,1540.50 C957.87,1536.88 959.08,1530.92 960.12,1527.81 C961.34,1524.26 964.52,1519.04 967.83,1515.62 C970.57,1512.85 974.07,1511.21 977.42,1510.74 C980.25,1510.39 985.34,1511.45 987.77,1512.81 C990.22,1514.23 994.60,1518.62 996.38,1521.45 C998.17,1524.36 1000.69,1531.16 1001.34,1534.91 C1001.95,1538.68 1001.88,1546.30 1001.18,1549.80 C1000.45,1553.22 997.85,1559.09 996.06,1561.34 C994.22,1563.58 989.69,1566.56 987.29,1566.99 C984.79,1567.39 979.93,1565.68 977.72,1563.51 C975.40,1561.14 972.04,1554.54 971.12,1551.25 C969.42,1544.94 968.58,1530.78 969.61,1523.43 C970.06,1520.29 971.71,1513.51 972.78,1510.76 C974.09,1507.48 977.33,1502.17 979.64,1500.06 C982.09,1497.88 987.90,1495.82 990.90,1496.14 C993.80,1496.51 999.02,1499.43 1001.48,1501.63 C1003.52,1503.51 1007.26,1508.61 1008.56,1511.12 C1009.81,1513.55 1011.91,1519.71 1012.42,1522.56 C1012.95,1525.60 1013.20,1530.41 1013.02,1533.80 C1012.82,1537.02 1011.12,1544.12 1009.20,1547.22 C1007.23,1550.28 1001.86,1554.00 998.67,1554.73 C996.99,1555.08 994.51,1555.16 993.11,1554.89 C991.69,1554.57 989.27,1553.33 988.09,1552.24 C985.72,1549.95 982.62,1543.06 981.61,1539.56 C980.09,1534.15 978.54,1519.44 978.62,1512.47 C978.68,1508.48 979.43,1500.72 980.11,1497.58 C980.91,1494.04 982.86,1489.15 984.67,1486.19 C986.25,1483.64 990.52,1479.15 992.09,1478.26 C995.18,1476.57 1001.22,1476.16 1004.22,1476.85 C1006.97,1477.54 1013.33,1481.37 1016.28,1483.97 C1020.16,1487.46 1028.33,1498.54 1032.47,1505.46 C1036.26,1511.84 1041.77,1523.50 1044.09,1530.55 C1045.50,1534.90 1048.63,1549.95 1048.76,1550.84 C1048.95,1552.15 1049.07,1554.05 1049.08,1554.95" fill="none" stroke="rgb(255, 255, 255)" stroke-width="50.00" stroke-opacity="1.00" stroke-linejoin="round"/>
<path d="M1503.15,1305.99 C1501.62,1306.04 1498.42,1304.04 1496.15,1301.66 C1494.80,1300.22 1492.66,1297.69 1492.23,1296.84 C1491.58,1295.49 1491.44,1293.63 1491.78,1291.79 C1492.71,1287.40 1494.24,1284.24 1496.81,1281.37 C1498.33,1279.77 1501.98,1279.11 1506.90,1279.02 C1514.48,1279.00 1533.64,1278.76 1537.27,1279.84 C1537.43,1279.89 1546.17,1283.18 1549.01,1283.83 C1551.02,1284.27 1563.91,1286.26 1572.69,1288.66 C1583.06,1291.56 1592.61,1295.19 1600.42,1299.53 C1601.83,1300.33 1604.17,1301.66 1605.10,1302.19 C1605.10,1302.19 1595.99,1305.39 1595.99,1305.39" fill="none" stroke="rgb(255, 255, 255)" stroke-width="50.00" stroke-opacity="1.00" stroke-linejoin="round"/>
<path d="M1514.07,1314.58 C1511.98,1313.99 1509.22,1313.14 1508.34,1312.71 C1507.36,1312.21 1506.75,1310.70 1506.58,1308.93 C1506.23,1303.78 1507.02,1297.44 1509.13,1294.75 C1510.57,1292.98 1516.54,1288.17 1518.91,1286.65 C1521.72,1284.89 1526.39,1282.88 1529.95,1281.83 C1536.22,1280.02 1546.34,1279.25 1552.06,1280.04 C1555.33,1280.51 1571.87,1286.00 1578.15,1288.76 C1590.82,1294.35 1595.06,1295.88 1603.81,1298.05 C1610.29,1299.67 1623.95,1304.32 1629.89,1307.77 C1634.60,1310.52 1646.39,1320.01 1652.38,1325.87 C1659.30,1332.66 1679.25,1355.65 1691.10,1370.50 C1700.75,1383.02 1720.49,1409.02 1729.92,1422.11 C1734.90,1429.20 1741.94,1439.95 1744.46,1444.23 C1746.36,1447.48 1754.44,1463.33 1756.76,1469.30 C1758.89,1474.81 1763.22,1488.86 1764.68,1496.27 C1766.18,1503.99 1766.73,1513.77 1766.36,1514.71 C1765.91,1515.73 1763.70,1516.90 1763.08,1517.18 C1762.59,1517.38 1761.58,1517.89 1760.03,1518.69" fill="none" stroke="rgb(255, 255, 255)" stroke-width="50.00" stroke-opacity="1.00" stroke-linejoin="round"/>
<path d="M1547.81,1324.97 C1544.77,1324.34 1539.43,1322.09 1536.25,1319.70 C1535.04,1318.77 1532.93,1316.47 1532.24,1315.39 C1531.09,1313.47 1530.52,1307.96 1530.69,1303.75 C1530.80,1301.87 1531.66,1298.68 1532.59,1297.25 C1534.02,1295.11 1543.38,1287.46 1544.00,1286.94 C1545.86,1285.43 1549.46,1284.76 1553.37,1284.41 C1557.34,1284.08 1575.41,1283.93 1579.15,1284.47 C1583.04,1285.06 1598.56,1290.95 1605.81,1294.67 C1612.19,1297.94 1626.86,1302.11 1631.85,1304.51 C1633.16,1305.14 1642.18,1309.96 1645.02,1311.01 C1651.12,1313.07 1667.74,1321.73 1671.70,1325.05 C1672.85,1326.05 1672.87,1327.11 1671.73,1327.46 C1671.45,1327.54 1666.08,1328.17 1665.00,1328.36" fill="none" stroke="rgb(255, 255, 255)" stroke-width="50.00" stroke-opacity="1.00" stroke-linejoin="round"/>
<path d="M1595.61,1326.99 C1593.14,1326.14 1591.98,1325.18 1591.57,1323.27 C1590.89,1320.01 1591.18,1314.59 1592.39,1312.20 C1593.09,1310.86 1594.31,1309.18 1595.33,1308.13 C1597.20,1306.30 1602.27,1304.60 1606.39,1303.91 C1614.09,1302.68 1626.97,1302.70 1633.42,1303.56 C1636.82,1304.02 1646.14,1305.84 1648.16,1306.34 C1652.34,1307.40 1664.46,1316.11 1669.10,1317.85 C1672.44,1318.93 1679.11,1321.23 1682.57,1323.16 C1684.19,1324.06 1700.26,1332.96 1704.70,1336.84 C1714.45,1345.44 1721.42,1352.34 1726.03,1358.57 C1730.55,1364.76 1753.09,1397.71 1762.62,1411.86 C1767.18,1419.01 1775.82,1432.79 1779.61,1439.15 C1783.20,1445.48 1790.00,1458.44 1793.53,1466.14 C1796.03,1471.83 1803.49,1490.66 1804.26,1492.86 C1806.81,1500.12 1811.00,1517.61 1811.84,1523.72 C1812.10,1525.76 1812.05,1529.11 1811.71,1530.64 C1811.56,1531.28 1808.52,1539.73 1807.45,1543.41" fill="none" stroke="rgb(255, 255, 255)" stroke-width="50.00" stroke-opacity="1.00" stroke-linejoin="round"/>
<path d="M1724.11,1420.22 C1722.00,1420.06 1718.75,1419.42 1717.22,1418.67 C1715.93,1418.03 1711.06,1411.91 1708.90,1409.56 C1706.41,1406.82 1703.67,1401.84 1701.45,1396.94 C1699.60,1392.70 1696.81,1385.08 1696.11,1382.22 C1695.00,1377.49 1694.80,1369.78 1695.00,1366.36 C1695.23,1362.85 1696.47,1357.22 1698.49,1353.93 C1700.31,1351.06 1705.40,1346.11 1707.74,1344.56 C1710.28,1342.91 1716.39,1341.05 1719.77,1341.14 C1723.28,1341.31 1727.28,1343.37 1731.00,1345.99 C1739.08,1351.77 1770.56,1378.93 1773.24,1381.78 C1777.23,1386.05 1784.37,1396.87 1789.71,1405.96 C1793.66,1412.92 1801.18,1426.43 1804.18,1432.20 C1806.96,1437.83 1813.69,1453.37 1815.60,1459.05 C1818.24,1467.14 1821.13,1478.88 1822.29,1486.15 C1823.43,1493.39 1824.45,1504.67 1824.95,1515.46 C1825.30,1525.00 1825.47,1536.53 1824.69,1537.19 C1823.87,1537.76 1821.54,1536.98 1819.22,1535.54 C1817.60,1534.51 1815.79,1533.42 1814.52,1532.69" fill="none" stroke="rgb(255, 255, 255)" stroke-width="50.00" stroke-opacity="1.00" stroke-linejoin="round"/>
<path d="M1771.66,1397.63 C1772.13,1396.43 1773.18,1394.77 1774.21,1394.38 C1776.58,1393.51 1784.05,1395.07 1786.68,1396.46 C1789.03,1397.73 1796.18,1402.29 1798.15,1403.75 C1803.53,1407.81 1811.79,1418.81 1815.98,1425.69 C1819.39,1431.26 1832.53,1447.17 1833.93,1448.85 C1839.48,1455.48 1845.43,1465.50 1848.26,1472.26 C1851.54,1480.15 1854.10,1492.61 1854.87,1502.35 C1855.51,1511.62 1854.14,1522.77 1853.72,1523.89 C1853.50,1524.45 1847.84,1531.96 1845.94,1534.44" fill="none" stroke="rgb(255, 255, 255)" stroke-width="50.00" stroke-opacity="1.00" stroke-linejoin="round"/>
<path d="M1840.15,1465.55 C1841.75,1468.05 1845.82,1472.06 1847.30,1474.65 C1850.36,1480.13 1854.93,1492.63 1857.94,1501.75 C1860.28,1509.02 1861.96,1522.96 1862.04,1528.92 C1862.10,1536.52 1860.24,1545.88 1856.92,1556.20 C1855.57,1560.41 1853.80,1565.94 1853.39,1567.25" fill="none" stroke="rgb(255, 255, 255)" stroke-width="50.00" stroke-opacity="1.00" stroke-linejoin="round"/>
<path d="M933.30,1532.36 C929.74,1533.43 924.31,1535.41 923.17,1535.62 C922.07,1535.83 916.16,1535.81 914.51,1536.51 C911.63,1537.77 909.43,1539.48 909.48,1539.68 C910.60,1539.77 915.91,1535.79 917.16,1534.78 C920.05,1532.41 920.98,1530.95 922.10,1528.82 C920.03,1528.41 915.54,1529.60 911.75,1531.84 C908.62,1533.74 895.20,1547.77 890.04,1553.03 C887.49,1555.73 884.42,1559.82 883.37,1562.07 C882.98,1562.94 876.93,1578.52 876.84,1579.76 C876.81,1580.73 877.77,1582.85 878.75,1583.81 C880.03,1585.00 882.57,1586.25 884.40,1586.60 C889.52,1587.49 907.45,1587.26 912.45,1589.16 C914.37,1589.94 916.58,1591.71 917.76,1593.46 C918.56,1594.67 922.24,1603.20 923.95,1606.61 C924.95,1608.61 926.13,1610.09 927.91,1611.84 C920.23,1606.79 912.63,1602.64 906.75,1601.00 C914.35,1604.70 920.10,1606.81 927.69,1608.07 C935.66,1609.30 965.71,1609.35 970.33,1610.53 C974.58,1611.67 990.17,1619.47 997.23,1623.00 C1006.97,1627.64 1015.82,1631.11 1023.16,1633.08 C1030.20,1634.96 1042.91,1637.30 1050.54,1637.53 C1058.73,1637.74 1071.70,1636.22 1081.28,1633.78 C1085.11,1632.77 1091.04,1630.37 1092.01,1629.65 C1093.43,1628.52 1094.20,1627.65 1094.32,1627.04 C1094.36,1626.75 1087.97,1621.45 1085.38,1619.14" fill="none" stroke="rgb(255, 255, 255)" stroke-width="50.00" stroke-opacity="1.00" stroke-linejoin="round"/>
<path d="M970.37,1571.68 C976.11,1577.06 986.28,1585.15 991.82,1588.62 C998.55,1592.75 1009.03,1597.96 1016.30,1600.79 C1023.84,1603.72 1036.31,1607.33 1045.73,1608.98 C1049.84,1609.66 1059.69,1610.47 1060.55,1610.18 C1060.89,1610.06 1061.41,1609.66 1062.12,1608.98 C1061.82,1606.88 1061.23,1605.68 1059.45,1604.15 C1056.37,1601.51 1054.59,1600.10 1052.79,1598.86 C1050.04,1596.98 1043.95,1593.63 1042.72,1592.95" fill="none" stroke="rgb(255, 255, 255)" stroke-width="50.00" stroke-opacity="1.00" stroke-linejoin="round"/>
<path d="M861.14,1589.50 C860.80,1589.50 860.46,1589.50 860.12,1589.50 C858.84,1589.54 856.75,1589.39 856.55,1589.52 C855.77,1590.02 854.54,1595.86 854.39,1601.37 C854.36,1602.78 854.35,1605.95 854.33,1606.83 C854.33,1607.97 855.37,1610.82 856.29,1612.13 C857.04,1613.17 862.61,1615.12 865.90,1614.89 C868.07,1614.71 875.44,1612.91 877.31,1611.35 C877.58,1611.12 877.91,1610.75 878.30,1610.23" fill="none" stroke="rgb(255, 255, 255)" stroke-width="17.00" stroke-opacity="1.00" stroke-linejoin="round"/>
<path d="M954.24,1615.31 C952.71,1614.68 950.59,1614.04 950.13,1614.34 C949.72,1614.63 950.07,1617.72 950.13,1618.52 C950.46,1621.71 950.83,1622.71 952.59,1624.85 C955.95,1628.87 958.91,1631.44 961.97,1633.38 C967.86,1637.11 980.35,1646.16 986.42,1650.64 C992.46,1654.94 1002.92,1660.06 1010.80,1663.07 C1020.29,1666.53 1031.03,1669.79 1039.77,1671.84 C1065.49,1677.40 1105.53,1681.35 1107.87,1681.58" fill="none" stroke="rgb(255, 255, 255)" stroke-width="30.00" stroke-opacity="1.00" stroke-linejoin="round"/>
<path d="M963.69,1621.54 C963.30,1623.63 964.57,1627.35 967.30,1632.41 C969.24,1635.81 972.21,1641.08 973.79,1644.45 C975.64,1648.14 986.68,1659.78 993.68,1665.54 C1001.09,1671.53 1008.39,1676.25 1015.34,1679.48 C1023.46,1683.22 1033.26,1686.39 1043.11,1689.20 C1058.06,1693.25 1077.94,1696.02 1097.58,1697.66 C1114.58,1698.70 1148.74,1700.57 1165.89,1701.41 C1180.11,1702.07 1206.29,1703.28 1218.26,1703.84" fill="none" stroke="rgb(255, 255, 255)" stroke-width="30.00" stroke-opacity="1.00" stroke-linejoin="round"/>
<path d="M1006.67,1660.15 C1007.91,1662.43 1009.16,1663.95 1013.30,1668.23 C1019.46,1674.39 1032.43,1687.22 1036.04,1689.78 C1039.53,1692.21 1051.02,1698.29 1061.19,1703.16 C1067.17,1705.94 1079.85,1710.38 1087.55,1712.50 C1096.91,1714.97 1108.30,1717.37 1116.82,1718.52 C1127.93,1719.94 1166.53,1723.17 1178.50,1723.45 C1187.48,1723.49 1222.06,1721.17 1237.01,1719.88 C1253.65,1718.37 1276.53,1716.33 1282.77,1715.81" fill="none" stroke="rgb(255, 255, 255)" stroke-width="30.00" stroke-opacity="1.00" stroke-linejoin="round"/>
<path d="M1076.71,1688.31 C1078.93,1690.81 1084.49,1694.59 1085.27,1695.08 C1087.72,1696.60 1095.31,1702.80 1096.60,1703.75 C1101.36,1707.24 1115.68,1714.00 1122.22,1717.09 C1128.07,1719.89 1140.41,1726.90 1144.34,1728.28 C1148.56,1729.74 1167.12,1733.51 1171.16,1734.14 C1178.63,1735.31 1194.49,1736.77 1201.19,1737.32 C1219.67,1738.41 1245.14,1738.72 1264.37,1738.16 C1304.28,1735.93 1337.32,1732.69 1344.58,1731.89" fill="none" stroke="rgb(255, 255, 255)" stroke-width="30.00" stroke-opacity="1.00" stroke-linejoin="round"/>
<path d="M1117.06,1700.12 C1120.32,1703.14 1135.30,1713.70 1139.15,1716.13 C1146.77,1720.87 1156.53,1725.91 1167.00,1730.69 C1175.37,1734.34 1193.09,1741.56 1197.40,1742.56 C1197.94,1742.69 1240.24,1750.93 1255.67,1753.74 C1264.73,1755.27 1272.35,1756.25 1281.22,1756.95 C1287.87,1757.24 1301.57,1757.66 1308.64,1757.48 C1323.20,1756.90 1353.67,1753.54 1367.13,1751.14 C1383.87,1747.97 1407.49,1743.51 1414.36,1742.21 C1415.77,1741.94 1418.05,1741.51 1418.92,1741.35" fill="none" stroke="rgb(255, 255, 255)" stroke-width="30.00" stroke-opacity="1.00" stroke-linejoin="round"/>
<path d="M1286.75,1752.83 C1287.28,1752.55 1287.85,1752.93 1289.20,1754.63 C1291.30,1757.24 1295.01,1759.85 1296.92,1760.36 C1301.06,1761.42 1340.25,1763.72 1355.77,1764.02 C1370.93,1764.00 1408.61,1763.93 1413.78,1763.74 C1438.95,1762.33 1504.14,1754.39 1535.23,1750.99 C1542.44,1749.98 1559.38,1746.95 1567.13,1745.22 C1584.39,1741.03 1608.61,1733.88 1622.18,1729.70 C1636.88,1724.96 1678.17,1711.48 1682.57,1709.77 C1687.05,1707.95 1690.29,1706.04 1692.20,1703.18 C1694.03,1700.40 1696.99,1696.63 1698.48,1694.92" fill="none" stroke="rgb(255, 255, 255)" stroke-width="30.00" stroke-opacity="1.00" stroke-linejoin="round"/>
<path d="M1350.10,1743.15 C1353.91,1744.12 1367.38,1744.26 1377.54,1743.89 C1389.43,1743.27 1422.25,1740.26 1434.32,1739.43 C1440.42,1738.91 1482.16,1733.56 1499.15,1731.37 C1515.54,1729.49 1544.98,1726.24 1553.36,1725.93 C1553.36,1725.93 1548.58,1725.49 1548.58,1725.49" fill="none" stroke="rgb(255, 255, 255)" stroke-width="30.00" stroke-opacity="1.00" stroke-linejoin="round"/>
<path d="M1830.19,1534.71 C1830.19,1534.71 1832.95,1529.21 1832.95,1529.21 C1831.45,1535.59 1827.92,1548.37 1826.04,1554.95 C1823.42,1563.65 1818.56,1576.95 1815.50,1583.81 C1809.15,1597.53 1798.97,1618.24 1796.85,1622.48 C1797.03,1621.35 1797.48,1618.61 1797.75,1617.00 C1798.05,1615.42 1798.56,1612.71 1798.77,1611.59" fill="none" stroke="rgb(255, 255, 255)" stroke-width="30.00" stroke-opacity="1.00" stroke-linejoin="round"/>
<path d="M1844.91,1543.24 C1842.81,1546.91 1841.60,1549.58 1840.75,1553.25 C1839.30,1559.59 1835.85,1575.88 1834.10,1584.22 C1831.63,1594.98 1829.39,1603.03 1826.42,1611.79 C1818.49,1634.18 1813.37,1644.74 1812.20,1645.17 C1813.39,1636.48 1814.83,1629.11 1819.21,1617.87 C1836.47,1574.92 1847.93,1557.46 1849.38,1555.31 C1848.91,1565.30 1847.14,1576.08 1844.72,1585.82 C1842.70,1593.39 1837.77,1611.02 1836.59,1614.53 C1834.00,1622.12 1830.58,1629.18 1826.70,1636.86 C1825.69,1633.39 1827.70,1620.21 1830.29,1612.23 C1831.49,1608.56 1838.01,1591.15 1840.75,1584.11 C1843.69,1576.92 1850.71,1561.33 1853.73,1556.59 C1854.60,1555.22 1858.91,1549.16 1860.85,1547.15 C1861.81,1546.19 1864.05,1544.90 1865.28,1544.64 C1866.60,1544.41 1868.10,1546.07 1868.62,1548.00 C1869.12,1550.12 1869.74,1569.23 1869.57,1575.07 C1869.36,1581.98 1867.09,1598.50 1865.47,1605.30 C1863.90,1611.80 1857.09,1630.17 1854.00,1633.68 C1853.09,1634.67 1850.91,1636.13 1850.04,1636.30 C1848.91,1636.46 1847.22,1635.30 1846.35,1633.76 C1844.44,1630.20 1844.14,1615.91 1845.02,1609.03 C1845.81,1603.02 1849.36,1589.97 1852.15,1583.30 C1854.40,1577.96 1861.14,1566.33 1865.15,1561.56 C1868.38,1557.76 1873.04,1553.90 1875.49,1552.90 C1875.95,1552.72 1878.78,1552.01 1879.54,1551.99 C1881.78,1552.00 1883.91,1553.30 1885.23,1555.49 C1886.43,1557.59 1887.35,1574.76 1886.49,1581.33 C1885.50,1588.71 1881.27,1603.74 1877.96,1611.81 C1876.43,1615.50 1872.94,1622.16 1870.93,1625.17 C1868.94,1628.10 1864.30,1632.16 1862.35,1632.65 C1861.29,1632.88 1857.27,1632.90 1856.43,1632.44 C1855.11,1631.66 1853.38,1629.34 1852.72,1627.63 C1851.51,1624.20 1850.83,1617.37 1850.90,1613.89 C1850.99,1610.16 1851.65,1604.46 1852.37,1601.40 C1853.80,1595.53 1860.55,1582.76 1863.82,1578.81 C1865.88,1576.35 1871.92,1571.38 1873.80,1570.14 C1876.73,1568.25 1882.60,1566.81 1885.87,1566.73 C1887.38,1566.72 1889.50,1567.10 1890.53,1567.60 C1893.35,1569.09 1896.30,1572.96 1897.92,1577.42 C1899.30,1581.39 1899.90,1597.64 1899.38,1601.76 C1898.88,1605.43 1896.65,1611.98 1895.35,1614.55 C1893.54,1618.08 1888.88,1624.22 1886.13,1626.53 C1884.88,1627.54 1881.71,1629.70 1880.58,1630.16 C1878.65,1630.90 1874.70,1631.46 1872.82,1631.22 C1871.13,1630.97 1867.76,1629.50 1866.69,1628.50 C1864.53,1626.38 1862.11,1619.02 1862.27,1617.29 C1862.52,1615.10 1863.62,1613.18 1865.34,1612.00 C1866.32,1611.34 1869.70,1608.81 1871.22,1607.72 C1872.50,1606.81 1875.63,1604.61 1877.48,1603.33 C1878.12,1602.87 1878.77,1602.42 1879.41,1601.97" fill="none" stroke="rgb(255, 255, 255)" stroke-width="30.00" stroke-opacity="1.00" stroke-linejoin="round"/>
<path d="M1874.62,1558.21 C1878.31,1557.59 1883.53,1558.22 1889.75,1560.22 C1892.55,1561.01 1896.71,1562.29 1899.09,1564.50 C1902.46,1567.69 1911.68,1577.40 1918.78,1583.52 C1921.55,1585.83 1928.43,1591.45 1929.78,1592.67 C1932.44,1595.10 1936.63,1600.13 1939.59,1604.24 C1942.18,1607.90 1944.15,1612.35 1944.73,1616.06 C1945.13,1618.76 1945.98,1624.61 1945.49,1626.22 C1944.94,1627.88 1942.72,1630.78 1940.75,1632.44 C1939.39,1633.56 1930.86,1637.73 1929.48,1638.11 C1928.10,1638.47 1925.80,1638.29 1925.25,1638.20 C1924.83,1638.12 1923.90,1638.00 1922.46,1637.84" fill="none" stroke="rgb(255, 255, 255)" stroke-width="30.00" stroke-opacity="1.00" stroke-linejoin="round"/>
<path d="M1567.40,1748.56 C1568.71,1748.49 1571.28,1748.22 1573.40,1747.90 C1574.53,1747.73 1583.39,1746.03 1587.67,1745.71 C1590.69,1745.49 1608.48,1745.33 1616.49,1743.87 C1623.10,1742.64 1636.73,1739.16 1644.06,1736.74 C1650.87,1734.35 1666.79,1728.68 1671.34,1726.93 C1677.73,1724.42 1690.73,1717.83 1695.91,1714.48 C1702.34,1710.30 1714.19,1700.80 1717.60,1697.18 C1721.17,1693.37 1731.75,1678.85 1736.21,1672.58 C1741.46,1665.11 1749.74,1654.98 1755.27,1648.94 C1760.29,1643.56 1771.48,1633.07 1778.04,1627.75 C1784.09,1623.03 1799.00,1612.19 1799.23,1611.76 C1799.44,1611.37 1799.80,1610.33 1800.32,1608.64" fill="none" stroke="rgb(255, 255, 255)" stroke-width="30.00" stroke-opacity="1.00" stroke-linejoin="round"/>
<path d="M1659.35,1725.76 C1661.15,1725.80 1664.59,1725.68 1667.32,1725.45 C1669.82,1725.23 1679.23,1723.73 1682.55,1722.82 C1685.63,1721.97 1692.85,1718.83 1693.91,1718.51 C1696.18,1717.84 1703.53,1716.52 1708.14,1715.13 C1713.37,1713.53 1725.51,1708.45 1734.30,1704.18 C1740.46,1701.04 1750.52,1694.96 1757.32,1689.84 C1766.97,1682.26 1792.13,1661.01 1804.37,1650.00 C1815.63,1639.69 1837.83,1619.44 1839.64,1617.46 C1840.87,1616.11 1841.81,1614.89 1843.49,1612.52" fill="none" stroke="rgb(255, 255, 255)" stroke-width="30.00" stroke-opacity="1.00" stroke-linejoin="round"/>
<path d="M1718.33,1695.96 C1719.42,1693.48 1721.35,1690.98 1724.50,1687.94 C1729.57,1683.24 1794.99,1634.01 1813.92,1619.44 C1815.68,1618.12 1818.80,1616.07 1819.95,1615.98 C1820.19,1615.96 1820.40,1616.05 1820.56,1616.24" fill="none" stroke="rgb(255, 255, 255)" stroke-width="30.00" stroke-opacity="1.00" stroke-linejoin="round"/>
<path d="M1748.85,1693.28 C1751.32,1693.11 1752.74,1692.87 1754.02,1692.21 C1757.03,1690.66 1774.96,1680.14 1777.34,1679.03 C1779.37,1677.99 1797.60,1666.97 1802.07,1664.05 C1808.37,1659.88 1815.19,1652.25 1820.21,1647.69 C1823.04,1645.15 1829.78,1640.55 1833.54,1638.36 C1839.27,1635.04 1854.48,1627.39 1860.26,1624.50" fill="none" stroke="rgb(255, 255, 255)" stroke-width="30.00" stroke-opacity="1.00" stroke-linejoin="round"/>
<path d="M1812.20,1648.34 C1814.86,1647.85 1821.07,1646.76 1824.88,1646.24 C1835.59,1644.82 1845.51,1642.89 1850.87,1642.59 C1852.94,1642.48 1870.65,1641.31 1880.11,1639.66 C1887.62,1638.48 1906.92,1635.89 1909.79,1635.19 C1912.24,1634.57 1914.42,1633.68 1915.64,1632.78 C1917.39,1631.42 1921.34,1625.96 1921.79,1623.79 C1919.74,1622.90 1914.28,1623.19 1910.40,1622.43 C1906.49,1621.64 1903.30,1620.14 1901.16,1618.38 C1900.13,1617.50 1899.27,1615.19 1899.22,1613.23 C1899.21,1611.80 1902.07,1607.27 1903.85,1606.09 C1905.79,1604.87 1909.87,1604.92 1911.96,1606.07 C1913.61,1607.06 1916.17,1612.43 1915.86,1614.75 C1915.71,1615.72 1914.04,1618.38 1913.41,1618.74 C1912.52,1619.19 1910.80,1618.36 1910.18,1617.21 C1909.56,1615.93 1910.11,1613.69 1911.37,1612.42 C1912.49,1611.38 1915.37,1610.53 1916.67,1610.92 C1918.12,1611.43 1919.31,1613.54 1918.80,1614.92 C1918.10,1616.60 1915.59,1618.66 1913.99,1618.59 C1912.40,1618.48 1909.71,1617.11 1908.74,1616.10 C1905.65,1612.63 1904.71,1606.55 1904.86,1604.10 C1904.95,1602.70 1905.62,1601.37 1907.15,1599.24 C1909.15,1599.63 1910.34,1600.12 1910.86,1601.06 C1911.95,1603.05 1913.08,1610.89 1913.03,1611.49 C1912.85,1613.16 1911.97,1614.51 1911.01,1614.94 C1909.98,1613.38 1909.41,1612.27 1909.28,1611.25 C1909.13,1609.99 1909.32,1607.61 1909.74,1605.34 C1910.20,1602.95 1910.97,1601.60 1912.31,1600.43 C1913.81,1601.56 1914.44,1602.58 1914.48,1604.41 C1914.55,1609.05 1913.53,1613.98 1911.71,1617.00 C1910.62,1618.76 1901.72,1632.23 1899.78,1635.21" fill="none" stroke="rgb(255, 255, 255)" stroke-width="30.00" stroke-opacity="1.00" stroke-linejoin="round"/>
<path d="M1252.43,1662.82 C1252.69,1665.89 1254.16,1670.00 1256.37,1673.41 C1258.05,1675.94 1260.95,1679.43 1262.10,1680.75 C1262.10,1680.75 1255.96,1662.16 1255.96,1662.16 C1255.96,1662.16 1267.98,1687.06 1267.98,1687.06 C1267.98,1687.06 1262.08,1659.73 1262.08,1659.73 C1262.08,1659.73 1272.12,1691.25 1272.12,1691.25 C1265.25,1668.63 1263.56,1660.53 1263.55,1656.53 C1264.51,1657.44 1271.96,1678.01 1273.09,1683.35 C1273.45,1685.12 1273.36,1685.74 1272.82,1686.16 C1271.18,1684.42 1268.02,1676.89 1267.45,1675.28 C1266.15,1671.50 1264.88,1664.04 1264.77,1660.84 C1264.67,1656.95 1266.05,1651.11 1267.14,1650.91 C1268.24,1651.25 1270.84,1655.89 1271.68,1658.33 C1277.45,1675.35 1278.28,1686.84 1278.24,1687.99 C1277.28,1687.40 1274.32,1680.05 1273.28,1676.38 C1272.39,1673.17 1270.70,1664.07 1270.39,1660.96 C1270.07,1657.52 1270.29,1651.21 1271.10,1649.27 C1272.52,1650.43 1274.51,1655.60 1275.10,1657.74 C1276.52,1662.96 1280.55,1685.88 1280.39,1686.92 C1278.14,1683.85 1274.21,1667.54 1273.58,1659.46 C1273.34,1656.14 1273.57,1650.33 1274.14,1648.21 C1274.14,1648.21 1275.15,1648.40 1275.15,1648.40 C1277.44,1653.47 1280.22,1664.78 1282.58,1676.64 C1283.28,1680.36 1284.49,1686.73 1284.44,1687.60 C1282.14,1684.09 1276.38,1655.84 1275.58,1646.83 C1276.78,1651.24 1279.31,1665.25 1280.32,1674.31 C1281.28,1684.11 1281.41,1687.69 1280.75,1690.39 C1280.75,1690.39 1279.36,1690.60 1279.36,1690.60 C1276.44,1686.30 1274.80,1681.85 1274.03,1677.89 C1272.30,1668.53 1272.65,1659.12 1273.24,1653.75 C1273.63,1650.02 1275.21,1648.46 1275.88,1648.54 C1277.10,1649.44 1279.44,1654.76 1280.31,1657.39 C1283.50,1667.26 1284.74,1686.21 1284.53,1689.90 C1282.11,1686.63 1280.21,1680.83 1279.62,1678.55 C1277.53,1670.31 1276.42,1657.52 1277.15,1653.07 C1277.68,1650.05 1278.57,1648.59 1279.38,1647.77 C1280.34,1647.61 1281.40,1647.92 1282.09,1648.85 C1283.02,1650.11 1286.09,1657.12 1286.56,1659.18 C1287.31,1662.58 1289.42,1682.03 1289.10,1684.18 C1287.08,1682.69 1285.14,1679.32 1283.85,1674.03 C1283.31,1671.74 1282.32,1665.45 1282.22,1661.90 C1282.05,1654.51 1284.02,1650.15 1284.61,1648.96 C1286.77,1649.04 1287.95,1649.53 1288.79,1651.05 C1290.13,1653.50 1292.11,1658.45 1292.72,1661.82 C1293.73,1667.57 1294.49,1679.94 1294.36,1681.88 C1294.17,1684.51 1293.63,1685.74 1292.52,1686.30 C1290.57,1684.23 1289.36,1682.58 1288.49,1680.58 C1286.96,1677.03 1285.35,1670.81 1285.07,1668.82 C1284.60,1665.24 1284.77,1659.05 1285.32,1656.90 C1285.38,1656.70 1286.71,1653.23 1287.22,1653.01 C1288.55,1652.50 1290.70,1653.39 1291.71,1654.84 C1293.96,1658.25 1295.72,1663.08 1296.22,1666.80 C1296.63,1670.15 1297.25,1676.50 1297.14,1678.70 C1297.09,1679.45 1296.15,1682.28 1295.76,1683.07 C1295.44,1683.66 1294.21,1683.96 1293.78,1683.74 C1292.62,1683.02 1289.95,1677.48 1289.42,1673.86 C1288.98,1670.62 1289.82,1664.29 1290.85,1662.37 C1291.21,1661.74 1292.90,1659.59 1293.35,1659.25 C1294.13,1658.72 1296.02,1658.41 1296.96,1658.70 C1298.60,1659.28 1302.30,1664.69 1302.91,1666.60 C1303.29,1667.85 1303.73,1670.93 1303.94,1673.58 C1304.16,1676.42 1303.88,1677.93 1303.10,1679.18 C1302.07,1679.57 1300.70,1678.92 1299.51,1677.28 C1298.36,1675.64 1297.35,1669.27 1298.72,1666.51 C1299.48,1665.11 1301.98,1663.75 1303.42,1664.09 C1305.01,1664.53 1307.40,1667.08 1308.29,1669.13 C1308.99,1670.86 1309.63,1674.23 1309.53,1675.57 C1309.41,1676.91 1308.60,1677.97 1307.50,1678.70 C1306.22,1678.13 1304.83,1676.59 1304.39,1674.87 C1304.09,1673.64 1304.63,1670.77 1305.22,1669.83 C1305.80,1668.99 1307.37,1668.16 1308.25,1668.20 C1309.26,1668.29 1310.98,1669.18 1311.20,1669.99 C1311.58,1671.49 1310.56,1673.86 1309.55,1673.77 C1308.55,1673.67 1308.35,1671.90 1309.18,1671.46 C1309.36,1671.36 1309.66,1671.36 1310.10,1671.44 C1310.27,1671.81 1310.07,1672.39 1309.23,1673.77 C1308.57,1674.83 1306.92,1677.46 1305.93,1679.04" fill="none" stroke="rgb(255, 233, 26)" stroke-width="10.00" stroke-opacity="1.00" stroke-linejoin="round"/>
<path d="M1510.05,1255.80 C1507.86,1255.88 1504.77,1255.87 1503.61,1255.68 C1502.29,1255.45 1498.08,1252.36 1492.00,1248.11 C1489.64,1246.47 1485.76,1244.09 1483.36,1241.21 C1481.87,1239.57 1479.70,1237.96 1478.08,1237.35 C1472.55,1235.33 1460.37,1234.13 1451.03,1234.02 C1448.07,1233.96 1442.38,1233.89 1439.14,1234.34 C1432.10,1235.38 1416.78,1240.29 1413.41,1242.45 C1411.09,1243.96 1405.01,1249.38 1402.21,1252.40 C1398.94,1256.00 1396.25,1260.45 1394.78,1264.62 C1394.18,1266.45 1393.62,1269.38 1393.95,1270.24 C1394.48,1271.50 1396.26,1271.28 1397.92,1270.04 C1407.75,1262.42 1429.65,1248.41 1437.49,1244.67 C1438.98,1243.96 1439.60,1243.91 1440.42,1244.28 C1435.90,1248.50 1408.65,1267.85 1405.32,1269.51 C1404.19,1270.07 1403.28,1270.14 1401.57,1269.93 C1401.49,1268.18 1401.98,1266.55 1403.45,1264.63 C1406.14,1261.14 1412.18,1256.37 1413.88,1255.42 C1414.91,1254.88 1417.16,1254.14 1417.77,1254.43 C1419.21,1255.21 1420.13,1256.73 1419.91,1258.11 C1419.34,1261.11 1417.23,1264.95 1414.57,1267.71 C1407.53,1274.85 1402.79,1276.52 1401.50,1276.69 C1401.65,1275.69 1406.31,1272.50 1408.57,1271.21 C1412.62,1268.92 1431.35,1259.56 1439.19,1255.73 C1444.19,1253.41 1448.45,1251.69 1451.50,1251.13 C1452.95,1250.87 1453.97,1250.98 1455.85,1251.47 C1456.27,1252.71 1455.57,1254.54 1453.83,1256.01 C1453.29,1256.47 1444.78,1260.70 1442.30,1261.32 C1441.14,1261.59 1439.54,1261.62 1437.47,1261.45 C1435.94,1261.27 1434.32,1259.44 1433.98,1257.50 C1433.74,1255.89 1437.80,1250.06 1441.16,1247.28 C1444.63,1244.48 1451.72,1241.17 1453.42,1241.57 C1454.84,1241.95 1455.95,1242.57 1456.75,1243.42 C1457.69,1244.53 1455.02,1250.80 1452.13,1254.63 C1450.14,1257.18 1445.43,1259.91 1440.42,1262.12 C1435.46,1264.14 1430.20,1265.70 1429.24,1265.03 C1428.98,1264.84 1428.38,1264.23 1427.44,1263.20 C1428.92,1261.26 1431.99,1258.82 1435.65,1256.83 C1442.75,1253.07 1450.69,1251.79 1453.38,1252.09 C1454.74,1252.29 1456.16,1254.30 1456.14,1256.08 C1456.08,1257.39 1451.19,1262.51 1449.02,1263.77 C1439.61,1269.13 1418.25,1272.99 1415.07,1273.55 C1421.95,1268.06 1444.46,1256.76 1449.92,1254.96 C1452.52,1254.12 1459.54,1252.64 1463.29,1252.83 C1465.15,1252.93 1466.72,1253.57 1468.05,1254.49 C1468.09,1255.67 1467.00,1257.08 1465.16,1257.63 C1464.52,1257.81 1458.66,1258.17 1457.85,1258.01 C1455.71,1257.53 1453.66,1255.20 1453.61,1253.48 C1453.65,1252.04 1458.05,1248.33 1461.07,1247.28 C1463.81,1246.38 1469.70,1246.94 1471.22,1247.98 C1472.70,1249.08 1474.43,1252.00 1474.29,1253.64 C1474.06,1255.47 1471.99,1258.55 1470.48,1259.01 C1468.23,1259.65 1465.97,1259.18 1465.83,1258.35 C1466.64,1257.29 1467.49,1256.73 1469.22,1256.26 C1473.18,1255.21 1476.00,1255.30 1475.94,1255.71 C1475.94,1255.71 1472.60,1257.84 1472.60,1257.84 C1472.60,1257.84 1491.25,1258.84 1491.25,1258.84 C1491.25,1258.84 1488.14,1258.58 1488.14,1258.58" fill="none" stroke="rgb(255, 116, 26)" stroke-width="17.00" stroke-opacity="1.00" stroke-linejoin="round"/>
<path d="M1413.16,1240.87 C1413.16,1240.18 1413.20,1239.67 1413.28,1239.36 C1413.49,1238.47 1413.53,1237.99 1413.40,1237.91 C1412.54,1237.38 1409.49,1237.26 1407.87,1236.59 C1405.00,1235.43 1398.12,1231.90 1394.56,1230.52 C1392.06,1229.56 1374.02,1223.65 1368.43,1220.65 C1365.34,1218.97 1357.99,1214.22 1356.79,1213.52 C1353.89,1211.85 1347.30,1209.44 1343.81,1208.78 C1338.12,1207.73 1321.63,1208.20 1316.99,1209.30 C1314.42,1209.92 1308.79,1211.82 1305.47,1213.74 C1303.34,1214.98 1285.95,1227.12 1279.23,1231.84 C1275.78,1234.35 1270.71,1238.72 1268.12,1241.43 C1265.63,1244.08 1261.74,1249.61 1260.06,1252.99 C1257.68,1257.85 1251.95,1274.51 1249.78,1281.05 C1247.31,1288.20 1242.72,1298.05 1238.89,1305.36 C1237.81,1307.63 1235.16,1316.37 1233.88,1320.69 C1232.43,1325.68 1231.61,1330.27 1232.25,1332.89 C1232.69,1334.45 1233.94,1336.28 1235.31,1337.30 C1236.77,1338.32 1239.67,1339.32 1241.88,1339.54 C1245.67,1339.87 1249.81,1338.79 1255.39,1336.96 C1262.01,1334.62 1277.51,1329.05 1280.28,1327.69 C1283.64,1326.03 1328.66,1296.56 1335.08,1292.85 C1343.82,1287.83 1369.54,1275.33 1388.76,1267.12 C1393.51,1265.16 1394.29,1265.00 1394.99,1265.27 C1395.14,1265.33 1395.32,1265.47 1395.55,1265.69" fill="none" stroke="rgb(255, 116, 26)" stroke-width="17.00" stroke-opacity="1.00" stroke-linejoin="round"/>
<path d="M1250.53,1339.95 C1251.34,1340.12 1251.90,1340.23 1252.20,1340.27 C1253.41,1340.43 1260.84,1340.79 1264.32,1340.36 C1270.38,1339.58 1284.75,1334.41 1292.41,1330.11 C1299.19,1326.27 1312.64,1317.24 1318.79,1313.24 C1324.62,1309.61 1338.17,1301.92 1344.90,1298.22 C1352.17,1294.38 1367.50,1286.94 1375.32,1283.52 C1383.31,1280.26 1396.60,1275.07 1402.28,1272.84 C1403.92,1272.15 1404.54,1271.20 1404.64,1269.48 C1404.65,1268.86 1404.66,1268.23 1404.68,1267.61" fill="none" stroke="rgb(255, 116, 26)" stroke-width="17.00" stroke-opacity="1.00" stroke-linejoin="round"/>
<path d="M1401.59,1243.66 C1401.59,1243.66 1401.59,1243.98 1401.59,1243.98 C1396.15,1240.76 1391.43,1238.26 1387.91,1237.09 C1380.53,1234.82 1365.77,1229.92 1358.39,1227.30 C1351.41,1224.69 1343.04,1220.89 1335.73,1219.95 C1333.48,1219.67 1325.84,1219.47 1323.14,1219.85 C1317.14,1220.76 1306.21,1226.70 1297.01,1232.52 C1288.83,1237.91 1279.17,1245.39 1273.67,1250.98 C1270.71,1254.04 1267.68,1257.51 1266.57,1259.47 C1259.75,1272.43 1242.77,1303.10 1238.73,1312.22 C1237.25,1315.60 1235.67,1321.19 1234.86,1324.04 C1234.21,1326.26 1234.16,1327.69 1234.54,1329.76 C1236.72,1327.16 1260.26,1288.51 1265.77,1280.25 C1267.28,1278.00 1269.64,1274.91 1270.54,1273.78 C1270.54,1273.78 1251.80,1317.05 1251.80,1317.05 C1251.80,1317.05 1270.80,1259.98 1270.80,1259.98 C1269.76,1261.87 1251.76,1306.53 1249.87,1312.06 C1247.94,1317.84 1246.49,1323.47 1246.26,1324.36 C1246.26,1324.36 1247.27,1324.41 1247.27,1324.41 C1249.16,1321.29 1254.38,1305.28 1256.70,1297.98 C1258.82,1290.97 1261.53,1281.32 1261.95,1280.51 C1261.95,1280.51 1250.99,1328.92 1250.99,1328.92 C1252.79,1326.82 1255.09,1321.40 1257.13,1316.29 C1259.60,1309.83 1265.10,1295.19 1268.13,1287.00 C1273.20,1272.23 1277.25,1256.35 1277.49,1255.43 C1274.94,1263.69 1264.91,1300.91 1260.44,1316.57 C1259.37,1320.05 1257.49,1325.13 1256.85,1326.85 C1258.82,1318.97 1261.62,1310.83 1265.60,1300.63 C1287.14,1247.25 1289.86,1241.50 1290.33,1240.51 C1289.65,1246.90 1286.21,1257.51 1284.03,1264.02 C1278.65,1281.42 1266.93,1319.64 1266.81,1319.46 C1267.84,1314.86 1273.67,1300.42 1276.68,1293.04 C1292.40,1255.47 1301.08,1237.07 1301.49,1236.22 C1298.82,1244.20 1286.81,1276.69 1281.89,1290.95 C1274.57,1313.47 1274.17,1316.51 1274.12,1318.45 C1275.04,1315.13 1282.15,1299.52 1285.13,1292.88 C1289.22,1283.35 1305.16,1237.86 1305.98,1236.14 C1307.04,1233.95 1308.86,1230.98 1310.03,1229.45 C1310.17,1233.25 1306.94,1247.70 1305.19,1255.25 C1301.61,1270.18 1293.06,1296.25 1289.00,1308.16 C1290.49,1300.98 1294.38,1289.62 1296.81,1282.51 C1303.17,1264.51 1312.50,1240.41 1315.71,1235.12 C1321.30,1225.87 1321.90,1225.17 1322.14,1225.30 C1321.60,1229.78 1316.82,1241.90 1313.07,1251.74 C1310.48,1258.80 1304.82,1274.42 1301.76,1282.98 C1297.85,1294.28 1296.81,1298.08 1296.28,1303.37 C1299.21,1292.65 1310.52,1259.86 1314.97,1248.65 C1318.66,1239.89 1323.53,1232.07 1325.74,1229.61 C1326.24,1230.00 1326.26,1230.60 1325.71,1232.64 C1325.62,1232.98 1311.05,1290.23 1308.92,1295.84 C1308.57,1296.76 1306.55,1301.45 1306.24,1302.16 C1308.18,1293.84 1310.59,1285.34 1314.06,1274.53 C1316.81,1266.61 1322.78,1251.15 1324.69,1247.02 C1327.63,1240.72 1333.57,1231.76 1334.24,1230.73 C1334.37,1234.72 1331.28,1248.91 1328.54,1257.56 C1321.81,1278.04 1314.49,1294.93 1312.21,1298.07 C1312.37,1289.96 1315.15,1277.54 1317.84,1267.49 C1319.93,1259.98 1324.99,1248.07 1328.40,1242.47 C1329.87,1240.08 1333.12,1236.05 1336.70,1233.42 C1338.80,1231.92 1341.01,1231.74 1341.93,1233.00 C1344.83,1237.35 1340.32,1268.39 1338.62,1275.24 C1337.62,1279.17 1335.67,1284.15 1333.68,1287.71 C1332.89,1289.13 1332.11,1289.99 1330.21,1291.64 C1330.03,1288.32 1331.38,1281.69 1332.83,1277.42 C1334.61,1272.25 1341.61,1257.00 1345.42,1250.79 C1346.71,1248.71 1351.43,1241.75 1353.96,1239.31 C1355.14,1238.19 1356.42,1237.78 1357.79,1237.75 C1358.06,1239.71 1357.63,1244.25 1356.84,1247.91 C1356.07,1251.34 1353.67,1257.78 1351.71,1261.65 C1349.72,1265.51 1346.59,1270.36 1344.42,1272.66 C1343.43,1273.68 1342.15,1274.37 1339.34,1275.53 C1337.84,1273.65 1337.20,1272.16 1337.52,1270.39 C1338.14,1267.02 1341.84,1259.51 1343.77,1256.89 C1345.64,1254.41 1351.81,1248.78 1354.90,1246.99 C1356.46,1246.11 1358.63,1245.35 1360.53,1244.97 C1362.03,1244.71 1364.26,1245.82 1365.63,1247.41 C1366.59,1248.58 1366.57,1253.67 1365.68,1255.62 C1364.70,1257.74 1363.20,1259.64 1361.78,1260.74 C1361.78,1260.74 1360.76,1260.40 1360.76,1260.40 C1361.53,1258.12 1362.12,1256.71 1362.83,1255.97 C1364.68,1254.08 1372.72,1248.92 1374.76,1247.86 C1377.65,1246.40 1379.40,1246.50 1381.51,1246.75 C1381.80,1248.35 1381.71,1249.38 1380.85,1250.11 C1378.40,1252.19 1365.56,1258.98 1361.95,1260.34 C1361.95,1260.34 1383.31,1253.80 1383.31,1253.80 C1383.31,1253.80 1361.48,1265.21 1361.48,1265.21 C1361.48,1265.21 1382.55,1256.46 1382.55,1256.46 C1376.37,1260.68 1364.73,1268.76 1363.75,1269.42 C1361.86,1270.68 1360.94,1271.65 1359.37,1273.88 C1360.87,1274.38 1362.17,1274.26 1364.90,1273.16 C1372.14,1270.26 1372.94,1269.71 1373.00,1269.08 C1353.60,1278.06 1336.10,1288.10 1333.23,1290.46 C1331.26,1292.10 1324.71,1298.41 1322.24,1300.80" fill="none" stroke="rgb(255, 116, 26)" stroke-width="17.00" stroke-opacity="1.00" stroke-linejoin="round"/>
<path d="M923.89,1482.22 C917.11,1485.88 909.83,1491.84 903.07,1498.48 C897.50,1504.16 887.06,1515.61 882.18,1521.43 C877.55,1527.18 868.60,1539.03 864.31,1545.17 C858.81,1553.50 852.36,1564.69 849.55,1570.84 C846.54,1577.50 842.39,1593.95 842.15,1600.82 C842.10,1602.63 842.33,1606.59 842.65,1607.95 C843.16,1609.98 844.82,1613.56 846.06,1615.28 C847.30,1616.93 849.76,1619.02 851.46,1619.88 C854.60,1621.38 861.21,1622.37 866.15,1622.22 C867.33,1622.18 884.38,1620.55 886.66,1621.04 C890.24,1621.85 906.46,1633.09 911.58,1635.51 C914.88,1637.04 922.10,1639.10 925.24,1639.41 C932.13,1640.01 942.84,1637.14 943.00,1636.71 C943.07,1636.43 943.02,1636.25 942.86,1636.18 C942.76,1636.14 942.51,1636.17 942.10,1636.27" fill="none" stroke="rgb(0, 0, 0)" stroke-width="10.00" stroke-opacity="1.00" stroke-linejoin="round"/>
<path d="M910.01,1539.25 C909.82,1538.32 909.70,1537.66 909.67,1537.28 C909.64,1536.87 909.79,1526.16 909.91,1524.01 C910.33,1517.16 913.27,1507.94 917.29,1497.96 C921.76,1487.61 927.86,1475.23 931.74,1468.61 C935.75,1461.90 944.37,1449.57 949.77,1443.00 C952.86,1439.25 965.08,1426.31 970.71,1420.75 C984.86,1407.33 1007.34,1388.86 1020.06,1379.00 C1026.63,1374.15 1039.86,1364.68 1046.52,1360.05 C1059.38,1351.74 1085.77,1336.04 1098.75,1328.86 C1108.95,1323.42 1142.12,1307.76 1155.66,1301.94 C1168.74,1296.55 1201.44,1285.69 1215.17,1282.18 C1224.58,1279.98 1232.73,1278.68 1234.57,1278.60 C1235.00,1278.58 1236.06,1278.58 1237.74,1278.59 C1238.04,1278.59 1238.19,1278.59 1238.19,1278.59" fill="none" stroke="rgb(0, 0, 0)" stroke-width="10.00" stroke-opacity="1.00" stroke-linejoin="round"/>
<path d="M931.60,1598.79 C931.60,1598.78 931.61,1600.51 931.72,1601.11 C931.80,1601.58 934.30,1608.59 936.44,1613.86 C940.68,1624.26 947.19,1635.96 952.17,1642.49 C954.29,1645.26 967.67,1660.95 971.30,1664.51 C976.13,1669.23 985.69,1677.36 989.70,1680.08 C993.51,1682.65 1007.69,1691.02 1013.97,1694.66 C1030.15,1703.65 1056.55,1715.65 1071.05,1721.36 C1085.75,1726.87 1115.25,1736.84 1130.16,1741.36 C1145.05,1745.54 1175.25,1753.68 1191.21,1757.57 C1206.91,1761.17 1233.56,1766.63 1253.68,1769.87 C1268.59,1771.89 1299.00,1775.61 1313.57,1776.99 C1327.54,1778.07 1357.18,1779.24 1371.98,1779.67 C1387.53,1779.81 1418.25,1779.73 1433.41,1779.51 C1449.08,1778.90 1480.45,1777.21 1496.15,1776.13 C1512.50,1774.53 1542.91,1770.44 1558.39,1767.96 C1573.91,1765.25 1605.26,1759.44 1621.10,1756.33 C1636.12,1753.02 1666.33,1745.19 1680.27,1741.14 C1686.83,1739.13 1702.33,1733.97 1709.61,1731.36 C1716.62,1728.71 1727.68,1724.23 1737.05,1719.89 C1749.98,1713.54 1776.94,1698.53 1789.67,1691.01 C1808.63,1679.11 1828.12,1665.50 1831.51,1661.84 C1831.94,1661.37 1832.18,1661.05 1832.20,1660.88 C1832.20,1660.82 1832.08,1660.82 1831.84,1660.90" fill="none" stroke="rgb(0, 0, 0)" stroke-width="10.00" stroke-opacity="1.00" stroke-linejoin="round"/>
<path d="M1819.96,1508.68 C1821.44,1509.46 1822.40,1509.95 1822.82,1510.16 C1823.32,1510.41 1863.10,1528.42 1876.48,1535.04 C1883.45,1538.66 1895.94,1545.56 1901.89,1548.93 C1911.85,1555.04 1921.88,1561.95 1927.17,1566.73 C1932.55,1571.62 1942.82,1582.74 1947.41,1588.97 C1949.74,1592.16 1953.98,1599.39 1955.41,1602.40 C1957.20,1606.23 1958.99,1612.53 1959.35,1616.34 C1959.64,1619.65 1959.09,1626.69 1957.85,1630.21 C1956.40,1634.14 1951.96,1640.13 1948.97,1642.30 C1946.24,1644.24 1939.14,1647.73 1936.49,1648.62 C1932.86,1649.81 1925.04,1651.05 1921.53,1651.22 C1914.84,1651.15 1903.30,1651.24 1894.78,1652.73 C1880.66,1655.45 1872.41,1656.77 1864.42,1657.28 C1847.99,1658.30 1833.81,1655.19 1832.00,1654.14 C1831.61,1653.91 1829.02,1652.18 1828.52,1651.80 C1828.35,1651.67 1828.25,1651.56 1828.22,1651.46 C1828.20,1651.36 1828.19,1651.26 1828.18,1651.17" fill="none" stroke="rgb(0, 0, 0)" stroke-width="10.00" stroke-opacity="1.00" stroke-linejoin="round"/>
<path d="M1227.03,1352.08 C1227.03,1350.84 1227.03,1350.01 1227.03,1349.60 C1227.04,1349.33 1228.00,1325.67 1228.66,1320.07 C1229.63,1311.98 1233.79,1297.49 1236.36,1290.73 C1239.23,1283.18 1243.94,1272.76 1248.83,1263.03 C1252.28,1256.50 1260.23,1243.42 1263.65,1238.82 C1268.37,1232.53 1278.90,1221.74 1285.25,1217.12 C1291.11,1212.91 1303.86,1206.80 1309.62,1205.26 C1316.06,1203.57 1329.47,1201.76 1337.51,1202.43 C1340.25,1202.67 1359.33,1205.51 1365.22,1206.97 C1375.00,1209.43 1400.34,1220.62 1405.21,1223.26 C1409.78,1225.73 1414.54,1227.50 1417.68,1227.78 C1421.74,1228.10 1440.36,1226.02 1447.19,1225.43 C1454.88,1224.84 1470.30,1225.31 1476.38,1226.41 C1479.97,1227.08 1486.17,1229.22 1489.64,1231.04 C1493.22,1232.96 1498.33,1236.33 1501.59,1239.15 C1504.23,1241.48 1507.79,1246.35 1509.05,1248.18 C1509.29,1248.50 1509.59,1248.75 1509.82,1249.07 C1509.88,1249.16 1509.90,1249.27 1509.87,1249.38" fill="none" stroke="rgb(0, 0, 0)" stroke-width="10.00" stroke-opacity="1.00" stroke-linejoin="round"/>
<path d="M1229.60,1341.80 C1230.15,1342.34 1230.54,1342.71 1230.79,1342.91 C1231.88,1343.78 1239.58,1348.89 1242.47,1349.95 C1245.73,1351.10 1254.60,1351.85 1258.23,1351.76 C1260.64,1351.68 1267.13,1350.66 1270.65,1349.30 C1276.85,1346.89 1312.20,1328.56 1326.58,1321.01 C1339.98,1314.08 1366.99,1300.58 1381.48,1294.06 C1388.75,1290.96 1402.77,1285.39 1409.45,1282.94 C1417.05,1280.39 1429.99,1276.56 1438.52,1274.43 C1447.84,1272.35 1459.26,1270.42 1468.97,1269.37 C1484.15,1267.91 1507.89,1265.43 1514.28,1263.66 C1517.87,1262.64 1523.59,1259.75 1525.36,1258.26 C1526.25,1257.48 1527.93,1255.50 1528.18,1254.81 C1528.43,1254.09 1528.57,1253.42 1528.60,1252.81 C1528.60,1252.64 1528.53,1252.63 1528.37,1252.78" fill="none" stroke="rgb(0, 0, 0)" stroke-width="10.00" stroke-opacity="1.00" stroke-linejoin="round"/>
<path d="M1515.53,1251.25 C1515.83,1251.25 1517.15,1251.25 1518.17,1251.25 C1527.17,1251.25 1537.36,1252.51 1545.79,1254.39 C1559.76,1257.35 1584.70,1262.29 1602.44,1266.51 C1615.79,1269.95 1647.32,1279.89 1662.19,1285.71 C1672.65,1290.13 1706.46,1306.33 1717.86,1312.79 C1731.34,1320.76 1760.92,1339.86 1771.24,1347.57 C1780.90,1354.95 1809.26,1378.79 1817.16,1386.52 C1820.82,1390.11 1834.33,1404.69 1839.58,1410.79 C1844.55,1416.79 1853.95,1428.78 1858.66,1435.56 C1863.96,1443.45 1871.05,1455.37 1874.73,1462.49 C1878.26,1469.46 1883.28,1483.81 1885.14,1491.55 C1888.16,1504.37 1885.92,1522.47 1885.81,1523.00 C1885.51,1524.32 1885.24,1525.24 1884.98,1525.75 C1884.85,1526.01 1884.64,1526.11 1884.37,1526.07" fill="none" stroke="rgb(0, 0, 0)" stroke-width="10.00" stroke-opacity="1.00" stroke-linejoin="round"/>
<path d="M1887.42,1508.46 C1887.42,1508.79 1887.42,1509.12 1887.42,1509.45 C1887.42,1510.22 1887.42,1512.57 1887.42,1514.13 C1887.41,1525.18 1886.30,1531.29 1885.50,1534.31 C1885.26,1535.20 1885.01,1536.09 1884.76,1536.99" fill="none" stroke="rgb(0, 0, 0)" stroke-width="10.00" stroke-opacity="1.00" stroke-linejoin="round"/>
<path d="M1245.21,1662.55 C1245.27,1662.69 1245.65,1662.39 1247.14,1660.99 C1252.35,1656.03 1262.96,1645.52 1268.24,1642.30 C1271.59,1640.33 1276.14,1639.20 1279.38,1639.98 C1282.27,1640.72 1290.30,1643.51 1293.28,1645.24 C1305.88,1652.66 1317.21,1669.31 1317.49,1669.79 C1317.77,1670.29 1317.83,1670.57 1317.65,1670.64 C1317.53,1670.68 1317.10,1670.61 1316.35,1670.45" fill="none" stroke="rgb(0, 0, 0)" stroke-width="10.00" stroke-opacity="1.00" stroke-linejoin="round"/>
<path d="M1247.98,1669.00 C1247.93,1668.95 1248.02,1669.14 1248.05,1669.21 C1250.23,1673.62 1252.45,1677.66 1254.70,1680.70 C1256.81,1683.51 1261.67,1688.98 1264.30,1691.03 C1266.70,1692.88 1272.88,1696.34 1275.12,1697.04 C1277.80,1697.82 1284.74,1697.03 1288.58,1695.80 C1294.12,1693.96 1304.95,1687.23 1309.88,1682.93 C1312.80,1680.37 1316.70,1676.50 1317.28,1675.90 C1317.74,1675.41 1318.21,1674.92 1318.67,1674.43 C1318.70,1674.40 1318.79,1674.33 1318.77,1674.36" fill="none" stroke="rgb(0, 0, 0)" stroke-width="10.00" stroke-opacity="1.00" stroke-linejoin="round"/>
<path d="M1144.66,1645.60 C1144.54,1644.54 1144.54,1643.87 1144.66,1643.58 C1145.58,1641.60 1167.12,1633.98 1171.64,1632.67 C1182.53,1629.53 1209.25,1626.22 1216.10,1625.43 C1217.20,1625.28 1218.30,1625.13 1219.40,1624.97 C1219.74,1624.92 1219.95,1624.89 1220.04,1624.87" fill="none" stroke="rgb(0, 0, 0)" stroke-width="10.00" stroke-opacity="1.00" stroke-linejoin="round"/>
<path d="M1348.34,1641.00 C1348.64,1640.83 1355.27,1640.56 1358.98,1640.34 C1366.86,1639.83 1375.39,1640.63 1386.94,1642.43 C1398.20,1644.47 1409.27,1647.05 1417.75,1649.40 C1426.58,1652.04 1439.74,1657.64 1441.15,1659.13 C1441.85,1659.87 1442.71,1660.88 1443.72,1662.13 C1443.76,1662.18 1443.83,1662.35 1443.78,1662.31" fill="none" stroke="rgb(0, 0, 0)" stroke-width="10.00" stroke-opacity="1.00" stroke-linejoin="round"/>
</g>
</svg>
