<?xml version="1.0" encoding="UTF-8" standalone="no"?>
<!DOCTYPE svg PUBLIC "-//W3C//DTD SVG 1.1//EN" "http://www.w3.org/Graphics/SVG/1.1/DTD/svg11.dtd">
<svg width="595.34" height="419.45" viewBox="0.00 0.00 2894.00 2039.00" xmlns="http://www.w3.org/2000/svg" xmlns:xlink="http://www.w3.org/1999/xlink">
<g stroke-linecap="round" id="レイヤー_10_のコピー">
<path d="M1507.75,724.85 C1501.86,727.42 1489.71,732.63 1482.55,735.02 C1476.41,737.00 1461.32,740.64 1454.83,742.02 C1447.32,743.47 1431.54,746.39 1422.97,747.50 C1414.48,748.48 1397.50,749.49 1388.81,749.72 C1380.68,749.74 1362.46,749.63 1357.82,749.35 C1351.48,748.95 1338.98,746.45 1332.49,744.63 C1323.73,742.08 1312.81,737.97 1305.69,734.03 C1298.86,730.22 1287.84,722.09 1282.62,717.01 C1277.22,711.73 1269.53,700.84 1264.39,691.90 C1259.75,683.60 1256.43,674.97 1254.01,666.42 C1252.03,659.16 1250.11,645.14 1249.58,637.17 C1249.15,629.01 1249.40,615.07 1249.80,609.44 C1250.36,601.75 1252.15,590.98 1254.38,580.64 C1256.18,573.06 1259.89,557.89 1261.94,551.73 C1264.00,545.60 1269.65,531.91 1271.91,526.97 C1274.21,522.04 1282.94,506.42 1285.23,502.85 C1289.08,497.05 1296.63,486.30 1300.55,481.42 C1304.57,476.43 1315.38,465.66 1321.33,460.03 C1329.20,452.81 1337.81,445.78 1344.59,441.28 C1350.87,437.14 1362.99,430.31 1370.14,427.26 C1376.54,424.55 1389.80,420.43 1395.70,419.31 C1402.48,418.05 1416.03,416.87 1424.01,417.01 C1431.60,417.16 1446.09,418.91 1453.09,420.51 C1460.37,422.19 1473.33,426.91 1479.22,430.13 C1485.19,433.41 1496.45,441.99 1502.10,447.44 C1507.71,452.90 1517.33,464.57 1521.54,471.07 C1523.38,473.91 1534.02,493.14 1536.24,498.99 C1537.24,501.67 1543.55,521.85 1545.02,528.95 C1546.51,536.28 1547.93,552.37 1548.02,559.32 C1548.09,566.27 1546.95,583.10 1545.83,589.76 C1544.68,596.52 1540.25,612.44 1537.65,618.92 C1535.06,625.32 1526.99,640.51 1523.13,646.69 C1521.05,650.01 1510.81,664.43 1506.40,670.18 C1503.69,673.63 1492.13,686.82 1487.09,692.17 C1481.99,697.37 1471.20,707.09 1465.62,711.78 C1457.77,718.06 1447.52,725.36 1440.89,729.64 C1432.75,734.73 1419.53,741.63 1413.99,744.06 C1406.55,747.30 1393.65,751.06 1386.51,752.35 C1378.87,753.71 1363.59,754.68 1357.15,754.20 C1349.64,753.61 1336.85,749.89 1327.97,746.34 C1324.51,744.93 1319.48,742.13 1316.51,739.87 C1311.62,736.09 1301.87,726.64 1297.05,719.81 C1293.00,714.02 1286.45,700.44 1284.04,693.27 C1281.86,686.74 1278.72,671.96 1277.76,665.35 C1276.57,656.77 1276.20,646.15 1276.27,634.70 C1276.55,623.36 1277.30,612.33 1278.52,605.20 C1279.63,598.90 1283.39,582.51 1284.50,578.79 C1285.93,574.01 1291.40,559.49 1294.00,553.82 C1296.99,547.43 1301.84,538.87 1307.40,529.94 C1311.69,523.24 1319.00,513.78 1325.54,506.17 C1331.46,499.58 1341.52,490.08 1347.69,485.50 C1352.30,482.10 1369.65,471.47 1373.61,469.50 C1378.23,467.22 1396.15,461.68 1401.39,460.73 C1408.91,459.40 1423.15,458.44 1429.21,458.70 C1436.55,459.02 1449.13,461.26 1454.52,463.08 C1460.96,465.29 1471.74,471.15 1476.24,474.79 C1481.67,479.24 1490.58,489.73 1494.35,495.78 C1498.38,502.30 1505.06,516.01 1507.02,520.82 C1509.54,527.02 1513.59,539.74 1515.19,547.10 C1516.66,553.90 1518.60,569.99 1518.86,574.16 C1519.32,582.52 1519.10,593.53 1518.30,600.30 C1517.50,606.79 1513.61,621.75 1510.55,630.00 C1508.53,635.41 1500.72,651.92 1497.52,656.79 C1495.01,660.58 1481.93,677.71 1477.45,682.81 C1472.18,688.78 1461.51,698.50 1454.27,704.24 C1448.80,708.50 1435.88,716.82 1429.71,720.07 C1423.60,723.26 1408.97,728.52 1402.55,729.55 C1398.66,730.16 1390.83,730.55 1385.90,730.48 C1380.36,730.35 1374.66,729.79 1371.26,728.72 C1368.31,727.77 1359.89,724.17 1357.74,722.95 C1354.80,721.25 1348.61,716.38 1346.31,713.99 C1341.74,709.16 1334.20,697.86 1331.17,691.74 C1327.64,684.55 1322.65,670.14 1321.22,663.45 C1319.79,656.60 1318.28,644.40 1318.00,637.32 C1317.77,631.25 1318.54,617.93 1319.57,611.56 C1320.73,604.49 1324.60,590.04 1327.23,583.39 C1330.27,575.77 1337.20,563.24 1340.98,558.15 C1345.47,552.15 1354.76,543.23 1359.60,540.02 C1365.11,536.40 1377.71,530.76 1384.89,529.08 C1391.33,527.61 1405.34,527.21 1410.75,528.27 C1416.32,529.41 1426.56,533.89 1432.36,537.99 C1435.17,540.02 1438.81,543.79 1441.07,546.99 C1446.67,555.02 1452.32,566.02 1454.39,573.53 C1456.29,580.53 1458.44,594.26 1459.00,602.19 C1459.58,612.64 1459.65,624.09 1459.08,631.93 C1458.46,640.08 1455.19,653.82 1452.53,660.65 C1449.89,667.32 1443.06,678.96 1438.31,685.45 C1434.23,690.98 1422.48,703.30 1417.29,707.30 C1414.12,709.71 1407.42,713.93 1404.78,715.19 C1401.13,716.89 1393.19,719.24 1389.70,719.64 C1386.52,719.97 1377.59,719.48 1375.91,719.13 C1373.89,718.68 1371.32,717.63 1369.91,716.65 C1366.67,714.31 1362.61,709.95 1360.49,706.19 C1359.71,704.79 1356.88,697.69 1356.13,695.10 C1354.98,691.01 1353.41,670.56 1353.31,665.25 C1353.20,658.15 1354.37,642.19 1355.52,634.88 C1356.64,627.87 1360.84,612.54 1363.53,605.72 C1366.32,598.76 1374.98,584.55 1379.59,578.82 C1384.15,573.19 1395.24,562.86 1401.24,559.63 C1404.42,557.93 1414.37,554.28 1415.57,553.96 C1419.05,553.05 1424.19,553.08 1427.19,553.42 C1431.46,553.94 1435.32,554.84 1438.67,556.09 C1441.46,557.16 1447.04,560.35 1449.07,561.69 C1451.89,563.59 1455.44,567.07 1457.62,570.02 C1462.81,577.14 1468.58,587.67 1470.71,595.24 C1472.81,602.84 1474.50,616.99 1474.47,624.81 C1474.42,631.70 1471.88,648.31 1469.75,654.98 C1467.48,661.99 1461.65,674.87 1457.58,681.49 C1454.35,686.73 1445.07,699.62 1438.84,707.07 C1431.46,715.52 1422.79,724.50 1416.75,729.77 C1413.43,732.65 1408.04,736.71 1404.66,738.80 C1401.72,740.61 1395.19,743.81 1391.78,744.84 C1389.01,745.65 1380.95,747.04 1377.15,747.10 C1372.53,747.13 1366.27,745.76 1363.21,744.01 C1361.63,743.07 1359.37,740.96 1358.18,739.30 C1355.97,736.12 1353.58,729.43 1352.69,724.77 C1351.37,717.57 1351.36,702.49 1352.64,696.66 C1353.37,693.40 1355.56,686.65 1356.63,684.20 C1358.20,680.70 1361.67,675.21 1365.03,671.37 C1367.48,668.59 1378.79,657.51 1380.88,655.47" fill="none" stroke="rgb(255, 255, 255)" stroke-width="120.00" stroke-opacity="1.00" stroke-linejoin="round"/>
<path d="M1385.07,373.81 C1382.93,373.82 1381.68,373.49 1380.09,372.32 C1379.19,371.66 1375.67,369.03 1375.41,368.87 C1373.03,367.45 1366.00,366.78 1362.63,366.06 C1358.77,365.20 1353.10,362.71 1347.93,359.89 C1343.64,357.55 1340.35,356.43 1335.92,356.18 C1325.77,355.78 1319.70,355.75 1309.48,356.60 C1302.97,357.12 1299.73,357.47 1297.09,358.23 C1294.20,359.11 1288.40,362.17 1286.67,363.74 C1285.37,364.95 1279.65,371.97 1278.79,373.37 C1275.77,378.32 1272.42,388.50 1269.75,399.73 C1267.17,411.69 1265.35,422.14 1264.54,430.00 C1263.65,439.52 1262.93,450.95 1262.51,457.99 C1262.00,472.57 1263.23,502.63 1264.71,518.22 C1266.42,532.53 1271.71,566.28 1274.14,577.98 C1277.61,593.11 1284.78,621.20 1289.19,637.18 C1291.09,643.84 1295.02,657.67 1297.04,664.86 C1297.84,667.90 1298.90,671.87 1299.15,672.79" fill="none" stroke="rgb(255, 255, 255)" stroke-width="120.00" stroke-opacity="1.00" stroke-linejoin="round"/>
<path d="M1345.58,413.54 C1343.54,412.41 1339.78,408.18 1336.71,405.77 C1334.84,404.31 1327.36,399.44 1324.28,397.72 C1321.03,395.93 1309.28,392.37 1298.61,388.13 C1291.64,385.25 1274.35,378.27 1271.25,377.59 C1268.49,377.00 1260.38,377.39 1258.36,377.70 C1254.98,378.26 1248.80,380.91 1244.93,383.25 C1240.12,386.19 1223.76,399.06 1220.96,401.65 C1215.71,406.61 1208.18,416.37 1201.94,425.07 C1192.09,439.17 1167.83,474.38 1164.41,480.31 C1163.19,482.44 1156.21,497.65 1153.51,503.68 C1150.14,511.35 1146.47,522.86 1143.72,533.55 C1142.03,541.04 1138.50,557.49 1137.83,562.75 C1137.21,567.73 1136.68,581.49 1136.75,588.78 C1136.82,595.26 1138.43,611.69 1139.64,618.39 C1140.90,625.30 1144.87,640.05 1147.43,646.88 C1150.30,654.46 1155.40,664.86 1160.35,673.22 C1164.24,679.66 1170.56,689.41 1176.27,695.90 C1178.28,698.18 1191.76,712.22 1197.64,718.22 C1205.33,725.80 1212.67,732.06 1219.04,735.92 C1226.06,739.98 1233.94,742.78 1245.08,746.20 C1253.37,748.66 1268.80,753.11 1275.95,755.11 C1285.97,757.81 1298.69,758.62 1304.74,758.51 C1313.13,758.30 1323.18,757.21 1333.85,754.91 C1348.86,751.50 1380.03,744.14 1396.18,740.18 C1415.50,735.15 1439.34,726.76 1452.13,722.18 C1466.99,716.65 1496.03,705.52 1510.21,699.93 C1527.25,693.56 1553.13,684.68 1567.97,679.50 C1575.77,676.67 1593.57,669.46 1598.48,667.14 C1605.96,663.59 1628.31,651.14 1630.49,650.04 C1632.55,649.00 1633.03,648.53 1633.13,647.72" fill="none" stroke="rgb(255, 255, 255)" stroke-width="120.00" stroke-opacity="1.00" stroke-linejoin="round"/>
<path d="M1325.28,574.81 C1318.86,572.70 1301.42,566.79 1297.42,565.08 C1291.86,562.68 1280.52,554.32 1276.77,550.01 C1274.21,547.02 1271.31,541.92 1270.09,538.29 C1268.29,532.77 1267.56,517.10 1268.07,510.97 C1268.58,505.07 1271.42,490.63 1273.98,483.88 C1275.14,480.85 1284.76,458.82 1286.73,454.86 C1289.65,449.00 1295.24,440.00 1301.57,430.85 C1305.43,425.40 1313.86,415.87 1320.53,409.10 C1334.08,395.57 1352.60,378.72 1366.33,368.16 C1371.49,364.31 1384.48,355.78 1391.70,352.01 C1398.06,348.70 1413.41,342.25 1419.82,340.22 C1426.26,338.19 1441.89,334.57 1449.09,332.96 C1456.97,331.44 1474.24,328.27 1479.27,327.76 C1485.86,327.12 1529.42,328.06 1537.71,328.82 C1542.56,329.27 1561.89,332.04 1568.91,333.25 C1576.95,334.69 1589.10,338.22 1594.82,340.46 C1603.57,344.01 1613.31,348.74 1620.50,353.61 C1626.76,357.92 1638.41,367.24 1642.48,371.24 C1645.47,374.20 1649.74,378.90 1651.52,381.35 C1655.29,386.60 1660.96,399.42 1663.32,408.34 C1665.62,417.11 1667.36,428.17 1667.73,434.03 C1668.23,444.92 1668.74,480.89 1667.82,497.98 C1666.53,514.38 1662.02,546.52 1659.81,561.50 C1657.06,577.58 1649.16,609.96 1646.60,618.47 C1644.42,625.40 1638.91,641.41 1637.27,645.51 C1634.43,652.38 1628.20,666.34 1625.43,671.98 C1621.09,680.57 1615.36,690.38 1610.67,696.08 C1605.84,701.90 1595.57,710.69 1589.64,714.81 C1583.60,718.97 1570.86,725.45 1563.76,728.33 C1558.24,730.55 1548.94,732.34 1535.08,733.42 C1531.62,733.65 1478.70,735.97 1467.83,735.13 C1464.30,734.84 1456.65,733.64 1455.92,733.34 C1453.48,732.27 1450.07,729.34 1449.34,727.37 C1448.56,725.10 1448.99,718.14 1449.24,712.82" fill="none" stroke="rgb(255, 255, 255)" stroke-width="120.00" stroke-opacity="1.00" stroke-linejoin="round"/>
<path d="M1525.66,413.40 C1526.21,412.25 1527.86,410.61 1529.39,409.96 C1530.35,409.57 1538.83,409.18 1542.52,409.40 C1546.23,409.66 1551.83,411.37 1555.04,413.33 C1557.96,415.16 1564.34,420.17 1566.62,422.25 C1572.09,427.30 1582.15,441.70 1585.51,447.62 C1588.48,452.89 1593.07,466.27 1594.59,472.12 C1596.11,478.06 1597.79,493.18 1598.00,500.95 C1598.20,509.44 1597.32,525.53 1596.83,530.17 C1596.23,535.73 1592.36,555.05 1591.37,558.83 C1588.40,569.81 1574.31,605.67 1569.61,616.49 C1566.47,623.35 1558.24,639.56 1555.22,644.85 C1551.43,651.19 1543.35,663.77 1538.51,670.18 C1530.90,680.22 1504.90,708.61 1504.24,710.16 C1504.04,710.62 1503.65,711.78 1503.06,713.63" fill="none" stroke="rgb(255, 255, 255)" stroke-width="120.00" stroke-opacity="1.00" stroke-linejoin="round"/>
<path d="M1290.92,314.17 C1291.59,313.30 1292.03,312.72 1292.23,312.43 C1293.13,311.16 1298.46,306.72 1301.55,304.72 C1306.22,301.70 1318.04,296.52 1326.24,294.21 C1334.32,291.97 1349.43,289.33 1357.84,288.82 C1362.08,288.57 1376.02,288.47 1378.43,288.45 C1370.45,292.26 1361.41,295.81 1351.61,299.27 C1344.30,301.72 1329.47,306.20 1321.97,307.97 C1317.36,309.01 1316.72,309.00 1315.50,308.65 C1315.50,308.65 1321.39,302.37 1321.39,302.37 C1321.39,302.37 1281.01,309.78 1281.01,309.78 C1283.71,307.19 1288.60,303.72 1292.72,301.47 C1298.86,298.18 1308.69,295.11 1318.24,291.31 C1326.35,288.08 1338.66,284.32 1345.44,282.92 C1354.53,281.07 1389.11,277.89 1405.77,276.53 C1417.75,275.69 1421.61,275.66 1425.23,275.98 C1418.23,278.32 1410.73,279.95 1399.53,281.97 C1382.62,284.72 1351.30,289.47 1336.91,291.47 C1325.23,293.42 1306.50,297.34 1305.50,297.56 C1310.94,293.37 1322.61,288.00 1328.94,285.65 C1335.26,283.31 1349.51,279.35 1356.18,277.56 C1365.60,275.38 1374.09,273.97 1384.75,272.79 C1400.45,271.31 1437.37,268.13 1443.65,268.05 C1462.47,267.83 1473.72,271.21 1474.90,271.56 C1466.09,272.80 1389.68,278.36 1384.41,278.17 C1382.63,278.09 1382.11,277.85 1381.98,277.22 C1391.48,273.20 1402.89,269.35 1409.42,268.10 C1415.30,266.99 1429.47,266.16 1440.06,266.06 C1456.39,266.12 1496.89,266.55 1502.80,267.42 C1505.12,267.77 1509.88,269.09 1511.05,269.39" fill="none" stroke="rgb(255, 255, 255)" stroke-width="17.00" stroke-opacity="1.00" stroke-linejoin="round"/>
<path d="M1390.30,281.66 C1396.87,278.45 1405.54,275.98 1414.80,273.88 C1425.17,271.70 1461.55,267.73 1473.04,267.23 C1475.98,267.13 1485.11,266.87 1485.78,266.88 C1491.89,266.99 1517.83,275.05 1519.53,275.52 C1519.83,275.61 1520.38,275.78 1521.20,276.04" fill="none" stroke="rgb(255, 255, 255)" stroke-width="17.00" stroke-opacity="1.00" stroke-linejoin="round"/>
<path d="M1443.07,268.32 C1443.98,267.67 1444.61,267.27 1444.94,267.12 C1445.26,266.99 1466.01,263.19 1469.24,262.94 C1474.09,262.59 1495.21,262.32 1504.45,262.30 C1515.84,262.60 1519.38,263.53 1523.47,265.17" fill="none" stroke="rgb(255, 255, 255)" stroke-width="17.00" stroke-opacity="1.00" stroke-linejoin="round"/>
<path d="M1449.07,264.82 C1454.19,265.05 1483.29,260.62 1485.90,260.42 C1489.72,260.14 1509.28,259.81 1518.08,259.72 C1526.63,259.68 1544.00,259.65 1547.03,260.21 C1539.00,262.96 1529.15,264.61 1518.27,265.39 C1509.44,265.82 1496.30,266.43 1491.99,266.62 C1497.99,265.25 1506.38,264.19 1518.89,262.91 C1528.24,262.02 1547.02,260.28 1547.80,260.77 C1547.80,260.77 1503.73,277.00 1503.73,277.00 C1519.20,275.01 1539.61,272.39 1540.50,272.68 C1540.91,272.82 1541.45,273.28 1542.10,274.07" fill="none" stroke="rgb(255, 255, 255)" stroke-width="17.00" stroke-opacity="1.00" stroke-linejoin="round"/>
<path d="M1412.83,287.78 C1410.41,286.02 1405.29,283.40 1403.06,282.72 C1399.31,281.60 1382.87,280.18 1377.61,280.37 C1371.52,280.62 1357.53,284.25 1350.74,287.07 C1340.11,291.53 1314.50,306.26 1309.08,309.39" fill="none" stroke="rgb(255, 255, 255)" stroke-width="17.00" stroke-opacity="1.00" stroke-linejoin="round"/>
<path d="M1368.88,275.31 C1367.84,275.31 1364.38,275.31 1363.43,275.38 C1358.44,275.77 1338.02,281.53 1335.28,282.65 C1332.21,283.94 1317.02,292.97 1310.61,296.85 C1296.60,305.73 1277.67,319.78 1272.06,324.10 C1270.57,325.25 1268.54,327.08 1266.58,329.06 C1266.09,329.55 1265.41,330.28 1264.54,331.23" fill="none" stroke="rgb(255, 255, 255)" stroke-width="17.00" stroke-opacity="1.00" stroke-linejoin="round"/>
<path d="M1298.80,300.47 C1292.10,302.90 1284.89,306.89 1276.18,312.38 C1262.66,321.03 1226.01,341.38 1220.34,345.15 C1213.11,350.00 1204.20,358.85 1204.01,358.98 C1203.70,359.22 1202.97,359.69 1201.83,360.39" fill="none" stroke="rgb(255, 255, 255)" stroke-width="17.00" stroke-opacity="1.00" stroke-linejoin="round"/>
<path d="M1218.10,338.52 C1213.69,338.63 1210.57,339.10 1207.36,340.60 C1200.15,344.08 1189.92,351.61 1181.59,358.62 C1174.05,365.28 1152.29,385.41 1145.94,391.42 C1145.94,391.42 1154.45,384.09 1154.45,384.09" fill="none" stroke="rgb(255, 255, 255)" stroke-width="17.00" stroke-opacity="1.00" stroke-linejoin="round"/>
<path d="M1177.75,359.52 C1174.21,360.29 1169.30,362.99 1166.38,364.57 C1162.51,366.84 1156.16,372.32 1153.31,375.45 C1148.68,380.60 1137.17,397.08 1135.49,399.70 C1130.42,407.65 1128.14,414.88 1127.34,418.73 C1129.41,419.06 1130.51,418.72 1132.10,416.90 C1134.82,413.85 1138.41,409.81 1139.29,408.80" fill="none" stroke="rgb(255, 255, 255)" stroke-width="17.00" stroke-opacity="1.00" stroke-linejoin="round"/>
<path d="M1165.07,371.55 C1162.47,372.17 1161.27,372.58 1159.90,373.43 C1157.19,375.14 1153.73,379.09 1150.53,383.37 C1147.65,387.30 1135.08,406.16 1132.48,411.15 C1126.18,423.36 1120.49,440.12 1119.61,443.62 C1119.21,445.20 1119.21,445.67 1119.49,445.84 C1119.49,445.84 1123.07,438.65 1123.07,438.65" fill="none" stroke="rgb(255, 255, 255)" stroke-width="17.00" stroke-opacity="1.00" stroke-linejoin="round"/>
<path d="M1141.17,397.65 C1139.27,397.52 1134.59,399.99 1132.97,401.94 C1127.90,408.01 1122.30,416.68 1117.46,427.09 C1112.61,437.80 1096.39,478.08 1095.70,481.41 C1097.25,478.42 1100.84,471.47 1102.88,467.53 C1103.31,466.71 1103.73,465.89 1104.15,465.07" fill="none" stroke="rgb(255, 255, 255)" stroke-width="17.00" stroke-opacity="1.00" stroke-linejoin="round"/>
<path d="M1135.00,399.84 C1131.90,401.64 1128.64,404.95 1126.68,406.91 C1122.22,411.71 1114.12,426.13 1109.39,435.48 C1098.01,459.24 1094.32,468.25 1091.38,476.37 C1089.93,480.59 1087.47,487.73 1087.86,489.41 C1089.69,486.33 1093.93,479.18 1096.34,475.12 C1096.84,474.27 1097.34,473.43 1097.84,472.59" fill="none" stroke="rgb(255, 255, 255)" stroke-width="17.00" stroke-opacity="1.00" stroke-linejoin="round"/>
<path d="M1120.78,409.82 C1118.72,410.93 1116.31,412.98 1113.61,416.08 C1109.38,421.00 1101.92,434.33 1097.78,442.71 C1093.27,452.12 1089.68,460.92 1086.34,470.38 C1083.49,479.12 1079.86,492.23 1078.73,500.65 C1078.03,505.98 1078.00,506.74 1078.06,508.14 C1078.26,507.80 1078.41,507.50 1078.51,507.25 C1078.65,506.92 1080.78,500.66 1081.15,499.58" fill="none" stroke="rgb(255, 255, 255)" stroke-width="17.00" stroke-opacity="1.00" stroke-linejoin="round"/>
<path d="M1107.67,436.14 C1103.89,441.36 1094.95,453.84 1091.51,459.96 C1088.13,466.03 1083.50,478.25 1080.40,488.08 C1077.77,497.23 1074.90,508.94 1075.13,514.54 C1075.22,517.21 1075.34,520.91 1075.36,525.65 C1075.38,527.31 1075.39,529.69 1075.38,531.14" fill="none" stroke="rgb(255, 255, 255)" stroke-width="17.00" stroke-opacity="1.00" stroke-linejoin="round"/>
<path d="M1051.73,332.33 C1051.89,329.72 1051.48,328.09 1050.01,326.65 C1048.49,325.21 1046.50,324.02 1044.91,323.63 C1041.94,322.98 1036.56,324.16 1033.56,326.23 C1030.07,328.72 1025.90,333.52 1023.61,337.33 C1021.52,340.90 1018.85,347.24 1017.90,350.94 C1016.35,357.14 1015.99,370.41 1016.02,378.46 C1016.03,382.05 1016.12,389.97 1016.33,391.75 C1016.82,395.72 1019.29,402.62 1020.72,405.74 C1024.53,413.92 1030.77,423.35 1037.04,431.39 C1044.09,440.10 1051.69,448.65 1056.64,453.25 C1061.64,457.86 1073.04,466.80 1079.12,471.36 C1091.53,480.33 1118.61,497.67 1132.00,506.22 C1133.26,507.05 1135.41,508.47 1136.29,509.05" fill="none" stroke="rgb(255, 255, 255)" stroke-width="30.00" stroke-opacity="1.00" stroke-linejoin="round"/>
<path d="M1035.45,331.52 C1035.31,330.02 1035.62,327.65 1036.33,326.47 C1037.29,324.94 1043.89,322.22 1047.03,321.89 C1050.68,321.57 1055.94,322.70 1058.71,324.45 C1060.39,325.53 1066.16,330.41 1069.25,332.68 C1072.38,334.97 1079.12,339.16 1080.84,340.47 C1085.59,344.15 1132.43,396.20 1144.64,408.14 C1150.99,414.05 1162.49,424.12 1167.72,428.67 C1173.61,433.72 1180.25,439.43 1181.01,440.08" fill="none" stroke="rgb(255, 255, 255)" stroke-width="30.00" stroke-opacity="1.00" stroke-linejoin="round"/>
<path d="M1093.62,366.74 C1094.34,369.53 1098.02,373.89 1101.64,376.63 C1106.84,380.42 1122.51,392.90 1125.61,395.05 C1131.86,399.37 1152.72,410.64 1153.06,410.91 C1147.04,410.41 1141.82,409.87 1139.35,409.02 C1136.15,407.89 1125.52,401.11 1119.13,395.82 C1112.73,390.35 1103.56,381.58 1099.19,376.88 C1093.56,370.79 1066.62,338.16 1065.33,337.42 C1067.94,343.43 1073.64,353.41 1077.69,359.18 C1097.03,385.23 1124.45,421.85 1124.45,421.83 C1121.11,418.19 1106.01,402.97 1104.35,401.23 C1086.86,382.84 1064.24,349.71 1063.56,349.03 C1066.16,354.70 1071.06,365.17 1076.46,375.23 C1088.12,395.93 1094.41,409.19 1095.91,413.08 C1093.78,411.91 1087.60,404.18 1080.79,395.20 C1069.47,380.14 1050.75,355.21 1043.35,345.34 C1043.35,345.34 1108.01,441.55 1108.01,441.55 C1100.00,429.92 1080.42,400.91 1073.32,389.46 C1069.38,382.98 1059.22,366.78 1056.08,362.54 C1054.81,360.84 1050.16,354.97 1048.60,354.34 C1048.63,358.46 1051.86,371.42 1055.99,382.27 C1058.74,389.21 1065.40,404.85 1068.90,412.53 C1074.88,425.02 1089.90,452.74 1094.99,461.00 C1094.93,461.02 1089.50,448.82 1084.27,439.63 C1075.43,424.50 1058.33,395.55 1050.06,381.74 C1046.81,376.50 1041.64,369.09 1038.61,366.50 C1038.64,369.59 1039.25,372.53 1040.72,377.07 C1044.03,386.77 1048.13,396.86 1052.79,406.96 C1056.57,414.78 1074.56,450.85 1081.20,465.29 C1084.21,472.17 1085.82,477.54 1086.09,478.43 C1079.82,464.84 1068.43,445.01 1058.03,428.60 C1048.98,415.01 1037.78,398.22 1035.63,395.02 C1038.24,402.17 1042.69,410.21 1048.42,419.27 C1059.15,436.24 1068.82,453.43 1070.29,457.34 C1070.29,457.34 1040.44,412.95 1040.44,412.95 C1040.44,412.95 1071.27,458.34 1071.27,458.34 C1071.59,454.75 1071.20,451.10 1069.82,446.57 C1067.69,439.72 1062.39,423.94 1059.94,416.72 C1059.69,415.98 1059.44,415.23 1059.19,414.49" fill="none" stroke="rgb(255, 255, 255)" stroke-width="30.00" stroke-opacity="1.00" stroke-linejoin="round"/>
<path d="M1042.65,382.34 C1040.38,382.47 1039.28,382.18 1038.56,380.85 C1037.15,378.26 1032.84,369.34 1032.18,367.91 C1030.31,363.74 1028.13,356.82 1027.73,353.17 C1027.45,350.50 1027.18,343.57 1027.38,341.28 C1027.67,338.69 1031.71,332.40 1034.09,329.96 C1036.14,327.94 1039.91,326.83 1041.59,326.42 C1039.37,326.12 1036.32,325.85 1035.31,326.06 C1034.06,326.34 1033.18,328.42 1033.15,330.48 C1033.17,332.38 1036.24,351.87 1037.17,357.99" fill="none" stroke="rgb(255, 255, 255)" stroke-width="30.00" stroke-opacity="1.00" stroke-linejoin="round"/>
<path d="M1029.12,421.13 C1028.62,421.10 1028.29,421.10 1028.11,421.13 C1026.53,421.40 1023.06,424.89 1020.31,429.16 C1018.26,432.40 1015.12,439.15 1014.27,441.89 C1012.54,447.64 1011.32,465.02 1012.33,471.46 C1013.20,476.83 1017.63,492.18 1020.13,498.43 C1022.56,504.50 1030.40,520.72 1033.91,526.23 C1037.34,531.58 1046.70,542.32 1053.45,548.75 C1061.95,556.62 1072.22,564.79 1077.80,568.20 C1081.13,570.20 1082.70,570.71 1085.07,571.23 C1078.95,567.46 1064.32,558.30 1061.58,555.58 C1055.66,549.80 1051.98,545.31 1046.21,536.80 C1040.05,527.40 1033.43,515.72 1030.01,508.12 C1023.98,494.63 1017.03,472.25 1017.47,470.00 C1017.54,469.64 1017.84,468.83 1018.37,467.55 C1020.41,467.87 1021.38,468.27 1022.72,469.54 C1028.23,474.63 1036.45,486.37 1040.22,491.79 C1049.68,505.90 1068.30,535.50 1075.95,550.13 C1077.40,552.93 1079.85,557.68 1080.86,559.63 C1080.86,559.63 1034.65,464.35 1034.65,464.35 C1041.13,472.99 1058.62,500.72 1067.91,515.54 C1075.91,528.29 1090.11,550.69 1094.94,557.80 C1091.36,548.20 1074.93,515.70 1066.60,499.35 C1054.76,476.02 1051.45,468.88 1048.67,462.15 C1048.72,461.91 1093.06,524.49 1098.39,532.36 C1102.48,538.60 1107.91,546.86 1109.34,550.02 C1109.02,548.75 1107.16,541.59 1104.68,536.57 C1102.83,532.89 1078.42,493.13 1073.26,483.84 C1069.67,477.23 1067.44,471.24 1067.07,470.26 C1086.05,494.60 1123.36,543.04 1141.69,567.13 C1146.11,572.62 1157.12,585.43 1163.01,591.82 C1167.68,596.77 1180.27,609.90 1181.95,612.21 C1183.73,614.68 1188.81,622.65 1191.18,626.42 C1191.67,627.20 1192.17,627.98 1192.66,628.76" fill="none" stroke="rgb(255, 255, 255)" stroke-width="30.00" stroke-opacity="1.00" stroke-linejoin="round"/>
<path d="M1695.45,344.50 C1695.45,344.50 1693.24,342.97 1693.24,342.97 C1692.82,352.13 1692.78,360.42 1693.16,371.57 C1694.24,391.99 1696.80,416.67 1698.78,430.70 C1701.17,445.94 1706.62,474.95 1709.97,490.07 C1713.79,505.72 1722.05,536.69 1726.28,552.16 C1731.42,569.65 1737.62,589.28 1739.50,592.64 C1739.50,592.64 1741.21,592.02 1741.21,592.02 C1741.96,582.47 1742.10,574.52 1741.18,564.01 C1739.72,549.81 1734.30,516.25 1731.45,501.33 C1723.38,461.93 1716.51,420.88 1714.45,405.72 C1713.67,398.87 1712.16,381.58 1712.26,374.12 C1712.27,373.42 1712.65,361.33 1712.67,360.43 C1717.98,386.18 1731.04,449.61 1738.78,487.28 C1741.85,502.53 1748.40,535.86 1751.88,553.94 C1753.98,566.10 1756.23,582.20 1756.45,583.78 C1756.72,575.08 1756.16,566.49 1755.07,555.23 C1753.23,538.63 1749.33,506.15 1747.08,495.09 C1744.36,479.85 1738.81,447.55 1735.99,430.50 C1733.01,410.37 1730.54,387.31 1729.38,370.60 C1732.15,386.61 1738.63,416.17 1741.65,428.79 C1749.94,462.03 1766.37,526.79 1774.52,558.30 C1776.14,564.10 1778.24,571.62 1778.72,573.35 C1778.20,564.34 1777.34,558.78 1775.44,548.51 C1772.51,533.18 1766.12,499.95 1762.67,482.04 C1759.79,466.28 1754.02,433.46 1752.24,418.80 C1751.41,410.90 1751.25,406.53 1751.22,400.71 C1754.47,414.86 1762.10,446.53 1766.05,461.07 C1770.19,475.24 1778.77,508.26 1782.76,525.56 C1786.40,542.26 1790.84,562.72 1791.66,566.50 C1791.53,560.43 1789.32,549.97 1788.03,543.84 C1784.24,526.38 1777.14,493.07 1773.87,476.08 C1772.15,466.47 1771.26,455.85 1771.01,452.88 C1778.40,483.08 1790.08,530.19 1792.56,541.81 C1794.00,549.52 1795.73,559.85 1795.94,565.44 C1795.84,561.30 1791.35,545.84 1788.93,537.66 C1780.51,506.55 1771.66,463.93 1769.64,453.60 C1772.95,466.40 1780.69,496.53 1785.13,513.88 C1790.48,535.77 1795.55,561.60 1797.25,573.05 C1798.19,579.84 1799.46,588.86 1799.80,591.10 C1800.38,588.89 1799.59,583.59 1798.21,580.34 C1796.44,576.14 1793.33,568.82 1792.00,565.70" fill="none" stroke="rgb(255, 255, 255)" stroke-width="30.00" stroke-opacity="1.00" stroke-linejoin="round"/>
<path d="M1706.42,546.38 C1706.42,546.38 1700.55,543.53 1700.55,543.53 C1699.03,546.92 1697.94,550.97 1697.13,555.82 C1695.56,566.69 1692.17,600.56 1690.77,616.07 C1688.00,651.96 1683.01,717.34 1682.87,718.69 C1684.50,707.93 1702.14,627.75 1709.72,593.16 C1712.65,579.17 1720.32,547.12 1722.70,544.19 C1722.72,552.88 1719.92,587.00 1718.43,603.32 C1717.10,617.13 1714.74,646.79 1713.73,662.65 C1712.66,679.70 1710.31,712.22 1707.95,730.22 C1707.29,734.83 1706.69,738.24 1705.91,741.65 C1710.90,713.28 1722.33,648.56 1728.77,612.21 C1732.06,594.32 1737.33,566.82 1739.32,557.20 C1739.49,563.25 1737.89,611.95 1737.46,617.17 C1736.73,625.27 1736.57,707.88 1736.57,735.64 C1739.85,718.19 1749.68,645.75 1754.17,611.89 C1755.33,603.69 1758.19,584.34 1759.51,576.64 C1760.51,571.61 1762.33,562.62 1764.33,556.40 C1764.75,568.13 1764.94,593.90 1764.42,616.15 C1763.11,650.00 1760.78,707.67 1759.88,719.09 C1759.74,711.51 1765.38,676.70 1768.02,661.03 C1769.54,652.42 1772.28,637.09 1773.50,630.36 C1776.00,617.36 1777.81,610.54 1780.80,602.10 C1789.61,578.01 1791.73,573.63 1792.17,572.73 C1792.41,580.53 1792.02,588.28 1791.07,598.12 C1787.81,629.19 1781.07,692.33 1777.61,720.11 C1779.72,706.00 1784.66,675.15 1787.74,658.55 C1789.27,651.04 1791.92,638.53 1794.30,629.97 C1795.50,625.81 1801.98,606.85 1804.61,600.97 C1807.53,594.49 1811.92,587.46 1814.53,584.83 C1815.26,585.06 1815.49,585.65 1815.50,587.76 C1815.61,595.17 1814.52,613.22 1814.15,616.77 C1810.79,648.08 1803.27,678.66 1802.87,679.95 C1806.85,656.09 1808.32,641.93 1808.11,635.96 C1807.97,632.31 1807.32,626.98 1807.18,625.83" fill="none" stroke="rgb(255, 255, 255)" stroke-width="30.00" stroke-opacity="1.00" stroke-linejoin="round"/>
<path d="M1757.31,552.87 C1757.21,549.78 1757.06,542.86 1758.13,540.51 C1760.63,535.19 1769.79,524.78 1778.31,516.89 C1781.56,513.91 1786.90,511.63 1789.75,510.53 C1792.82,509.07 1799.40,505.99 1802.15,505.17 C1805.40,504.22 1819.63,502.50 1829.06,500.16 C1830.89,499.69 1839.35,497.56 1842.86,497.34 C1846.07,497.16 1862.42,497.14 1863.09,497.15 C1865.26,497.21 1867.74,497.84 1869.56,498.78 C1871.02,499.58 1873.55,501.53 1874.28,502.49 C1875.82,504.60 1877.39,511.31 1877.87,514.35 C1878.79,520.44 1879.15,535.17 1878.03,538.34 C1876.44,542.62 1867.89,553.24 1862.07,558.42 C1856.24,563.40 1843.32,574.33 1841.54,575.02 C1839.88,575.63 1832.79,576.92 1829.87,577.58" fill="none" stroke="rgb(255, 255, 255)" stroke-width="30.00" stroke-opacity="1.00" stroke-linejoin="round"/>
<path d="M1863.71,523.34 C1863.77,532.60 1862.84,541.71 1860.35,547.14 C1859.01,549.99 1854.69,556.70 1852.27,559.66 C1848.12,564.67 1837.56,573.50 1831.48,576.61 C1828.05,578.32 1822.07,580.05 1817.50,580.17 C1815.28,580.21 1813.18,579.87 1812.09,579.29 C1811.08,578.72 1807.73,573.51 1807.34,571.67 C1806.57,567.77 1808.14,550.43 1810.33,543.08 C1816.64,522.32 1823.25,515.68 1824.98,514.41 C1826.08,517.86 1826.23,531.29 1825.46,537.36 C1825.01,540.71 1822.71,547.94 1821.29,550.12 C1820.11,551.88 1817.43,554.49 1815.90,555.29 C1814.44,556.00 1811.10,556.39 1809.98,555.85 C1808.97,555.34 1806.98,553.02 1805.50,550.96 C1804.10,548.90 1803.73,544.23 1803.97,539.48 C1804.24,534.87 1805.82,528.18 1807.75,524.64 C1809.52,521.52 1813.50,518.15 1815.15,517.00 C1816.99,517.13 1819.72,518.06 1821.25,519.28 C1822.40,520.22 1825.01,526.81 1825.94,530.82 C1827.28,536.79 1828.23,551.00 1827.21,557.47 C1826.73,560.33 1825.17,563.71 1824.50,564.77 C1823.19,563.24 1822.76,562.13 1822.94,560.08 C1823.55,553.22 1828.69,536.63 1831.50,530.14 C1834.86,522.42 1838.92,516.63 1839.91,515.41 C1841.64,516.77 1842.30,517.76 1842.39,519.57 C1842.68,525.74 1841.00,541.14 1839.69,547.19 C1838.04,554.64 1835.36,561.01 1834.69,562.39 C1833.61,561.73 1833.27,560.99 1833.46,559.15 C1834.88,546.15 1841.72,522.26 1844.53,515.98 C1845.50,517.03 1845.81,518.03 1845.63,520.28 C1845.20,526.10 1843.67,539.25 1841.09,549.31 C1836.94,564.36 1827.98,595.10 1827.93,595.33 C1827.85,595.71 1827.76,596.40 1827.64,597.41" fill="none" stroke="rgb(255, 255, 255)" stroke-width="30.00" stroke-opacity="1.00" stroke-linejoin="round"/>
<path d="M1824.99,585.02 C1826.44,586.15 1828.61,588.06 1829.39,589.13 C1829.99,589.96 1833.53,597.02 1836.12,600.52 C1837.79,602.86 1840.52,608.48 1841.67,611.59 C1842.94,615.07 1844.42,621.25 1844.56,625.04 C1844.71,630.20 1843.62,650.17 1843.55,651.17 C1843.27,654.42 1840.92,660.46 1838.96,663.94 C1837.54,666.43 1832.19,674.68 1831.56,675.54 C1828.77,679.32 1824.18,683.61 1821.66,685.55 C1816.16,689.73 1804.12,696.64 1797.41,700.27 C1789.91,704.11 1778.93,709.41 1776.19,710.71 C1776.19,710.71 1770.50,705.38 1770.50,705.38" fill="none" stroke="rgb(255, 255, 255)" stroke-width="30.00" stroke-opacity="1.00" stroke-linejoin="round"/>
<path d="M1821.90,611.12 C1821.98,618.55 1822.05,639.56 1821.82,642.53 C1821.49,646.44 1820.93,649.29 1820.12,650.99 C1818.77,653.71 1817.00,656.66 1816.19,657.94 C1816.19,657.94 1815.25,657.47 1815.25,657.47 C1815.03,655.23 1815.86,650.33 1817.46,643.98 C1820.88,631.47 1822.41,627.74 1822.91,626.77 C1822.91,626.77 1824.14,626.98 1824.14,626.98 C1825.69,639.02 1821.31,657.25 1820.11,661.11 C1819.38,663.41 1818.59,664.20 1817.28,664.38 C1816.59,659.21 1818.50,646.61 1819.77,642.62 C1819.90,647.09 1817.35,664.19 1815.89,672.75 C1814.89,677.87 1813.18,684.91 1812.02,687.24 C1810.92,689.25 1808.07,694.67 1806.57,697.95" fill="none" stroke="rgb(255, 255, 255)" stroke-width="30.00" stroke-opacity="1.00" stroke-linejoin="round"/>
<path d="M1092.77,527.49 C1087.95,527.94 1082.70,529.41 1081.21,531.07 C1079.07,533.92 1075.28,536.69 1073.10,539.36 C1068.62,544.97 1058.99,556.96 1056.68,561.23 C1053.59,567.02 1048.41,581.89 1046.84,587.98 C1045.51,593.22 1042.84,608.50 1042.24,615.58 C1041.65,622.63 1041.78,641.47 1042.01,645.40 C1042.51,653.77 1045.40,668.67 1047.98,677.93 C1051.20,689.01 1054.63,699.49 1057.38,706.16 C1061.18,715.08 1067.77,728.65 1069.51,731.95 C1073.36,739.22 1081.68,751.68 1086.57,757.88 C1091.93,764.66 1101.58,774.72 1108.50,781.07 C1116.73,788.36 1128.63,797.64 1132.51,800.38 C1139.12,805.02 1154.32,813.79 1158.61,816.00 C1165.79,819.67 1178.16,824.77 1189.02,828.66 C1212.93,836.47 1220.91,838.29 1227.98,839.74 C1227.98,839.74 1229.58,835.23 1229.58,835.23" fill="none" stroke="rgb(255, 255, 255)" stroke-width="50.00" stroke-opacity="1.00" stroke-linejoin="round"/>
<path d="M1068.58,621.44 C1068.53,622.52 1068.25,628.86 1069.11,633.38 C1069.95,637.69 1075.54,654.90 1078.90,663.11 C1080.46,666.88 1088.27,683.44 1091.32,688.82 C1095.40,695.99 1104.45,709.51 1109.22,716.28 C1114.38,723.27 1123.87,735.97 1128.20,741.68 C1134.02,749.27 1142.54,758.68 1146.38,762.06 C1148.71,764.10 1182.66,791.32 1195.88,802.23 C1201.06,806.54 1210.27,814.10 1215.58,817.12 C1224.89,822.37 1235.24,827.51 1244.36,831.32 C1251.73,834.24 1266.89,840.04 1274.11,842.52 C1282.77,845.29 1294.30,847.92 1302.63,848.92 C1311.95,849.90 1324.47,850.56 1332.61,850.80 C1341.62,850.92 1354.81,849.89 1363.82,848.56 C1371.15,847.37 1386.21,843.89 1392.14,841.06 C1395.48,839.45 1401.40,835.82 1406.49,832.42 C1411.21,829.21 1411.65,828.80 1412.32,827.83" fill="none" stroke="rgb(255, 255, 255)" stroke-width="50.00" stroke-opacity="1.00" stroke-linejoin="round"/>
<path d="M1053.27,644.07 C1051.07,644.54 1048.16,645.29 1047.33,645.78 C1046.44,646.32 1045.89,648.05 1045.41,650.76 C1044.02,658.71 1041.57,673.88 1041.95,680.60 C1042.37,687.27 1045.15,701.86 1046.77,707.58 C1048.45,713.48 1065.03,752.56 1068.74,758.83 C1072.22,764.67 1078.84,773.12 1087.17,782.96 C1099.99,797.75 1115.56,814.40 1126.57,824.34 C1131.61,828.83 1145.53,841.05 1146.88,842.13 C1152.11,846.31 1160.86,850.40 1171.66,854.82 C1179.83,858.03 1198.18,865.06 1202.49,866.51 C1209.64,868.90 1222.11,871.89 1228.59,873.12 C1246.09,876.11 1267.91,878.85 1289.88,880.53 C1296.60,880.95 1313.23,881.74 1318.07,881.76 C1326.25,881.64 1338.66,880.96 1346.73,880.36 C1360.92,879.02 1389.42,874.52 1409.91,870.51 C1416.85,869.05 1433.43,865.32 1438.94,863.66 C1449.38,860.42 1477.94,848.91 1490.31,842.65 C1519.55,826.89 1593.52,786.68 1604.37,780.44 C1613.54,774.92 1614.53,774.08 1616.11,772.47 C1616.11,772.47 1613.04,764.36 1613.04,764.36" fill="none" stroke="rgb(255, 255, 255)" stroke-width="50.00" stroke-opacity="1.00" stroke-linejoin="round"/>
<path d="M1557.27,787.55 C1553.30,790.09 1540.67,795.61 1534.39,798.33 C1518.01,805.30 1485.31,818.23 1468.70,824.13 C1461.22,826.60 1447.82,830.93 1441.90,832.80 C1431.43,835.90 1420.26,838.15 1412.35,839.26 C1406.30,840.00 1399.11,840.11 1398.18,839.27 C1396.93,838.06 1396.58,835.61 1397.40,834.14 C1402.19,825.97 1408.46,817.34 1414.16,812.08 C1419.11,807.54 1430.58,798.88 1437.21,794.68 C1443.62,790.63 1453.96,785.46 1463.72,781.06 C1472.96,777.19 1483.32,773.33 1490.04,771.66 C1497.27,769.87 1512.31,767.49 1519.96,767.58 C1522.45,767.62 1529.97,767.92 1531.31,767.97 C1530.53,770.00 1528.82,773.17 1527.46,774.86 C1526.19,776.41 1511.10,785.65 1506.18,787.97 C1502.15,789.86 1486.35,796.49 1479.40,799.35 C1464.10,805.25 1432.33,815.14 1416.75,819.76 C1398.46,824.90 1368.04,832.46 1363.14,833.26 C1357.66,834.14 1341.56,835.56 1338.90,835.23 C1340.15,832.37 1344.26,827.92 1346.22,826.19 C1350.44,822.50 1365.01,812.36 1370.19,809.82 C1374.39,807.77 1394.05,799.88 1399.80,798.08 C1412.30,794.21 1433.64,792.11 1434.76,791.99 C1428.57,793.68 1413.49,797.72 1403.75,799.80 C1392.25,802.02 1356.33,807.20 1340.29,809.39 C1320.81,811.69 1296.32,812.34 1291.52,812.34 C1301.94,807.36 1311.30,803.37 1320.01,801.21 C1322.02,800.70 1330.81,798.19 1334.47,797.00 C1338.50,795.62 1346.64,792.75 1350.75,791.25 C1351.60,790.94 1352.44,790.63 1353.29,790.32" fill="none" stroke="rgb(255, 255, 255)" stroke-width="50.00" stroke-opacity="1.00" stroke-linejoin="round"/>
<path d="M1185.12,853.45 C1186.78,854.34 1187.84,854.97 1188.29,855.34 C1188.96,855.90 1195.44,865.34 1197.91,867.08 C1203.40,870.69 1213.64,877.44 1221.13,880.33 C1227.21,882.65 1243.81,886.49 1248.60,887.95 C1252.63,889.18 1261.12,892.40 1262.65,892.90 C1269.12,895.04 1281.87,896.91 1293.73,898.04 C1300.46,898.66 1319.61,899.85 1322.99,899.84 C1333.45,899.78 1369.33,895.09 1386.41,892.77 C1394.00,891.61 1409.81,889.04 1418.21,887.41 C1429.10,885.10 1460.95,873.85 1476.37,868.23 C1483.10,865.72 1496.57,860.56 1503.33,857.92 C1509.05,855.61 1543.01,837.17 1557.51,829.15 C1571.26,821.44 1603.71,802.95 1609.89,798.61 C1615.83,794.42 1650.97,765.97 1654.22,763.48 C1670.45,751.38 1718.81,719.09 1724.95,715.01 C1723.53,714.11 1716.33,713.08 1712.10,712.47 C1710.22,712.21 1707.04,711.76 1705.73,711.58" fill="none" stroke="rgb(255, 255, 255)" stroke-width="50.00" stroke-opacity="1.00" stroke-linejoin="round"/>
<path d="M1299.15,895.81 C1300.12,895.41 1301.99,895.19 1303.32,895.49 C1305.12,895.92 1320.53,905.72 1325.47,909.04 C1329.27,911.54 1333.50,913.44 1335.64,913.86 C1338.78,914.45 1358.03,915.18 1365.37,915.37 C1373.00,915.42 1419.65,913.55 1421.37,913.32 C1426.44,912.61 1442.94,908.48 1449.66,906.74 C1457.48,904.59 1475.32,899.05 1481.01,897.02 C1492.83,892.63 1524.73,879.13 1538.92,872.75 C1553.15,866.05 1576.35,852.57 1589.56,844.53 C1606.50,833.69 1628.79,817.97 1641.47,808.52 C1653.05,799.68 1678.68,778.90 1687.22,771.20 C1695.47,763.52 1726.21,732.20 1729.82,727.55 C1730.92,726.12 1738.15,713.93 1742.66,707.06" fill="none" stroke="rgb(255, 255, 255)" stroke-width="50.00" stroke-opacity="1.00" stroke-linejoin="round"/>
<path d="M1756.79,693.24 C1757.85,695.10 1757.97,701.13 1758.02,705.28 C1758.03,714.75 1756.83,724.54 1755.09,731.41 C1753.36,738.19 1746.86,751.54 1742.76,757.55 C1738.10,764.35 1732.05,771.08 1728.14,774.33 C1728.14,774.33 1726.38,768.96 1726.38,768.96" fill="none" stroke="rgb(255, 255, 255)" stroke-width="50.00" stroke-opacity="1.00" stroke-linejoin="round"/>
<path d="M1765.02,709.98 C1765.13,712.10 1765.20,715.64 1765.11,717.45 C1764.95,720.41 1763.29,727.01 1761.84,730.39 C1756.31,743.06 1743.69,759.37 1741.68,761.72 C1740.81,762.73 1739.38,764.32 1738.72,765.02" fill="none" stroke="rgb(255, 255, 255)" stroke-width="50.00" stroke-opacity="1.00" stroke-linejoin="round"/>
<path d="M1765.87,719.09 C1765.66,722.78 1764.92,726.19 1763.03,730.38 C1759.65,737.30 1753.59,751.32 1751.63,754.76 C1747.52,761.88 1739.62,775.42 1735.82,781.83 C1732.43,787.27 1731.36,788.53 1726.11,793.44 C1720.70,798.34 1708.15,809.64 1702.04,814.92 C1697.76,818.47 1694.78,820.41 1691.91,820.86 C1689.75,821.18 1686.20,821.59 1684.83,821.81" fill="none" stroke="rgb(255, 255, 255)" stroke-width="50.00" stroke-opacity="1.00" stroke-linejoin="round"/>
<path d="M1756.11,736.44 C1755.59,737.19 1753.91,739.65 1753.38,740.46 C1745.07,753.21 1725.88,781.83 1719.44,789.34 C1715.34,794.11 1703.98,805.66 1698.64,810.45 C1693.15,815.17 1682.15,824.16 1676.87,828.04 C1669.43,833.32 1660.40,838.91 1652.73,843.05 C1646.24,846.43 1631.47,853.66 1623.34,857.31 C1615.44,860.68 1599.70,866.86 1591.56,869.97 C1583.97,872.71 1568.69,877.80 1564.08,877.94 C1558.02,877.90 1550.93,877.86 1549.90,877.88" fill="none" stroke="rgb(255, 255, 255)" stroke-width="50.00" stroke-opacity="1.00" stroke-linejoin="round"/>
<path d="M1401.35,895.67 C1401.82,896.64 1402.19,897.26 1402.48,897.53 C1402.86,897.88 1412.44,901.72 1415.31,902.79 C1421.90,905.20 1432.01,906.42 1442.10,907.01 C1447.14,907.25 1464.19,907.36 1469.91,907.15 C1478.23,906.73 1496.71,905.71 1498.78,905.43 C1500.83,905.14 1518.65,901.20 1526.48,899.44 C1539.14,896.36 1568.12,887.13 1582.48,882.49 C1590.31,880.01 1603.29,874.65 1609.05,871.72 C1618.17,867.05 1650.49,845.97 1657.63,839.97 C1663.00,835.30 1674.93,824.64 1677.09,821.98 C1679.88,818.53 1690.70,802.67 1695.41,795.58 C1701.33,786.29 1706.99,776.62 1711.03,768.66 C1720.01,750.27 1726.03,735.86 1733.93,712.72 C1734.94,709.72 1736.30,705.65 1736.66,704.58" fill="none" stroke="rgb(255, 255, 255)" stroke-width="50.00" stroke-opacity="1.00" stroke-linejoin="round"/>
<path d="M1604.47,865.26 C1609.49,863.96 1614.02,862.49 1617.80,860.60 C1624.81,856.89 1640.21,849.09 1644.86,847.99 C1650.51,846.86 1669.10,839.80 1673.18,837.63 C1677.15,835.50 1681.13,832.04 1684.41,828.61 C1687.00,825.87 1704.81,804.39 1705.07,804.06 C1707.53,800.95 1708.96,796.84 1709.85,793.81 C1710.93,790.11 1712.34,785.27 1712.67,784.12" fill="none" stroke="rgb(255, 255, 255)" stroke-width="50.00" stroke-opacity="1.00" stroke-linejoin="round"/>
<path d="M1105.81,743.27 C1104.20,732.99 1103.32,723.21 1103.24,713.39 C1103.36,703.62 1104.14,690.10 1106.55,684.35 C1108.98,678.70 1116.17,665.71 1120.78,659.80 C1125.69,653.57 1136.93,642.47 1142.34,638.26 C1146.91,634.73 1159.27,627.25 1165.91,624.16 C1173.47,620.66 1185.38,616.62 1194.50,614.19 C1202.55,612.13 1215.21,609.93 1224.42,608.92 C1232.10,608.23 1245.25,607.37 1254.85,607.14 C1265.45,607.05 1278.07,607.47 1284.91,608.28 C1292.68,609.23 1308.58,612.51 1314.73,614.32 C1321.68,616.40 1338.07,623.35 1340.94,624.79 C1346.73,627.69 1358.64,635.23 1364.33,639.40 C1370.64,644.12 1380.86,653.67 1386.35,659.44 C1391.79,665.19 1400.59,675.57 1405.49,682.41 C1411.03,690.38 1417.86,701.15 1420.16,705.93 C1422.22,710.25 1428.79,726.81 1431.63,734.55 C1435.16,744.83 1438.83,757.25 1440.46,764.88 C1443.89,782.38 1448.06,809.49 1449.11,824.48 C1449.55,833.40 1449.40,844.64 1448.79,854.63 C1448.49,858.66 1447.46,864.04 1446.24,867.36 C1445.15,870.26 1442.22,876.45 1440.20,879.26 C1437.85,882.48 1434.30,886.15 1430.77,889.01 C1428.28,891.00 1423.70,894.05 1419.85,895.44 C1416.70,896.56 1399.05,900.88 1392.20,902.28 C1385.13,903.55 1370.94,905.93 1363.80,907.02 C1355.11,908.21 1343.13,908.99 1333.51,908.99 C1326.00,908.92 1308.03,908.66 1304.07,908.17 C1297.13,907.28 1282.87,903.27 1278.10,901.91" fill="none" stroke="rgb(255, 240, 161)" stroke-width="50.00" stroke-opacity="1.00" stroke-linejoin="round"/>
<path d="M1099.75,705.19 C1099.17,712.42 1099.09,724.41 1099.47,732.61 C1099.64,736.34 1100.56,744.48 1101.54,748.27 C1101.87,749.53 1111.26,772.94 1112.20,774.60 C1114.75,779.14 1125.44,793.52 1130.44,800.06 C1135.56,806.48 1145.54,818.76 1150.40,824.61 C1156.05,831.27 1166.36,842.01 1171.53,846.57 C1175.43,850.00 1192.65,863.17 1196.40,865.79 C1210.67,875.53 1229.92,886.48 1235.64,888.43 C1247.72,892.46 1272.54,893.18 1277.63,894.08 C1280.89,894.64 1285.41,895.42 1286.66,895.64" fill="none" stroke="rgb(255, 240, 161)" stroke-width="50.00" stroke-opacity="1.00" stroke-linejoin="round"/>
<path d="M1130.23,681.95 C1130.23,681.95 1126.88,680.62 1126.88,680.62 C1126.42,683.64 1126.45,686.34 1127.08,691.13 C1128.11,698.17 1131.84,711.84 1133.65,717.28 C1137.80,729.15 1151.10,763.09 1157.19,778.28 C1160.54,786.19 1165.74,797.68 1170.03,806.15 C1173.25,812.24 1182.03,827.76 1183.83,830.61 C1187.22,835.98 1196.16,847.91 1199.89,850.79 C1202.87,853.02 1204.25,852.81 1205.58,852.01 C1205.70,848.33 1205.42,844.32 1204.73,841.03 C1203.66,836.08 1188.90,800.90 1182.55,786.09 C1176.27,771.42 1162.68,738.30 1158.39,726.28 C1152.27,708.24 1146.75,689.25 1145.05,683.12 C1151.16,697.78 1160.62,717.65 1169.11,734.20 C1176.50,748.35 1192.54,778.77 1201.19,795.05 C1208.54,808.52 1229.63,846.25 1235.20,854.76 C1243.57,867.51 1247.02,871.28 1247.51,871.62 C1245.12,863.05 1242.92,857.43 1238.92,849.05 C1232.58,836.08 1217.94,806.31 1209.64,789.51 C1202.63,774.76 1185.68,737.79 1181.17,726.08 C1178.35,718.57 1169.53,686.25 1166.63,671.57 C1165.36,664.28 1163.34,650.87 1163.39,642.96 C1163.44,638.47 1163.55,637.77 1163.98,636.17 C1165.80,636.67 1166.76,637.19 1167.87,638.42 C1171.26,642.22 1178.70,653.49 1182.48,659.29 C1189.43,670.52 1206.12,701.25 1213.55,715.87 C1227.25,743.71 1254.27,800.16 1269.10,830.84 C1276.64,846.15 1287.14,867.45 1290.09,873.44 C1283.28,863.48 1266.33,838.64 1256.42,823.55 C1251.91,816.29 1242.87,801.38 1238.27,793.29 C1231.56,780.96 1216.87,750.13 1210.91,737.29 C1204.64,722.84 1193.54,690.19 1191.84,683.22 C1188.26,668.44 1187.66,653.46 1188.07,648.70 C1188.31,646.32 1189.63,643.68 1191.06,642.73 C1191.79,642.29 1195.32,643.04 1196.28,643.53 C1200.09,645.64 1210.41,659.24 1213.83,664.53 C1217.38,670.04 1262.11,748.20 1278.84,778.71 C1284.68,789.95 1297.22,817.57 1303.04,830.76 C1309.13,845.21 1318.70,869.64 1324.02,885.03 C1316.96,876.88 1311.29,869.78 1308.09,864.86 C1304.39,859.16 1284.31,824.41 1275.85,809.63 C1268.89,797.14 1255.34,771.10 1248.07,755.14 C1240.24,736.76 1231.13,712.58 1226.35,695.63 C1224.51,688.57 1220.81,673.42 1219.18,665.71 C1217.27,655.52 1215.91,645.66 1215.42,637.13 C1215.16,632.27 1214.97,625.83 1215.04,622.60 C1215.13,619.15 1216.48,615.56 1217.10,614.33 C1218.25,614.15 1220.24,614.15 1221.21,614.55 C1224.84,616.12 1233.60,629.91 1237.16,635.55 C1245.53,649.35 1259.49,672.90 1265.08,682.66 C1275.75,703.01 1310.42,772.96 1326.58,805.70 C1341.32,835.71 1370.43,895.10 1369.59,895.09 C1358.38,880.72 1344.69,862.02 1333.89,845.72 C1325.31,832.08 1307.04,802.41 1301.57,792.67 C1295.25,780.76 1281.52,752.91 1274.49,738.33 C1270.55,729.66 1264.43,714.70 1262.45,709.13 C1260.16,702.42 1255.97,688.77 1254.07,681.74 C1251.94,673.25 1250.07,662.71 1249.30,653.74 C1248.86,648.24 1248.56,643.27 1248.44,639.18 C1248.33,634.69 1248.87,629.66 1249.94,626.87 C1250.51,625.52 1252.03,623.90 1253.28,623.52 C1254.64,623.15 1257.24,623.63 1259.05,624.48 C1262.69,626.30 1267.42,630.47 1270.57,634.15 C1275.78,640.30 1283.64,652.09 1287.30,657.96 C1295.76,672.26 1310.32,698.25 1318.34,712.72 C1325.96,727.07 1341.21,756.25 1348.85,771.08 C1355.62,784.75 1368.23,811.91 1375.23,828.89 C1377.60,834.73 1383.03,848.45 1386.10,856.34 C1389.47,865.39 1390.24,869.73 1389.98,872.89 C1387.30,871.40 1385.93,870.40 1384.52,868.73 C1380.11,863.53 1371.27,851.02 1366.85,844.42 C1359.44,832.79 1344.55,807.55 1337.44,794.63 C1330.41,781.26 1316.69,753.19 1311.25,739.42 C1308.68,732.49 1303.84,717.91 1302.30,711.68 C1301.15,707.00 1297.95,688.92 1297.41,682.27 C1296.74,673.89 1296.83,659.54 1297.76,652.17 C1298.23,648.59 1300.10,641.58 1301.49,638.23 C1302.95,634.82 1308.01,628.64 1310.91,626.76 C1313.71,625.01 1320.64,623.53 1323.72,623.95 C1327.06,624.46 1332.46,626.55 1335.17,628.43 C1340.81,632.42 1349.38,642.23 1354.42,649.90 C1358.16,655.60 1366.26,670.31 1369.96,677.53 C1374.23,686.20 1386.20,714.11 1393.41,733.50 C1399.30,750.07 1405.29,773.10 1409.70,793.10 C1411.51,801.78 1414.90,820.32 1415.56,825.47 C1416.47,832.76 1416.75,849.75 1416.36,853.20 C1416.11,855.28 1415.35,857.28 1414.46,858.28 C1413.48,859.27 1411.53,860.09 1409.78,860.17 C1406.53,860.25 1399.43,857.75 1396.41,856.05 C1390.22,852.51 1380.15,842.76 1374.78,836.03 C1370.75,830.95 1361.60,817.43 1357.37,810.71 C1354.51,806.00 1346.34,791.23 1342.90,784.58 C1340.49,779.76 1332.84,762.71 1330.74,757.38 C1328.11,750.54 1323.68,735.13 1322.39,728.80 C1320.98,721.83 1319.43,706.74 1319.59,700.58 C1319.81,693.02 1322.03,682.77 1323.16,680.68 C1324.18,678.89 1327.00,675.84 1328.56,674.96 C1330.07,674.14 1333.96,673.41 1335.79,673.50 C1338.18,673.67 1344.63,676.59 1347.47,679.04 C1353.08,683.96 1361.67,694.31 1364.79,699.49 C1368.62,705.89 1391.44,749.48 1395.67,758.53 C1398.87,765.53 1403.81,779.91 1405.27,784.66 C1408.40,795.26 1411.33,806.74 1412.29,813.41 C1413.25,820.21 1414.15,834.83 1413.63,840.01 C1413.31,843.01 1411.56,849.32 1409.86,850.89 C1408.84,851.76 1406.13,852.38 1404.21,852.20 C1402.07,851.96 1399.04,850.96 1397.14,849.91 C1393.53,847.85 1388.72,843.84 1385.78,840.81 C1380.76,835.57 1372.25,823.58 1368.92,818.20 C1362.70,807.92 1348.62,778.93 1342.42,763.93 C1338.95,755.10 1334.73,743.05 1332.48,736.08 C1329.63,726.57 1326.90,715.96 1325.16,707.04 C1323.41,696.97 1322.09,684.80 1321.96,677.80 C1321.89,672.90 1322.37,665.91 1323.83,662.67 C1324.04,662.21 1324.42,661.52 1324.96,660.59 C1326.25,660.06 1328.55,659.70 1329.93,660.05 C1331.87,660.57 1338.01,666.49 1340.28,669.40 C1344.46,674.88 1350.28,684.27 1354.88,692.74 C1361.65,706.13 1375.35,736.01 1379.50,746.11 C1386.93,765.07 1395.32,790.81 1397.64,800.97 C1399.41,808.83 1400.52,819.75 1400.86,830.60 C1400.89,838.13 1400.90,852.93 1399.32,854.38 C1398.31,855.22 1397.20,855.63 1395.98,855.61 C1394.43,855.54 1388.55,849.91 1385.87,846.41 C1382.45,841.85 1374.35,827.26 1371.39,820.47 C1369.13,815.25 1362.48,796.40 1360.81,790.95 C1358.72,783.82 1354.44,767.45 1353.22,761.79 C1351.65,753.84 1349.02,737.44 1348.51,731.28 C1347.91,723.86 1347.96,708.71 1349.03,705.39 C1349.61,703.62 1350.87,701.25 1351.73,700.07 C1353.09,699.92 1355.37,700.18 1356.66,700.84 C1359.84,702.52 1369.35,718.14 1373.10,725.48 C1374.70,728.60 1382.79,746.21 1384.82,751.13 C1387.52,757.99 1392.55,771.99 1394.60,779.04 C1396.55,786.34 1400.01,800.37 1400.77,804.74 C1401.59,809.57 1402.89,830.33 1403.40,839.33 C1403.98,851.66 1403.31,861.27 1403.09,861.67 C1402.60,862.41 1402.03,862.61 1401.38,862.27 C1400.24,861.64 1395.53,854.10 1394.44,852.41" fill="none" stroke="rgb(255, 240, 161)" stroke-width="50.00" stroke-opacity="1.00" stroke-linejoin="round"/>
<path d="M1241.58,869.90 C1240.87,871.52 1241.43,874.76 1243.13,877.26 C1245.77,881.03 1247.40,883.01 1250.12,885.46 C1255.67,890.32 1267.93,900.40 1272.09,902.29 C1273.57,902.95 1279.29,904.51 1282.42,905.04 C1285.52,905.55 1290.11,905.24 1291.38,903.79 C1292.41,902.58 1292.90,901.34 1292.80,900.36 C1292.77,900.14 1292.75,899.79 1292.75,899.33" fill="none" stroke="rgb(255, 240, 161)" stroke-width="50.00" stroke-opacity="1.00" stroke-linejoin="round"/>
<path d="M1229.80,472.26 C1229.80,472.26 1229.55,471.66 1229.55,471.66 C1229.22,480.13 1230.42,493.92 1232.08,501.12 C1233.86,508.76 1238.62,522.06 1240.40,524.93 C1240.04,521.10 1236.58,505.03 1235.21,494.81 C1234.39,487.40 1233.27,477.25 1232.92,472.29 C1233.75,481.64 1234.67,489.28 1236.28,498.83 C1238.19,508.59 1241.75,522.51 1242.53,523.06 C1242.53,523.06 1236.98,470.64 1236.98,470.64 C1236.98,470.64 1245.86,522.80 1245.86,522.80 C1244.93,515.35 1242.86,500.65 1241.71,493.39 C1240.64,485.75 1240.18,476.61 1240.14,468.45 C1240.14,468.45 1248.06,517.43 1248.06,517.43 C1246.64,510.71 1242.91,492.23 1242.31,487.78 C1241.94,484.93 1241.31,472.31 1241.63,468.64 C1243.44,472.39 1246.48,488.37 1247.71,495.93 C1248.99,504.89 1250.46,516.43 1250.91,519.98 C1250.98,520.03 1247.91,501.78 1246.91,494.32 C1245.05,476.91 1245.03,464.46 1245.05,461.97 C1247.75,499.67 1253.04,521.49 1253.95,524.00 C1255.05,521.98 1254.01,512.07 1252.20,500.57 C1248.51,477.61 1248.52,466.52 1248.52,464.43 C1248.31,470.44 1250.04,485.03 1251.04,493.14 C1252.71,504.85 1253.88,510.60 1255.36,515.65 C1254.97,506.30 1253.31,491.62 1252.96,486.03 C1252.60,478.48 1252.12,460.41 1252.12,457.92 C1252.35,463.04 1253.99,479.42 1254.89,488.29 C1255.89,497.03 1257.94,513.91 1259.44,518.40 C1259.94,519.88 1260.48,520.76 1261.05,521.25 C1261.35,518.71 1260.94,511.90 1260.39,508.01 C1260.02,505.38 1256.92,488.26 1256.12,480.20 C1255.51,472.98 1254.77,461.26 1254.53,456.93 C1254.53,456.93 1262.96,512.76 1262.96,512.76 C1262.96,512.76 1259.56,455.43 1259.56,455.43 C1259.56,455.42 1261.16,477.44 1261.77,482.39 C1262.72,489.28 1265.52,505.81 1267.07,510.07 C1267.53,511.31 1268.28,512.53 1269.17,513.72 C1269.75,507.08 1268.96,497.50 1267.49,485.95 C1264.65,464.57 1264.50,455.17 1264.17,452.66 C1264.67,463.07 1265.47,473.16 1266.79,480.46 C1270.60,500.55 1273.40,504.65 1274.40,505.75 C1275.57,504.05 1273.39,488.62 1272.32,481.20 C1270.88,470.32 1270.16,462.10 1269.89,453.27 C1269.89,453.27 1281.12,502.75 1281.12,502.75 C1281.12,502.75 1276.33,459.07 1276.33,459.07 C1276.33,459.07 1286.15,496.69 1286.15,496.69 C1286.16,496.70 1282.30,479.29 1280.70,471.34 C1278.99,462.25 1278.42,452.81 1278.29,450.55 C1278.29,450.55 1287.18,493.60 1287.18,493.60 C1281.65,481.19 1277.34,462.51 1277.76,462.35 C1277.76,462.35 1285.90,492.74 1285.90,492.74 C1285.90,492.74 1280.41,465.81 1280.41,465.81 C1280.41,465.81 1286.36,493.10 1286.36,493.10 C1282.41,482.95 1279.38,465.59 1279.31,464.62 C1280.53,467.34 1285.13,483.25 1287.38,491.10 C1288.72,495.83 1288.71,496.76 1288.04,497.32 C1287.88,497.44 1287.66,497.67 1287.37,497.99" fill="none" stroke="rgb(255, 233, 26)" stroke-width="10.00" stroke-opacity="1.00" stroke-linejoin="round"/>
<path d="M1511.40,247.13 C1513.90,247.20 1517.75,248.73 1521.73,251.37 C1522.33,251.78 1522.94,252.18 1523.54,252.59 C1523.54,252.59 1515.00,247.51 1515.00,247.51 C1517.53,246.83 1532.00,250.21 1537.03,251.44 C1528.12,248.63 1523.64,244.50 1522.73,243.25 C1522.73,243.25 1523.25,242.05 1523.25,242.05 C1527.02,242.63 1533.99,245.71 1536.12,246.78 C1538.19,247.82 1543.34,250.82 1544.87,252.78 C1542.98,252.80 1536.83,249.71 1533.20,247.89 C1527.81,245.10 1525.64,243.52 1526.04,242.01 C1531.71,242.56 1536.63,247.00 1537.78,248.53 C1537.78,248.53 1536.84,249.85 1536.84,249.85 C1533.13,249.78 1526.78,247.48 1525.40,246.76 C1521.00,244.39 1519.62,242.48 1519.08,240.93 C1520.33,240.31 1521.65,240.26 1523.79,240.96 C1527.35,242.14 1532.49,245.22 1534.73,247.56 C1534.73,247.56 1534.43,248.90 1534.43,248.90 C1532.78,248.96 1531.49,248.53 1529.31,247.04 C1525.73,244.54 1524.09,242.04 1522.97,239.83 C1522.97,239.83 1524.05,237.71 1524.05,237.71 C1526.96,237.48 1528.68,237.47 1529.76,237.86 C1532.24,238.79 1539.22,243.16 1541.17,244.55 C1543.47,246.23 1545.13,248.61 1546.56,250.97 C1546.56,250.97 1545.42,252.56 1545.42,252.56 C1542.27,251.99 1540.35,251.57 1539.48,251.09 C1537.11,249.78 1530.79,243.37 1529.90,241.86 C1529.11,240.52 1528.66,238.70 1528.71,237.76 C1530.77,236.16 1532.22,235.57 1533.87,236.04 C1536.80,236.89 1541.99,239.95 1544.36,241.61 C1547.02,243.50 1551.02,247.07 1553.93,250.40 C1558.46,255.83 1559.16,257.36 1559.83,260.05 C1557.50,260.26 1556.38,260.07 1554.82,259.02 C1553.96,258.44 1545.86,253.00 1543.45,250.78 C1540.41,247.95 1535.42,241.31 1534.58,239.64 C1533.72,237.90 1533.02,235.64 1532.89,234.49 C1534.84,233.07 1536.23,232.76 1538.06,233.72 C1541.01,235.28 1546.02,238.75 1548.62,241.27 C1550.52,243.13 1557.85,251.49 1558.58,252.39 C1560.83,255.26 1561.03,256.76 1561.02,258.86 C1558.75,258.74 1556.42,257.82 1551.56,255.04 C1543.63,250.37 1532.30,242.31 1528.00,238.30 C1528.00,238.30 1528.15,237.30 1528.15,237.30 C1542.20,241.33 1550.35,249.31 1550.77,250.02 C1548.57,249.97 1542.86,246.81 1539.47,244.88 C1535.83,242.77 1533.27,240.85 1530.27,238.10 C1529.17,237.09 1528.63,235.97 1528.10,233.96 C1530.91,234.32 1532.83,234.71 1534.28,235.44 C1537.49,237.04 1545.25,242.26 1547.69,244.12 C1555.94,250.52 1557.98,255.25 1557.96,256.28 C1557.29,256.85 1556.33,257.00 1554.81,256.50 C1545.18,253.32 1531.81,239.32 1529.78,236.30 C1528.69,234.66 1528.43,233.70 1528.65,232.78 C1530.08,232.43 1535.95,235.24 1538.50,236.81 C1546.68,241.93 1564.48,258.95 1571.42,266.40 C1572.54,267.65 1574.27,269.58 1574.88,270.26" fill="none" stroke="rgb(255, 116, 26)" stroke-width="10.00" stroke-opacity="1.00" stroke-linejoin="round"/>
<path d="M1581.69,241.34 C1578.57,240.96 1562.34,243.58 1556.08,243.64 C1553.09,243.66 1543.51,243.06 1543.40,243.04 C1542.20,242.82 1541.67,241.75 1542.18,240.50 C1542.39,240.01 1543.83,237.76 1544.53,236.65 C1544.53,236.65 1539.25,239.98 1539.25,239.98 C1539.75,238.29 1541.31,236.10 1542.40,234.68 C1542.90,233.84 1541.93,233.61 1540.74,233.99 C1538.44,234.80 1534.71,237.10 1532.98,238.21 C1535.51,236.01 1541.88,233.04 1545.58,231.30 C1554.30,227.33 1565.93,221.38 1571.37,219.31 C1580.90,215.78 1586.76,214.07 1596.04,212.84 C1600.59,212.15 1616.91,207.62 1622.30,207.27 C1624.76,207.12 1632.55,207.39 1635.88,207.50 C1634.05,208.69 1629.07,210.61 1623.27,212.38 C1616.37,214.01 1607.62,216.20 1604.75,217.85 C1603.74,218.44 1602.74,219.04 1601.73,219.63" fill="none" stroke="rgb(255, 116, 26)" stroke-width="30.00" stroke-opacity="1.00" stroke-linejoin="round"/>
<path d="M1567.04,237.62 C1566.58,237.58 1566.30,237.70 1566.20,237.99 C1565.96,238.76 1566.23,244.06 1566.71,245.32 C1567.24,246.66 1569.60,248.70 1571.20,249.59 C1571.32,249.65 1578.45,253.65 1582.17,256.70 C1584.17,258.32 1588.78,259.55 1593.56,260.26 C1598.69,261.03 1600.47,261.64 1604.67,264.26 C1607.88,266.29 1622.68,274.33 1626.66,276.16 C1630.61,277.95 1636.89,280.02 1640.86,280.96 C1644.99,281.91 1650.69,282.51 1654.41,282.23 C1657.60,281.95 1661.97,280.67 1664.33,279.06 C1666.72,277.36 1669.97,272.20 1671.04,268.56 C1672.17,264.53 1672.54,258.43 1672.12,254.41 C1671.20,246.05 1666.78,227.53 1665.24,222.43 C1663.83,217.87 1661.25,212.86 1658.69,209.58 C1656.17,206.47 1653.25,204.45 1651.04,203.74 C1648.05,202.83 1644.29,203.32 1642.12,204.22 C1635.72,206.97 1622.03,212.80 1614.74,215.87 C1604.03,220.42 1599.87,222.63 1596.06,225.58 C1594.21,227.08 1592.78,228.94 1592.59,230.44 C1592.47,231.70 1593.04,234.88 1593.46,235.67 C1595.32,238.86 1606.32,249.13 1610.45,251.21 C1610.45,251.21 1611.58,250.52 1611.58,250.52 C1611.01,247.84 1608.50,240.96 1608.87,238.57 C1608.96,237.99 1609.31,236.99 1609.93,235.57 C1612.43,234.98 1614.01,234.98 1615.67,235.80 C1618.82,237.39 1624.59,241.59 1626.86,243.74 C1632.19,248.88 1635.25,254.08 1636.47,256.90 C1636.47,256.90 1635.68,258.00 1635.68,258.00 C1633.81,256.14 1631.17,252.22 1629.73,248.59 C1628.76,246.05 1627.40,237.69 1627.98,235.40 C1628.30,234.12 1629.72,231.57 1630.76,229.97 C1632.32,229.60 1634.86,229.40 1636.29,229.70 C1638.04,230.09 1643.26,234.62 1645.44,237.59 C1647.74,240.80 1650.80,246.70 1652.34,250.83 C1653.61,254.34 1654.57,259.52 1654.29,262.72 C1654.16,263.78 1653.91,264.42 1653.55,264.65 C1651.98,265.54 1649.05,265.01 1647.47,263.44 C1644.59,260.49 1640.63,254.23 1639.50,251.76 C1637.26,246.78 1636.56,238.10 1637.09,235.21 C1637.39,233.80 1639.31,231.82 1640.84,231.40 C1641.53,231.24 1644.93,233.05 1645.50,233.42 C1648.14,235.27 1651.51,240.79 1653.35,245.24 C1657.09,254.62 1656.70,259.97 1656.44,260.77 C1656.44,260.77 1654.81,251.18 1654.81,251.18" fill="none" stroke="rgb(255, 116, 26)" stroke-width="30.00" stroke-opacity="1.00" stroke-linejoin="round"/>
<path d="M1671.83,236.47 C1670.07,235.98 1667.45,235.11 1666.23,234.46 C1664.64,233.59 1662.06,231.01 1660.89,229.21 C1657.73,224.17 1656.54,212.85 1656.94,210.81 C1657.27,209.41 1658.80,207.36 1660.76,205.63 C1662.64,204.02 1664.77,202.71 1665.88,202.49 C1668.00,202.17 1672.07,203.66 1675.16,206.21 C1682.81,212.67 1690.72,219.23 1696.68,225.85 C1699.32,228.81 1703.20,234.58 1704.13,236.95 C1705.37,240.21 1705.95,245.16 1706.15,249.17 C1706.20,250.37 1706.29,252.42 1706.34,253.26" fill="none" stroke="rgb(255, 116, 26)" stroke-width="30.00" stroke-opacity="1.00" stroke-linejoin="round"/>
<path d="M1674.02,218.04 C1673.97,223.71 1674.17,227.32 1675.51,230.53 C1676.05,231.78 1682.55,245.09 1687.25,255.84 C1690.51,263.63 1697.14,279.62 1698.46,283.27 C1699.10,285.06 1699.86,286.65 1700.69,288.01 C1700.85,288.27 1701.19,288.81 1701.71,289.62" fill="none" stroke="rgb(255, 116, 26)" stroke-width="30.00" stroke-opacity="1.00" stroke-linejoin="round"/>
<path d="M1686.03,242.10 C1686.03,242.10 1700.75,291.15 1700.75,291.15 C1700.75,291.15 1701.58,289.07 1701.58,289.07" fill="none" stroke="rgb(255, 116, 26)" stroke-width="30.00" stroke-opacity="1.00" stroke-linejoin="round"/>
<path d="M1708.26,238.99 C1708.26,238.99 1716.75,292.36 1716.75,292.36" fill="none" stroke="rgb(255, 116, 26)" stroke-width="17.00" stroke-opacity="1.00" stroke-linejoin="round"/>
<path d="M1716.30,233.79 C1716.26,237.34 1718.80,257.48 1719.16,261.87 C1719.57,266.97 1719.67,271.51 1719.70,277.55 C1719.71,278.85 1719.74,281.91 1719.77,283.67 C1719.78,284.15 1719.80,284.82 1719.83,285.68" fill="none" stroke="rgb(255, 116, 26)" stroke-width="17.00" stroke-opacity="1.00" stroke-linejoin="round"/>
<path d="M1716.17,246.64 C1716.17,247.42 1716.17,247.94 1716.17,248.21 C1716.07,255.38 1717.92,283.96 1718.26,289.04" fill="none" stroke="rgb(255, 116, 26)" stroke-width="17.00" stroke-opacity="1.00" stroke-linejoin="round"/>
<path d="M1634.50,285.35 C1635.12,287.08 1636.62,289.76 1638.00,291.20 C1639.33,292.56 1658.57,302.67 1661.46,304.86 C1663.23,306.21 1679.61,319.66 1685.79,324.41 C1693.64,330.30 1699.73,333.21 1702.86,334.10 C1704.85,334.60 1706.32,334.05 1706.49,332.56 C1706.68,330.39 1701.30,309.86 1699.11,302.19 C1695.80,291.16 1694.53,288.89 1693.49,287.55 C1692.38,288.36 1694.79,305.64 1695.97,314.06 C1696.32,316.40 1696.33,317.57 1696.08,319.58 C1694.19,317.28 1686.26,300.54 1682.44,292.41 C1681.01,289.38 1678.46,283.94 1677.55,282.66 C1678.42,290.47 1688.43,312.00 1693.22,321.11 C1693.22,321.11 1668.69,293.74 1668.69,293.74 C1668.69,293.74 1682.42,317.21 1682.42,317.21 C1670.39,303.61 1665.00,292.08 1664.64,289.92 C1666.72,291.60 1682.35,310.64 1682.70,310.93 C1682.96,311.14 1683.42,311.36 1684.08,311.59 C1684.08,311.59 1677.34,291.65 1677.34,291.65 C1678.25,291.62 1678.75,291.99 1679.72,293.53 C1687.97,306.62 1709.30,340.60 1713.03,344.86 C1713.48,345.37 1713.92,345.88 1714.36,346.39 C1712.78,342.71 1708.87,336.92 1706.57,333.48 C1699.18,322.74 1696.50,319.34 1694.37,316.96 C1698.60,322.98 1709.02,337.51 1711.14,340.12 C1715.10,344.98 1729.27,359.03 1732.42,361.24 C1731.54,358.34 1729.67,354.80 1726.88,350.44 C1715.58,333.40 1705.99,317.60 1702.81,312.17 C1725.44,350.69 1735.68,362.35 1736.55,363.27 C1736.68,361.96 1733.31,355.99 1731.17,352.17 C1705.98,306.49 1701.12,294.44 1697.92,285.92 C1704.94,298.34 1720.02,325.60 1728.09,340.44 C1740.45,363.13 1746.01,371.88 1748.77,374.91 C1748.70,372.86 1747.70,370.11 1745.30,365.41 C1736.32,348.78 1722.49,320.47 1719.22,312.37 C1716.23,304.92 1713.37,295.13 1711.99,287.25 C1718.71,300.86 1732.04,326.90 1738.66,339.32 C1740.19,342.30 1745.39,352.92 1747.09,355.21 C1746.23,351.62 1725.87,305.84 1723.90,300.14 C1722.86,297.10 1721.86,293.31 1720.67,288.21 C1722.19,291.45 1731.71,306.83 1735.88,313.43 C1746.54,329.95 1748.87,337.31 1749.24,339.00 C1747.60,338.03 1743.13,331.06 1741.77,328.83 C1732.19,313.14 1727.56,298.99 1727.21,297.73 C1727.21,297.73 1759.83,341.96 1759.83,341.96 C1752.05,328.95 1740.49,305.30 1739.27,301.62 C1741.46,302.78 1743.39,304.68 1747.27,309.41 C1750.14,313.01 1755.84,320.20 1758.67,323.80 C1762.45,328.64 1764.71,331.79 1764.14,332.22 C1760.94,329.47 1748.04,311.31 1747.45,308.34 C1747.37,307.92 1747.37,307.05 1747.44,305.72 C1749.68,306.00 1750.82,306.41 1752.39,307.68 C1765.85,318.31 1771.73,327.39 1772.37,328.57 C1770.15,326.72 1766.26,322.07 1763.47,317.99 C1760.37,313.24 1760.08,312.27 1760.02,310.37 C1761.46,309.87 1762.41,309.97 1763.99,311.01 C1767.74,313.51 1772.22,317.16 1774.89,319.91 C1780.41,325.66 1782.35,329.79 1783.00,331.68 C1781.71,331.60 1778.03,327.79 1776.28,325.24 C1774.77,323.03 1770.13,314.42 1770.11,314.10 C1770.09,313.79 1770.25,313.23 1770.61,312.41 C1772.58,313.26 1773.71,314.01 1775.23,315.64 C1790.29,331.77 1791.03,338.09 1790.67,338.97 C1788.07,337.21 1783.95,332.50 1781.99,329.56 C1780.29,326.99 1775.06,317.35 1774.99,316.98 C1774.94,316.62 1775.02,315.93 1775.25,314.92 C1776.99,315.49 1777.96,316.07 1779.18,317.40 C1791.46,330.72 1794.82,340.50 1794.93,341.58 C1793.27,339.72 1790.59,334.66 1788.74,329.98 C1786.72,324.60 1786.58,323.56 1786.68,321.61 C1788.02,321.95 1788.82,322.51 1789.94,324.11 C1794.38,330.44 1798.79,338.96 1799.82,343.22 C1798.95,342.90 1796.47,337.06 1795.01,333.62 C1792.81,328.25 1792.50,327.14 1791.98,324.49 C1791.98,324.49 1792.78,323.63 1792.78,323.63 C1794.92,325.96 1798.15,331.36 1799.58,334.45 C1804.33,344.82 1804.38,347.61 1803.85,348.77 C1802.07,347.98 1801.08,347.31 1799.79,345.82 C1789.31,333.71 1783.31,321.32 1782.86,319.97 C1782.86,319.97 1790.73,329.66 1790.73,329.66 C1790.73,329.66 1780.96,312.97 1780.96,312.97 C1782.98,313.43 1783.96,313.97 1785.16,315.51 C1790.84,322.54 1793.62,327.35 1794.14,328.45 C1798.30,339.45 1802.18,350.62 1803.62,358.13 C1804.29,361.75 1805.20,368.72 1805.34,371.65 C1805.48,374.97 1804.88,378.52 1803.71,383.11 C1803.24,384.89 1802.45,387.90 1802.14,389.14" fill="none" stroke="rgb(255, 116, 26)" stroke-width="17.00" stroke-opacity="1.00" stroke-linejoin="round"/>
<path d="M1803.29,343.04 C1806.63,352.68 1809.21,364.14 1809.45,371.91 C1809.53,375.21 1809.32,383.07 1809.00,383.51 C1808.73,383.86 1807.88,384.38 1806.44,385.09" fill="none" stroke="rgb(255, 116, 26)" stroke-width="17.00" stroke-opacity="1.00" stroke-linejoin="round"/>
<path d="M1805.61,353.70 C1806.08,361.00 1807.28,380.41 1807.19,384.43 C1807.00,392.07 1804.86,401.54 1801.80,411.82 C1801.24,413.74 1800.77,414.42 1800.02,414.44 C1799.89,414.44 1799.65,414.39 1799.31,414.29" fill="none" stroke="rgb(255, 116, 26)" stroke-width="17.00" stroke-opacity="1.00" stroke-linejoin="round"/>
<path d="M1804.39,403.08 C1804.21,409.04 1800.77,420.53 1799.34,422.70 C1797.63,425.13 1796.33,426.29 1795.35,425.74 C1794.98,425.52 1791.85,423.38 1790.19,422.27" fill="none" stroke="rgb(255, 116, 26)" stroke-width="17.00" stroke-opacity="1.00" stroke-linejoin="round"/>
<path d="M1734.54,364.69 C1733.75,364.58 1733.45,365.09 1734.10,366.15 C1734.24,366.37 1760.16,398.76 1762.75,403.15 C1758.54,398.07 1747.71,384.86 1743.66,379.17 C1738.87,372.42 1732.52,361.39 1730.54,357.94 C1738.88,370.89 1757.25,399.24 1767.28,414.65 C1773.45,423.86 1774.30,424.82 1776.14,426.68 C1776.43,424.67 1774.24,419.33 1772.35,415.73 C1764.93,401.71 1755.10,383.02 1754.98,382.32 C1754.98,382.32 1786.38,433.31 1786.38,433.31 C1783.33,425.73 1768.77,396.71 1761.47,382.17 C1754.15,366.42 1745.61,346.62 1743.57,341.83 C1746.12,348.15 1763.36,380.43 1771.47,395.53 C1782.11,415.68 1786.20,421.57 1790.66,427.31 C1790.45,424.14 1789.20,419.87 1787.53,416.15 C1780.63,401.97 1764.08,367.74 1759.53,357.53 C1754.53,346.08 1751.33,333.24 1751.12,332.38 C1751.12,332.38 1789.61,421.18 1789.61,421.18 C1789.24,411.68 1787.65,403.06 1785.23,397.12 C1782.51,390.46 1758.55,337.71 1756.87,332.98 C1756.87,332.98 1791.72,401.51 1791.72,401.51 C1792.28,401.17 1791.81,396.27 1791.09,393.04 C1789.22,384.76 1775.99,348.18 1772.32,335.32 C1771.54,332.51 1771.15,329.62 1771.05,328.48 C1771.05,328.48 1793.78,386.35 1793.78,386.35 C1793.82,385.17 1793.94,378.38 1792.35,372.09 C1790.93,366.63 1779.72,334.82 1779.71,334.86 C1780.78,338.77 1785.56,351.59 1790.54,361.78 C1797.23,374.96 1797.86,375.91 1798.67,376.76 C1798.86,374.69 1796.71,367.79 1795.46,363.74 C1794.20,359.75 1792.03,352.89 1791.68,352.35 C1791.68,352.35 1792.77,357.62 1792.77,357.62 C1792.77,357.62 1795.45,375.25 1795.45,375.25" fill="none" stroke="rgb(255, 116, 26)" stroke-width="17.00" stroke-opacity="1.00" stroke-linejoin="round"/>
<path d="M1779.52,418.61 C1780.37,421.87 1782.85,427.28 1784.05,430.69 C1790.99,453.11 1793.37,457.11 1794.22,458.15" fill="none" stroke="rgb(255, 116, 26)" stroke-width="17.00" stroke-opacity="1.00" stroke-linejoin="round"/>
<path d="M1791.73,441.74 C1791.48,446.12 1791.80,449.93 1792.98,454.22 C1794.21,458.51 1802.31,480.69 1802.45,481.03 C1802.45,481.03 1795.52,438.79 1795.52,438.79 C1795.52,438.79 1802.26,462.79 1802.26,462.79 C1800.36,460.60 1799.56,459.38 1798.90,457.45 C1797.31,453.04 1795.27,446.54 1794.29,442.80 C1793.64,440.26 1792.07,433.20 1792.20,429.49 C1793.36,429.99 1793.93,430.57 1794.65,432.25 C1798.50,440.92 1804.09,460.90 1804.54,462.54 C1804.59,460.84 1804.58,459.19 1804.53,456.28 C1804.48,453.38 1804.72,452.45 1805.35,452.46 C1809.06,459.15 1810.08,464.12 1810.35,466.39 C1810.35,466.39 1807.54,456.13 1807.54,456.13 C1809.02,460.07 1811.10,474.17 1809.82,477.16 C1808.71,476.21 1807.24,470.20 1806.91,468.01 C1806.60,465.84 1806.26,459.63 1807.02,456.44 C1807.02,456.44 1808.18,456.30 1808.18,456.30 C1810.56,461.36 1811.54,470.21 1810.83,472.62 C1809.91,472.58 1809.40,472.13 1808.73,470.50 C1807.28,466.96 1805.66,461.15 1804.79,456.84 C1803.73,451.22 1803.70,450.00 1803.90,447.55 C1803.90,447.55 1805.07,447.34 1805.07,447.34 C1806.93,449.79 1809.54,455.35 1810.37,458.16 C1810.84,459.80 1810.79,460.58 1810.35,461.00 C1808.91,459.57 1806.65,453.78 1805.41,450.46 C1804.66,448.50 1804.54,447.74 1804.77,446.92 C1805.88,448.81 1807.42,453.30 1808.38,457.82 C1809.03,461.02 1808.86,469.32 1809.00,470.96 C1809.62,477.48 1810.34,485.01 1810.43,486.03" fill="none" stroke="rgb(255, 116, 26)" stroke-width="17.00" stroke-opacity="1.00" stroke-linejoin="round"/>
<path d="M1496.55,256.40 C1495.75,255.95 1495.04,255.75 1493.09,255.49 C1484.74,254.35 1471.06,253.71 1463.44,253.49 C1453.12,253.41 1440.09,253.81 1432.32,254.21 C1424.35,254.77 1411.36,256.09 1401.06,257.68 C1393.42,259.04 1378.10,262.22 1370.56,263.99 C1358.65,267.10 1328.72,276.49 1311.41,282.80 C1293.70,289.64 1269.28,300.22 1255.47,306.63 C1241.93,313.17 1210.01,329.80 1201.80,334.71 C1188.64,342.79 1163.40,360.20 1150.47,370.49 C1144.25,375.60 1129.77,388.28 1126.43,391.53 C1121.03,396.86 1110.33,408.03 1105.08,413.84 C1097.74,422.34 1092.44,429.00 1086.01,437.74 C1081.62,443.95 1073.12,456.76 1069.06,463.28 C1065.10,469.84 1057.78,483.48 1054.25,490.50 C1045.91,507.85 1037.19,529.86 1031.49,547.60 C1025.84,566.14 1019.95,592.46 1017.42,607.83 C1016.33,615.58 1014.92,627.86 1014.36,638.38 C1014.14,645.93 1014.27,660.96 1014.63,668.34 C1015.40,678.50 1017.14,690.64 1018.61,698.20 C1020.20,705.71 1024.65,722.32 1026.44,727.49 C1028.22,732.64 1034.24,746.70 1038.17,754.79 C1041.57,761.35 1047.93,772.67 1053.41,780.87 C1057.01,786.08 1067.68,800.13 1072.69,806.27 C1075.70,809.88 1088.79,823.80 1094.49,829.47 C1100.29,834.96 1109.78,843.43 1118.41,850.26 C1130.51,859.37 1154.11,875.01 1171.79,884.91 C1186.34,892.76 1215.88,906.21 1226.78,910.59 C1233.64,913.22 1248.73,918.39 1256.40,920.80 C1264.08,923.04 1279.37,927.34 1287.03,929.22 C1294.78,930.95 1310.37,934.23 1318.21,935.60 C1325.88,936.80 1340.82,938.37 1348.35,938.96 C1369.26,940.10 1393.95,940.27 1409.44,940.01 C1424.74,939.51 1455.23,937.54 1470.18,936.12 C1475.51,935.53 1493.46,932.92 1501.27,931.68 C1519.61,928.29 1545.65,922.03 1559.80,918.09 C1564.82,916.61 1581.94,910.89 1589.37,908.30 C1596.51,905.61 1611.16,899.82 1618.57,896.62 C1636.57,888.38 1663.57,874.18 1674.27,867.55 C1680.43,863.62 1692.18,855.65 1697.92,851.67 C1704.10,847.07 1715.79,837.94 1721.36,833.52 C1729.52,826.71 1737.08,819.95 1742.94,813.76 C1747.95,808.31 1758.44,796.66 1763.39,790.79 C1769.21,783.61 1776.09,773.56 1780.46,765.75 C1784.41,758.45 1790.24,745.08 1792.12,739.33 C1794.64,731.49 1796.36,720.96 1796.47,718.15 C1796.48,717.77 1796.49,717.05 1796.48,715.99" fill="none" stroke="rgb(0, 0, 0)" stroke-width="10.00" stroke-opacity="1.00" stroke-linejoin="round"/>
<path d="M1665.41,576.33 C1665.75,573.83 1672.38,566.95 1681.39,558.45 C1687.87,552.48 1701.77,539.86 1706.50,536.10 C1709.00,534.12 1719.77,526.47 1726.57,521.98 C1732.21,518.32 1743.78,512.78 1753.94,508.35 C1761.94,505.02 1777.93,498.61 1785.63,495.85 C1793.59,493.10 1807.13,489.51 1817.53,487.34 C1827.96,485.33 1839.52,483.52 1847.28,482.88 C1855.77,482.19 1869.20,482.66 1876.08,484.75 C1879.40,485.80 1885.04,489.28 1887.28,491.35 C1889.92,493.84 1893.21,498.79 1894.89,502.75 C1896.37,506.34 1898.33,513.88 1898.68,517.51 C1899.02,521.24 1899.02,528.19 1898.66,531.81 C1898.29,535.35 1896.58,542.40 1895.39,545.80 C1894.20,549.15 1891.23,555.56 1889.42,558.48 C1886.24,563.56 1877.16,573.92 1870.51,579.56 C1864.21,584.81 1849.01,595.09 1848.89,595.25 C1848.56,595.79 1853.82,599.78 1856.22,602.86 C1858.77,606.21 1861.54,611.93 1862.81,615.77 C1863.96,619.36 1865.21,626.09 1865.35,629.49 C1865.58,636.03 1863.65,649.79 1861.18,657.30 C1858.67,664.82 1852.29,675.78 1846.99,682.61 C1842.59,688.25 1830.93,699.93 1825.34,704.14 C1819.39,708.59 1807.49,715.18 1802.20,716.64 C1796.61,718.14 1782.69,719.15 1777.33,717.97 C1773.99,717.20 1765.20,713.97 1763.75,712.91 C1762.97,712.33 1762.23,711.61 1761.53,710.73 C1761.32,710.46 1761.12,710.10 1760.95,709.66" fill="none" stroke="rgb(0, 0, 0)" stroke-width="10.00" stroke-opacity="1.00" stroke-linejoin="round"/>
<path d="M1138.92,372.93 C1133.76,369.87 1127.74,363.54 1120.15,354.89 C1114.94,349.18 1103.73,337.04 1098.00,332.11 C1092.69,327.57 1077.03,316.76 1074.81,315.39 C1068.19,311.32 1054.86,306.59 1050.13,306.07 C1046.44,305.71 1038.51,306.57 1035.02,307.86 C1031.20,309.34 1025.38,313.18 1022.28,316.27 C1018.34,320.25 1010.73,333.62 1009.06,338.90 C1007.84,342.82 1003.57,363.51 1002.94,368.93 C1002.39,373.82 1002.18,380.90 1002.34,385.34 C1002.51,389.48 1003.91,397.26 1005.05,400.22 C1005.76,402.02 1007.25,404.71 1008.11,405.70 C1010.06,408.02 1010.33,408.67 1009.47,409.85 C1006.86,413.27 1001.01,425.14 998.56,432.08 C996.15,438.98 994.06,453.33 993.90,461.00 C993.77,468.62 995.50,483.04 997.28,490.68 C998.93,497.71 1004.80,512.53 1007.81,518.07 C1011.47,524.72 1018.04,533.33 1025.12,540.40 C1028.27,543.55 1032.65,548.18 1033.81,549.70 C1034.44,550.53 1035.89,552.65 1035.98,552.96 C1036.11,553.43 1036.24,553.89 1036.38,554.36" fill="none" stroke="rgb(0, 0, 0)" stroke-width="10.00" stroke-opacity="1.00" stroke-linejoin="round"/>
<path d="M1501.56,254.27 C1503.61,249.06 1505.66,244.68 1508.01,241.78 C1511.98,236.98 1525.13,225.97 1531.11,222.19 C1535.77,219.27 1549.89,212.17 1556.34,209.51 C1562.01,207.23 1578.61,201.30 1585.71,199.15 C1592.73,197.12 1606.85,193.55 1613.83,192.26 C1620.90,191.06 1635.86,189.35 1642.26,189.16 C1649.78,188.95 1663.86,189.81 1671.45,191.43 C1679.32,193.12 1692.98,198.42 1698.66,201.96 C1701.21,203.57 1706.64,207.86 1709.13,210.23 C1711.56,212.57 1715.67,217.93 1717.91,221.56 C1720.81,226.33 1726.87,241.57 1727.60,245.47 C1728.50,250.48 1729.19,268.13 1729.27,276.10 C1729.25,281.60 1729.88,286.27 1731.47,288.68 C1733.24,291.20 1738.40,294.14 1741.89,294.85 C1744.09,295.27 1752.84,296.10 1757.48,296.90 C1764.45,298.13 1779.50,302.60 1785.69,306.02 C1788.99,307.87 1795.10,312.23 1797.83,314.68 C1800.79,317.38 1805.03,322.40 1807.16,325.73 C1809.01,328.67 1812.30,335.43 1813.64,338.90 C1816.00,345.11 1818.53,360.52 1818.77,367.08 C1819.00,373.89 1817.57,389.56 1816.22,396.77 C1813.85,409.22 1806.04,429.78 1805.66,430.94 C1805.24,432.34 1805.41,434.24 1806.10,435.21 C1806.49,435.72 1813.65,442.02 1815.60,444.85 C1817.81,448.14 1820.19,454.10 1820.83,458.02 C1821.38,461.61 1820.92,469.06 1820.23,471.42 C1819.35,474.36 1816.63,479.56 1816.16,480.15 C1815.49,480.96 1814.83,481.56 1814.19,481.94 C1813.94,482.09 1813.63,482.13 1813.26,482.07" fill="none" stroke="rgb(0, 0, 0)" stroke-width="10.00" stroke-opacity="1.00" stroke-linejoin="round"/>
<path d="M1487.94,254.38 C1488.49,254.38 1489.03,254.38 1489.57,254.38 C1496.46,254.33 1514.19,254.31 1517.59,254.59 C1521.27,254.92 1563.39,267.45 1572.72,270.74 C1584.31,274.96 1612.09,286.49 1629.48,294.82 C1636.33,298.31 1647.18,304.11 1656.16,309.45 C1662.64,313.46 1677.80,323.64 1681.43,326.39 C1685.03,329.13 1699.08,341.08 1704.72,346.23 C1712.19,353.34 1720.91,362.47 1726.12,368.24 C1738.06,382.13 1757.43,407.46 1762.63,415.09 C1767.11,421.87 1776.63,437.34 1778.89,441.53 C1783.10,449.51 1788.80,462.21 1790.60,468.47 C1792.56,475.41 1794.48,486.22 1794.57,487.62 C1794.61,488.19 1794.65,489.38 1794.68,491.19 C1794.68,491.35 1794.68,491.66 1794.68,492.38" fill="none" stroke="rgb(0, 0, 0)" stroke-width="10.00" stroke-opacity="1.00" stroke-linejoin="round"/>
<path d="M1219.62,474.30 C1225.28,468.54 1234.44,461.55 1242.27,456.82 C1250.14,452.09 1265.58,445.54 1269.67,444.64 C1271.87,444.19 1277.69,446.09 1278.74,447.18 C1281.11,449.75 1286.27,463.95 1288.38,472.04 C1292.98,490.78 1293.33,497.53 1293.26,497.85 C1293.20,498.08 1293.06,498.30 1292.84,498.53 C1292.80,498.56 1292.66,498.62 1292.47,498.86" fill="none" stroke="rgb(0, 0, 0)" stroke-width="10.00" stroke-opacity="1.00" stroke-linejoin="round"/>
<path d="M1220.39,471.13 C1220.05,474.89 1221.10,480.53 1221.71,483.89 C1223.35,492.34 1226.76,502.56 1230.80,512.28 C1231.90,515.00 1235.82,524.15 1237.23,525.62 C1238.15,526.54 1240.75,527.71 1242.15,527.89 C1244.88,528.15 1250.85,526.36 1254.58,524.86 C1260.13,522.61 1273.60,515.90 1279.51,511.99 C1285.13,508.26 1292.25,502.33 1294.28,500.95 C1295.32,500.26 1296.24,500.50 1296.46,501.47 C1296.51,501.78 1296.51,502.40 1296.43,503.34 C1296.39,503.72 1296.36,504.10 1296.32,504.48" fill="none" stroke="rgb(0, 0, 0)" stroke-width="10.00" stroke-opacity="1.00" stroke-linejoin="round"/>
<path d="M1154.73,423.67 C1154.71,423.67 1155.40,423.68 1155.82,423.67 C1160.55,423.55 1178.67,421.52 1184.65,421.36 C1199.80,421.19 1214.61,422.21 1215.87,422.46 C1216.40,422.57 1217.00,422.74 1217.65,422.97 C1217.67,422.97 1217.71,423.03 1217.69,423.02" fill="none" stroke="rgb(0, 0, 0)" stroke-width="10.00" stroke-opacity="1.00" stroke-linejoin="round"/>
<path d="M1346.33,463.26 C1346.48,463.27 1346.68,463.27 1346.94,463.26 C1349.60,463.18 1355.47,465.74 1357.96,467.34 C1361.68,469.78 1374.73,482.01 1380.21,487.21 C1385.95,492.49 1397.43,502.50 1399.54,505.26 C1400.13,506.03 1400.65,506.81 1401.10,507.60 C1401.63,508.53 1402.17,509.56 1402.73,510.69 C1402.75,510.74 1402.77,510.89 1402.74,510.85" fill="none" stroke="rgb(0, 0, 0)" stroke-width="10.00" stroke-opacity="1.00" stroke-linejoin="round"/>
</g>
</svg>
